<?xml version="1.0" encoding="UTF-8"?>
<svg version="1.1" xmlns="http://www.w3.org/2000/svg" width="2000" height="980">
<path d="M0 0 C239.25 0 478.5 0 725 0 C725 56.43 725 112.86 725 171 C721.37 173.97 717.74 176.94 714 180 C711.7035695 182.14216717 709.46623546 184.27240343 707.265625 186.50390625 C706.69849792 187.07149155 706.13137085 187.63907684 705.54705811 188.22386169 C704.36865784 189.40523895 703.19264223 190.58899972 702.01904297 191.77514648 C700.24372999 193.56883491 698.46042544 195.35427196 696.67578125 197.13867188 C691.45641616 202.37465972 686.33057762 207.62584724 681.53027344 213.25366211 C678.84144334 216.32213717 675.91372165 219.14720786 673 222 C668.75986427 226.19632007 664.61849324 230.40079136 660.76171875 234.95703125 C658.90924989 237.10523794 656.99150317 239.18610484 655.06152344 241.26464844 C650.2959069 246.39959216 645.75603765 251.64768853 641.36328125 257.109375 C639.20678072 259.74707812 636.99797034 262.32261314 634.75976562 264.89038086 C628.03732612 272.61401163 621.80425725 280.64975843 615.64550781 288.82666016 C614.01362744 290.98200127 612.36560044 293.1238313 610.7109375 295.26171875 C585.86857718 327.38124633 564.11513962 361.76093737 544 397 C543.39349609 398.06057617 542.78699219 399.12115234 542.16210938 400.21386719 C523.0693358 433.77116608 506.12166419 468.48422452 491 504 C490.69747314 504.70924622 490.39494629 505.41849243 490.08325195 506.14923096 C480.70191029 528.17381757 472.02221913 550.44498621 464 573 C463.74990173 573.70219666 463.49980347 574.40439331 463.24212646 575.12786865 C453.80487193 601.70655739 446.16872427 628.76933901 438.81634521 655.98834229 C438.04134404 658.84747371 437.25793206 661.70413828 436.47119141 664.56005859 C423.80264033 710.65372549 415.69245806 758.02768253 409.47802734 805.40258789 C408.87056622 809.97405858 408.2152568 814.53782485 407.55419922 819.10180664 C407.03340709 822.70106467 406.52196705 826.3015767 406.01171875 829.90234375 C405.4071826 834.16828358 404.78659747 838.43097397 404.14453125 842.69140625 C402.18497184 856.1297752 401.31199802 869.55602619 400.64599609 883.10961914 C400.5909491 884.21080833 400.5909491 884.21080833 400.53479004 885.33424377 C400.43593906 887.34178828 400.34254117 889.34959918 400.24951172 891.35742188 C400.00541386 894.92096404 399.50514189 898.46400676 399 902 C317.16 902 235.32 902 151 902 C151 893 151 893 151.48730469 889.83251953 C151.59451843 889.11621368 151.70173218 888.39990784 151.81219482 887.66189575 C151.93088928 886.90979828 152.04958374 886.15770081 152.171875 885.3828125 C152.29556458 884.5679538 152.41925415 883.75309509 152.54669189 882.9135437 C152.94224877 880.31647778 153.34594594 877.72075596 153.75 875.125 C154.00575018 873.45450995 154.26096177 871.78393735 154.515625 870.11328125 C155.0487083 866.62190355 155.58789474 863.13153148 156.13037109 859.64160156 C156.73143438 855.76543653 157.31542904 851.88713772 157.88916016 848.00683594 C160.27594934 831.97802987 163.0963953 816.04555395 166.09912109 800.12304688 C166.61721966 797.37515494 167.13084833 794.6264915 167.64013672 791.87695312 C170.63685314 775.69910779 173.89756994 759.62225329 177.68701172 743.60742188 C179.04403321 737.86614949 180.2445067 732.10627049 181.4050293 726.32202148 C197.11081844 648.40021717 223.03673379 571.94994352 291.55908203 430.51464844 C293.44103788 427.23031342 295.24523475 423.90675464 297.046875 420.57788086 C307.04410945 402.11423848 318.06230057 384.22625468 329.37646484 366.54492188 C331.17317002 363.72855274 332.95586832 360.90355946 334.73828125 358.078125 C343.16167886 344.76623176 351.90973235 331.73854842 360.98681641 318.86474609 C363.72763322 314.96458305 366.43925639 311.04447926 369.15234375 307.125 C385.56238335 283.4391079 402.25782629 259.64710737 421.25 237.9375 C428.02970152 230.06261593 435.33689822 221.32620356 440 212 C294.8 212 149.6 212 0 212 C0 142.04 0 72.08 0 0 Z " fill="#231915" transform="translate(55,28)"/>
<path d="M0 0 C64.02 0 128.04 0 194 0 C195.65 3.96 197.3 7.92 199 12 C200.78884818 15.76431241 202.59835075 19.51079017 204.4375 23.25 C210.68444916 36.12085263 216.41632368 49.19060293 222.09899902 62.31596375 C225.59138224 70.37799313 229.1312058 78.41908943 232.66864014 86.46142578 C239.32696398 101.60208684 245.95240396 116.7568418 252.55444336 131.92211914 C257.57877817 143.46218868 262.62627562 154.99182932 267.69198608 166.51379395 C276.95381646 187.58063016 286.14063847 208.67959551 295.30371094 229.78955078 C297.65486316 235.20583294 300.00803135 240.62123721 302.36160278 246.03646851 C320.28696446 287.28246027 320.28696446 287.28246027 328.8125 307.25 C334.83843977 321.36243738 340.98848825 335.41859829 347.16918945 349.46386719 C347.93312351 351.19986185 348.69703954 352.93586445 349.4609375 354.671875 C349.83931259 355.53174011 350.21768768 356.39160522 350.60752869 357.27752686 C354.24163067 365.54071373 357.84923657 373.8153509 361.45196533 382.09225464 C367.39746545 395.75139281 373.35725167 409.40419843 379.34155273 423.04638672 C380.09529793 424.76483046 380.84873245 426.48341053 381.60180664 428.20214844 C387.96832727 442.73016863 394.37716369 457.24209301 401.06640625 471.625 C401.48857422 472.53507812 401.91074219 473.44515625 402.34570312 474.3828125 C403.18704602 476.19244248 404.03375274 477.99958484 404.88476562 479.8046875 C405.29533203 480.69414063 405.70589844 481.58359375 406.12890625 482.5 C406.49056885 483.2734375 406.85223145 484.046875 407.22485352 484.84375 C408 487 408 487 408 491 C346.95 491 285.9 491 223 491 C216.43983222 473.50621924 210.01612937 455.95905706 203.71582031 438.36990356 C203.24579726 437.06000687 202.7738525 435.75079782 202.29980469 434.44235229 C201.63167788 432.59643096 200.97199289 430.74746107 200.3125 428.8984375 C199.93738281 427.85349121 199.56226563 426.80854492 199.17578125 425.73193359 C197.54540833 420.55712452 196.31589301 415.26357202 195 410 C128.67 410 62.34 410 -6 410 C-6.66 412.97 -7.32 415.94 -8 419 C-8.76515287 421.52018205 -9.57032372 424.02854886 -10.41430664 426.5234375 C-10.76346382 427.56175468 -10.76346382 427.56175468 -11.11967468 428.62104797 C-11.87859874 430.87393858 -12.6441753 433.12449997 -13.41015625 435.375 C-13.94331134 436.95146949 -14.47613781 438.52805015 -15.00865173 440.10473633 C-16.11945198 443.39032547 -17.23342638 446.6748148 -18.34985352 449.95849609 C-19.78316087 454.17468998 -21.20959798 458.39316944 -22.63385868 462.61242676 C-23.73047588 465.85928343 -24.83006265 469.10512791 -25.93063164 472.35064697 C-26.45811549 473.9069777 -26.98480613 475.4635775 -27.51069832 477.02044678 C-28.24255951 479.18521441 -28.97825773 481.34863824 -29.71508789 483.51171875 C-30.13319229 484.74365967 -30.55129669 485.97560059 -30.98207092 487.24487305 C-32 490 -32 490 -33 491 C-35.34027124 491.09762224 -37.65098381 491.12997604 -39.99171448 491.12025452 C-40.73169188 491.12110894 -41.47166928 491.12196337 -42.23407024 491.12284368 C-44.73232413 491.12450069 -47.23051198 491.11897353 -49.72875977 491.11352539 C-51.51213581 491.11324354 -53.29551197 491.11340121 -55.07888794 491.1139679 C-59.93612191 491.11425596 -64.79333141 491.10835788 -69.65055966 491.10139394 C-74.72080948 491.09516179 -79.79105981 491.09455671 -84.86131287 491.09336853 C-94.46963693 491.0902548 -104.07794968 491.08204086 -113.68626875 491.07201904 C-124.62199528 491.06085919 -135.55772234 491.05534778 -146.49345315 491.05032361 C-168.99564172 491.03985828 -191.49782022 491.02225804 -214 491 C-213.27109366 486.9623645 -212.09454519 484.05147406 -210.125 480.4375 C-206.56426902 473.61828505 -203.80980834 466.55358125 -201.0625 459.375 C-196.81123888 448.33125441 -192.21928183 437.48395925 -187.375 426.6875 C-186.86935013 425.56022995 -186.86935013 425.56022995 -186.35348511 424.41018677 C-184.96244456 421.31025586 -183.57109848 418.21046276 -182.1787262 415.11112976 C-178.25966107 406.37446067 -174.44080713 397.59463491 -170.625 388.8125 C-169.20096634 385.53756653 -167.77640786 382.26286165 -166.3515625 378.98828125 C-165.81751297 377.76080421 -165.81751297 377.76080421 -165.27267456 376.50852966 C-161.20401523 367.16259232 -157.10193545 357.83136739 -153 348.5 C-147.14393124 335.17650645 -141.30949542 321.84386639 -135.5 308.5 C-129.70865022 295.19900815 -123.89664646 281.90727805 -118.0625 268.625 C-117.68980988 267.77649475 -117.31711975 266.9279895 -116.93313599 266.05377197 C-113.91122349 259.17435753 -110.88795129 252.29554082 -107.86462402 245.41674805 C-105.22161383 239.40311113 -102.57914203 233.38923805 -99.9375 227.375 C-99.56472931 226.52633362 -99.19195862 225.67766724 -98.80789185 224.80328369 C-92.99768759 211.57316517 -87.21548304 198.33102252 -81.44747925 185.0824585 C-75.61299801 171.68230632 -69.74535478 158.29695776 -63.86474609 144.91699219 C-58.38781186 132.4541965 -52.93418077 119.98149341 -47.5 107.5 C-36.49085203 82.2176192 -25.43695925 56.95428914 -14.25 31.75 C-13.79713623 30.72874023 -13.34427246 29.70748047 -12.87768555 28.65527344 C-10.11589257 22.44785448 -7.28911976 16.27324223 -4.42089844 10.11425781 C-2.89360391 6.7668061 -1.4493908 3.38191187 0 0 Z M95 130 C91.54737591 138.04835808 88.44066572 146.15571391 85.5859375 154.43359375 C84.97502762 156.18921379 84.97502762 156.18921379 84.35177612 157.9803009 C83.47805253 160.49154177 82.6055226 163.00315949 81.73498535 165.51550293 C79.39837438 172.25728752 77.04679756 178.99386081 74.6953125 185.73046875 C74.45626694 186.41558659 74.21722137 187.10070442 73.97093201 187.8065834 C69.13994905 201.64840932 64.21322197 215.45503864 59.25 229.25 C57.70676375 233.54157053 56.16379742 237.833238 54.62109375 242.125 C54.24382645 243.1744429 53.86655914 244.2238858 53.4778595 245.30513 C49.44503708 256.53116559 45.44645444 267.76930629 41.46057129 279.01208496 C40.69984856 281.15755761 39.93854392 283.30282402 39.17663574 285.44787598 C38.13304413 288.38654745 37.09154989 291.32595275 36.05078125 294.265625 C35.73931656 295.1419458 35.42785187 296.0182666 35.10694885 296.92114258 C33.65089051 300.38396998 33.65089051 300.38396998 33 304 C74.25 304 115.5 304 158 304 C155.56046278 295.82736946 155.56046278 295.82736946 152.83374023 287.78320312 C152.43088806 286.66207123 152.02803589 285.54093933 151.61297607 284.38583374 C151.18252991 283.19632111 150.75208374 282.00680847 150.30859375 280.78125 C149.84646765 279.49818141 149.38458015 278.21502687 148.9229126 276.93179321 C147.68740903 273.49963308 146.44869822 270.06863876 145.20937729 266.63785553 C143.90626379 263.028644 142.60622568 259.41832507 141.3059082 255.80810547 C139.19956338 249.96105266 137.09162714 244.11457623 134.98242188 238.26855469 C132.3546418 230.98495776 129.73081593 223.69994363 127.109375 216.4140625 C126.73501816 215.373638 126.36066132 214.3332135 125.97496033 213.26126099 C125.23931291 211.21671763 124.50367131 209.17217218 123.76803589 207.12762451 C121.97766956 202.15250257 120.1861086 197.17781095 118.39453125 192.203125 C113.96258909 179.89666247 109.53207704 167.58968529 105.10171509 155.28265381 C103.16941684 149.91498243 101.23705077 144.54733547 99.3046875 139.1796875 C98.65869106 137.38525403 98.01269493 135.59082045 97.36669922 133.79638672 C97.10122284 133.05895233 96.83574646 132.32151794 96.56222534 131.56173706 C96.37669098 131.04636383 96.19115662 130.5309906 96 130 C95.67 130 95.34 130 95 130 Z " fill="#E50012" transform="translate(1541,169)"/>
<path d="M0 0 C64.02 0 128.04 0 194 0 C195.65 3.96 197.3 7.92 199 12 C200.78884818 15.76431241 202.59835075 19.51079017 204.4375 23.25 C210.68444916 36.12085263 216.41632368 49.19060293 222.09899902 62.31596375 C225.59138224 70.37799313 229.1312058 78.41908943 232.66864014 86.46142578 C239.32696398 101.60208684 245.95240396 116.7568418 252.55444336 131.92211914 C257.57877817 143.46218868 262.62627562 154.99182932 267.69198608 166.51379395 C276.95381646 187.58063016 286.14063847 208.67959551 295.30371094 229.78955078 C297.65486316 235.20583294 300.00803135 240.62123721 302.36160278 246.03646851 C320.28696446 287.28246027 320.28696446 287.28246027 328.8125 307.25 C334.83843977 321.36243738 340.98848825 335.41859829 347.16918945 349.46386719 C347.93312351 351.19986185 348.69703954 352.93586445 349.4609375 354.671875 C349.83931259 355.53174011 350.21768768 356.39160522 350.60752869 357.27752686 C354.24163067 365.54071373 357.84923657 373.8153509 361.45196533 382.09225464 C367.39746545 395.75139281 373.35725167 409.40419843 379.34155273 423.04638672 C380.09529793 424.76483046 380.84873245 426.48341053 381.60180664 428.20214844 C387.96832727 442.73016863 394.37716369 457.24209301 401.06640625 471.625 C401.48857422 472.53507812 401.91074219 473.44515625 402.34570312 474.3828125 C403.18704602 476.19244248 404.03375274 477.99958484 404.88476562 479.8046875 C405.29533203 480.69414063 405.70589844 481.58359375 406.12890625 482.5 C406.49056885 483.2734375 406.85223145 484.046875 407.22485352 484.84375 C408 487 408 487 408 491 C346.95 491 285.9 491 223 491 C216.43983222 473.50621924 210.01612937 455.95905706 203.71582031 438.36990356 C203.24579726 437.06000687 202.7738525 435.75079782 202.29980469 434.44235229 C201.63167788 432.59643096 200.97199289 430.74746107 200.3125 428.8984375 C199.93738281 427.85349121 199.56226563 426.80854492 199.17578125 425.73193359 C197.54540833 420.55712452 196.31589301 415.26357202 195 410 C128.67 410 62.34 410 -6 410 C-6.66 412.97 -7.32 415.94 -8 419 C-8.76515287 421.52018205 -9.57032372 424.02854886 -10.41430664 426.5234375 C-10.76346382 427.56175468 -10.76346382 427.56175468 -11.11967468 428.62104797 C-11.87859874 430.87393858 -12.6441753 433.12449997 -13.41015625 435.375 C-13.94331134 436.95146949 -14.47613781 438.52805015 -15.00865173 440.10473633 C-16.11945198 443.39032547 -17.23342638 446.6748148 -18.34985352 449.95849609 C-19.78316087 454.17468998 -21.20959798 458.39316944 -22.63385868 462.61242676 C-23.73047588 465.85928343 -24.83006265 469.10512791 -25.93063164 472.35064697 C-26.45811549 473.9069777 -26.98480613 475.4635775 -27.51069832 477.02044678 C-28.24255951 479.18521441 -28.97825773 481.34863824 -29.71508789 483.51171875 C-30.13319229 484.74365967 -30.55129669 485.97560059 -30.98207092 487.24487305 C-32 490 -32 490 -33 491 C-35.34027124 491.09762224 -37.65098381 491.12997604 -39.99171448 491.12025452 C-40.73169188 491.12110894 -41.47166928 491.12196337 -42.23407024 491.12284368 C-44.73232413 491.12450069 -47.23051198 491.11897353 -49.72875977 491.11352539 C-51.51213581 491.11324354 -53.29551197 491.11340121 -55.07888794 491.1139679 C-59.93612191 491.11425596 -64.79333141 491.10835788 -69.65055966 491.10139394 C-74.72080948 491.09516179 -79.79105981 491.09455671 -84.86131287 491.09336853 C-94.46963693 491.0902548 -104.07794968 491.08204086 -113.68626875 491.07201904 C-124.62199528 491.06085919 -135.55772234 491.05534778 -146.49345315 491.05032361 C-168.99564172 491.03985828 -191.49782022 491.02225804 -214 491 C-213.27109366 486.9623645 -212.09454519 484.05147406 -210.125 480.4375 C-206.56426902 473.61828505 -203.80980834 466.55358125 -201.0625 459.375 C-196.81123888 448.33125441 -192.21928183 437.48395925 -187.375 426.6875 C-186.86935013 425.56022995 -186.86935013 425.56022995 -186.35348511 424.41018677 C-184.96244456 421.31025586 -183.57109848 418.21046276 -182.1787262 415.11112976 C-178.25966107 406.37446067 -174.44080713 397.59463491 -170.625 388.8125 C-169.20096634 385.53756653 -167.77640786 382.26286165 -166.3515625 378.98828125 C-165.81751297 377.76080421 -165.81751297 377.76080421 -165.27267456 376.50852966 C-161.20401523 367.16259232 -157.10193545 357.83136739 -153 348.5 C-147.14393124 335.17650645 -141.30949542 321.84386639 -135.5 308.5 C-129.70865022 295.19900815 -123.89664646 281.90727805 -118.0625 268.625 C-117.68980988 267.77649475 -117.31711975 266.9279895 -116.93313599 266.05377197 C-113.91122349 259.17435753 -110.88795129 252.29554082 -107.86462402 245.41674805 C-105.22161383 239.40311113 -102.57914203 233.38923805 -99.9375 227.375 C-99.56472931 226.52633362 -99.19195862 225.67766724 -98.80789185 224.80328369 C-92.99768759 211.57316517 -87.21548304 198.33102252 -81.44747925 185.0824585 C-75.61299801 171.68230632 -69.74535478 158.29695776 -63.86474609 144.91699219 C-58.38781186 132.4541965 -52.93418077 119.98149341 -47.5 107.5 C-36.49085203 82.2176192 -25.43695925 56.95428914 -14.25 31.75 C-13.79713623 30.72874023 -13.34427246 29.70748047 -12.87768555 28.65527344 C-10.11589257 22.44785448 -7.28911976 16.27324223 -4.42089844 10.11425781 C-2.89360391 6.7668061 -1.4493908 3.38191187 0 0 Z M95 130 C91.54737591 138.04835808 88.44066572 146.15571391 85.5859375 154.43359375 C84.97502762 156.18921379 84.97502762 156.18921379 84.35177612 157.9803009 C83.47805253 160.49154177 82.6055226 163.00315949 81.73498535 165.51550293 C79.39837438 172.25728752 77.04679756 178.99386081 74.6953125 185.73046875 C74.45626694 186.41558659 74.21722137 187.10070442 73.97093201 187.8065834 C69.13994905 201.64840932 64.21322197 215.45503864 59.25 229.25 C57.70676375 233.54157053 56.16379742 237.833238 54.62109375 242.125 C54.24382645 243.1744429 53.86655914 244.2238858 53.4778595 245.30513 C49.44503708 256.53116559 45.44645444 267.76930629 41.46057129 279.01208496 C40.69984856 281.15755761 39.93854392 283.30282402 39.17663574 285.44787598 C38.13304413 288.38654745 37.09154989 291.32595275 36.05078125 294.265625 C35.73931656 295.1419458 35.42785187 296.0182666 35.10694885 296.92114258 C33.65089051 300.38396998 33.65089051 300.38396998 33 304 C74.25 304 115.5 304 158 304 C155.56046278 295.82736946 155.56046278 295.82736946 152.83374023 287.78320312 C152.43088806 286.66207123 152.02803589 285.54093933 151.61297607 284.38583374 C151.18252991 283.19632111 150.75208374 282.00680847 150.30859375 280.78125 C149.84646765 279.49818141 149.38458015 278.21502687 148.9229126 276.93179321 C147.68740903 273.49963308 146.44869822 270.06863876 145.20937729 266.63785553 C143.90626379 263.028644 142.60622568 259.41832507 141.3059082 255.80810547 C139.19956338 249.96105266 137.09162714 244.11457623 134.98242188 238.26855469 C132.3546418 230.98495776 129.73081593 223.69994363 127.109375 216.4140625 C126.73501816 215.373638 126.36066132 214.3332135 125.97496033 213.26126099 C125.23931291 211.21671763 124.50367131 209.17217218 123.76803589 207.12762451 C121.97766956 202.15250257 120.1861086 197.17781095 118.39453125 192.203125 C113.96258909 179.89666247 109.53207704 167.58968529 105.10171509 155.28265381 C103.16941684 149.91498243 101.23705077 144.54733547 99.3046875 139.1796875 C98.65869106 137.38525403 98.01269493 135.59082045 97.36669922 133.79638672 C97.10122284 133.05895233 96.83574646 132.32151794 96.56222534 131.56173706 C96.37669098 131.04636383 96.19115662 130.5309906 96 130 C95.67 130 95.34 130 95 130 Z " fill="#1D2088" transform="translate(863,169)"/>
<path d="M0 0 C450.78 0 901.56 0 1366 0 C1366 31.02 1366 62.04 1366 94 C915.22 94 464.44 94 0 94 C0 62.98 0 31.96 0 0 Z " fill="#231915" transform="translate(581,706)"/>
<path d="M0 0 C358.71 0 717.42 0 1087 0 C1087 31.02 1087 62.04 1087 94 C728.29 94 369.58 94 0 94 C0 62.98 0 31.96 0 0 Z " fill="#231915" transform="translate(860,29)"/>
<path d="M0 0 C45.10875 0 45.10875 0 49.65234375 4.4296875 C54.82730569 10.45964315 57.41523044 15.90929776 57 24 C55.81205549 30.82219563 52.39591692 35.77895951 48 41 C48.721875 41.20625 49.44375 41.4125 50.1875 41.625 C54.70340384 43.83277521 57.1328913 47.22449171 59.3125 51.6875 C61.10602892 60.32904845 60.69994104 69.18943968 55.86328125 76.78515625 C52.37747914 81.26061827 48.51632283 83.875093 43 85 C41.53475961 85.08337107 40.06623681 85.11784187 38.59863281 85.11352539 C37.72609863 85.11340454 36.85356445 85.11328369 35.95458984 85.11315918 C34.59261475 85.10548523 34.59261475 85.10548523 33.203125 85.09765625 C32.36185059 85.09664917 31.52057617 85.09564209 30.65380859 85.09460449 C27.51919181 85.08938295 24.3845945 85.07542168 21.25 85.0625 C14.2375 85.041875 7.225 85.02125 0 85 C0 56.95 0 28.9 0 0 Z M15 14 C15 20.6 15 27.2 15 34 C17.84625 34.04125 20.6925 34.0825 23.625 34.125 C24.51010254 34.14320801 25.39520508 34.16141602 26.30712891 34.18017578 C30.90842926 34.21228029 34.73601629 33.95432587 39 32 C41.97334084 27.73821147 42.66584569 24.13652387 42 19 C39.64535886 15.8044156 37.81918082 14.72077251 34 14 C32.48604304 13.92181364 30.96906493 13.89210091 29.453125 13.90234375 C28.69161133 13.90484131 27.93009766 13.90733887 27.14550781 13.90991211 C26.18999023 13.91901611 25.23447266 13.92812012 24.25 13.9375 C21.1975 13.958125 18.145 13.97875 15 14 Z M15 48 C15 55.59 15 63.18 15 71 C18.155625 71.04125 21.31125 71.0825 24.5625 71.125 C25.5429126 71.14320801 26.5233252 71.16141602 27.53344727 71.18017578 C32.72965607 71.21283977 37.17167979 71.01761607 42 69 C44.24678458 66.14996914 44.24640996 63.48816396 44.1875 59.9375 C44.18105469 59.08027344 44.17460938 58.22304688 44.16796875 57.33984375 C44.08590034 54.84522032 44.08590034 54.84522032 43 52 C36.93029287 47.61632263 30.86819607 47.86439263 23.6875 47.9375 C20.820625 47.958125 17.95375 47.97875 15 48 Z " fill="#231915" transform="translate(1713,849)"/>
<path d="M0 0 C4.95 0 9.9 0 15 0 C26.47511505 21.57912261 26.47511505 21.57912261 31.00976562 31.78881836 C34.22052015 38.86378641 38.07812051 45.1367109 42 52 C42.33 34.84 42.66 17.68 43 0 C47.62 0 52.24 0 57 0 C57 28.05 57 56.1 57 85 C51.72 85 46.44 85 41 85 C40.32195312 83.63230469 39.64390625 82.26460937 38.9453125 80.85546875 C33.8882954 70.68286613 28.77655094 60.54846046 23.43798828 50.52026367 C20.53091873 45.05267494 17.77224277 39.54448555 15 34 C14.67 50.83 14.34 67.66 14 85 C9.38 85 4.76 85 0 85 C0 56.95 0 28.9 0 0 Z " fill="#231915" transform="translate(1176,849)"/>
<path d="M0 0 C44.86666667 0 44.86666667 0 50.9375 3.875 C56.98122435 13.0321581 59.63547859 22.00743899 58 33 C55.71351797 39.58674639 50.6547647 43.28536378 45 47 C44.01 47.66 43.02 48.32 42 49 C42.4125 49.42667969 42.825 49.85335937 43.25 50.29296875 C49.72017367 57.29750945 64 74.65103317 64 85 C58.06 85 52.12 85 46 85 C45.11957031 83.42089844 44.23914062 81.84179688 43.33203125 80.21484375 C42.15906742 78.12227628 40.98587844 76.02983501 39.8125 73.9375 C39.23435547 72.89916016 38.65621094 71.86082031 38.06054688 70.79101562 C35.5640645 66.34812325 33.09523061 61.98897424 30.07421875 57.87890625 C28 55 28 55 28 53 C23.39090008 50.40736224 23.39090008 50.40736224 15 50 C15 61.55 15 73.1 15 85 C10.05 85 5.1 85 0 85 C0 56.95 0 28.9 0 0 Z M15 14 C15 21.26 15 28.52 15 36 C17.825625 36.04125 20.65125 36.0825 23.5625 36.125 C24.43849854 36.14320801 25.31449707 36.16141602 26.21704102 36.18017578 C31.20643827 36.21511001 35.30368334 35.73085898 40 34 C42.94851727 30.95636927 43.26495614 28.02967383 43.5 23.9375 C43.39302374 20.15391865 43.31561416 19.34973461 40.6875 16.4375 C37.05166191 14.49274939 34.39442846 13.87646861 30.33203125 13.90234375 C29.1251062 13.90609009 29.1251062 13.90609009 27.89379883 13.90991211 C26.87697021 13.91901611 25.8601416 13.92812012 24.8125 13.9375 C21.574375 13.958125 18.33625 13.97875 15 14 Z " fill="#231915" transform="translate(1399,849)"/>
<path d="M0 0 C7.12455463 4.01565806 13.1243774 9.31731803 16.4375 16.9375 C17.06287639 19.66768799 17.28678156 22.12408917 17.4375 24.9375 C12.88258386 27.14149168 8.40843824 27.52596263 3.4375 27.9375 C3.14617187 27.33421875 2.85484375 26.7309375 2.5546875 26.109375 C-0.06550617 21.0008213 -2.12953746 17.38765958 -7.5625 14.9375 C-13.37704519 14.28101909 -18.43948317 14.97558449 -23.5625 17.9375 C-29.83072631 23.74552742 -31.32129174 29.42876107 -31.765625 37.734375 C-31.87601012 47.04352048 -31.78241148 55.78564164 -26.6875 63.9375 C-22.21789342 68.14418855 -18.40975538 69.60389297 -12.3359375 70.078125 C-6.74423431 69.79460202 -0.56997861 67.94497861 3.4375 63.9375 C3.89912427 61.50497339 3.89912427 61.50497339 4.0625 58.8125 C4.248125 56.399375 4.248125 56.399375 4.4375 53.9375 C-1.1725 53.9375 -6.7825 53.9375 -12.5625 53.9375 C-12.5625 49.3175 -12.5625 44.6975 -12.5625 39.9375 C-2.3325 39.9375 7.8975 39.9375 18.4375 39.9375 C18.66825072 44.6576341 18.86663255 49.3580431 18.98681641 54.0793457 C19.03690142 55.68125842 19.10499983 57.2827185 19.19189453 58.88305664 C19.89486325 72.16916536 19.89486325 72.16916536 16.32080078 76.50585938 C13.75459686 78.32041389 11.30580945 79.66512657 8.4375 80.9375 C7.68243164 81.34863037 6.92736328 81.75976074 6.14941406 82.18334961 C-2.82941234 87.04145351 -13.66169091 87.33727652 -23.5859375 85.32421875 C-32.22559479 82.23083988 -38.60089015 76.32347878 -42.9375 68.3125 C-49.73689668 53.31605287 -50.35029947 37.59684413 -45.5625 21.9375 C-41.53144684 12.28740305 -35.93716363 5.06984527 -26.359375 0.6640625 C-18.99475168 -2.31380693 -7.67257564 -2.51130488 0 0 Z " fill="#231915" transform="translate(1366.5625,849.0625)"/>
<path d="M0 0 C40.84615385 0 40.84615385 0 47.390625 4.7265625 C58.24440944 15.80836762 60.50543462 30.64214482 60.35327148 45.71484375 C59.95443778 58.20305614 57.53050658 70.06326242 48.1875 78.875 C35.30185071 90.24953903 14.86475137 85 0 85 C0 56.95 0 28.9 0 0 Z M14 14 C14 32.81 14 51.62 14 71 C27.73249371 71.84771342 27.73249371 71.84771342 39.75 67.0625 C46.40008226 58.01099915 45.89294482 45.76578674 45 35 C43.8111972 27.52260268 41.63174418 21.51068604 36.125 16.1875 C29.7256655 12.61140131 20.70059172 14 14 14 Z " fill="#231915" transform="translate(1857,849)"/>
<path d="M0 0 C4.62 0 9.24 0 14 0 C14 10.89 14 21.78 14 33 C23.57 33 33.14 33 43 33 C43 22.11 43 11.22 43 0 C47.62 0 52.24 0 57 0 C57 28.05 57 56.1 57 85 C52.38 85 47.76 85 43 85 C43 72.46 43 59.92 43 47 C33.43 47 23.86 47 14 47 C14 59.54 14 72.08 14 85 C9.38 85 4.76 85 0 85 C0 56.95 0 28.9 0 0 Z " fill="#231915" transform="translate(1543,849)"/>
<path d="M0 0 C4.62 0 9.24 0 14 0 C14 10.89 14 21.78 14 33 C23.57 33 33.14 33 43 33 C43 22.11 43 11.22 43 0 C47.62 0 52.24 0 57 0 C57 28.05 57 56.1 57 85 C52.38 85 47.76 85 43 85 C43 72.46 43 59.92 43 47 C33.43 47 23.86 47 14 47 C14 59.54 14 72.08 14 85 C9.38 85 4.76 85 0 85 C0 56.95 0 28.9 0 0 Z " fill="#231915" transform="translate(1007,849)"/>
<path d="M0 0 C5.28 0 10.56 0 16 0 C16.49290527 1.45365967 16.98581055 2.90731934 17.49365234 4.4050293 C19.36975013 9.93727405 21.24676559 15.4692071 23.12408447 21.0010376 C23.95546425 23.45112334 24.78664227 25.90127755 25.61761475 28.35150146 C31.47241492 45.62752764 31.47241492 45.62752764 37.421875 62.87109375 C37.66253693 63.56287216 37.90319885 64.25465057 38.15115356 64.96739197 C39.21328364 68.01793815 40.28093236 71.06637572 41.35693359 74.11206055 C41.71609863 75.13984619 42.07526367 76.16763184 42.4453125 77.2265625 C42.74969238 78.08846191 43.05407227 78.95036133 43.36767578 79.83837891 C44 82 44 82 44 85 C38.72 85 33.44 85 28 85 C27.175 82.6075 26.35 80.215 25.5 77.75 C25.23896484 77.00331055 24.97792969 76.25662109 24.70898438 75.48730469 C23.56093471 72.09964702 23 69.61680617 23 66 C13.43 66 3.86 66 -6 66 C-6.66 68.97 -7.32 71.94 -8 75 C-8.65410414 76.8739845 -9.35245923 78.73415351 -10.125 80.5625 C-10.74375 82.026875 -11.3625 83.49125 -12 85 C-16.95 85 -21.9 85 -27 85 C-25.30933558 76.04762635 -22.29112474 67.5457751 -19.375 58.9375 C-18.83147385 57.32144908 -18.28842773 55.70523664 -17.74584961 54.08886719 C-16.66696361 50.87667853 -15.58586948 47.66524936 -14.50244141 44.45458984 C-12.51229877 38.55645646 -10.53403383 32.65437872 -8.5625 26.75 C-8.24651855 25.80439209 -7.93053711 24.85878418 -7.60498047 23.88452148 C-4.96460374 15.95421841 -2.45804755 7.98865453 0 0 Z M7 24 C5.66212755 28.29026517 4.33047065 32.58243422 3 36.875 C2.42765625 38.70998047 2.42765625 38.70998047 1.84375 40.58203125 C1.4828125 41.74863281 1.121875 42.91523437 0.75 44.1171875 C0.24726562 45.73536377 0.24726562 45.73536377 -0.265625 47.38623047 C-1.09016345 49.86841146 -1.09016345 49.86841146 -1 52 C5.27 52 11.54 52 18 52 C16.87969673 48.081934 15.75397372 44.16556758 14.625 40.25 C14.14933594 38.58324219 14.14933594 38.58324219 13.6640625 36.8828125 C13.2 35.27792969 13.2 35.27792969 12.7265625 33.640625 C12.44377441 32.65610352 12.16098633 31.67158203 11.86962891 30.65722656 C11.09339617 28.28538009 10.1858669 26.18999175 9 24 C8.34 24 7.68 24 7 24 Z " fill="#231915" transform="translate(1805,849)"/>
<path d="M0 0 C5.28 0 10.56 0 16 0 C16.49290527 1.45365967 16.98581055 2.90731934 17.49365234 4.4050293 C19.36975013 9.93727405 21.24676559 15.4692071 23.12408447 21.0010376 C23.95546425 23.45112334 24.78664227 25.90127755 25.61761475 28.35150146 C31.47241492 45.62752764 31.47241492 45.62752764 37.421875 62.87109375 C37.66253693 63.56287216 37.90319885 64.25465057 38.15115356 64.96739197 C39.21328364 68.01793815 40.28093236 71.06637572 41.35693359 74.11206055 C41.71609863 75.13984619 42.07526367 76.16763184 42.4453125 77.2265625 C42.74969238 78.08846191 43.05407227 78.95036133 43.36767578 79.83837891 C44 82 44 82 44 85 C38.72 85 33.44 85 28 85 C27.175 82.6075 26.35 80.215 25.5 77.75 C25.23896484 77.00331055 24.97792969 76.25662109 24.70898438 75.48730469 C23.56093471 72.09964702 23 69.61680617 23 66 C13.43 66 3.86 66 -6 66 C-6.66 68.97 -7.32 71.94 -8 75 C-8.65410414 76.8739845 -9.35245923 78.73415351 -10.125 80.5625 C-10.74375 82.026875 -11.3625 83.49125 -12 85 C-16.95 85 -21.9 85 -27 85 C-25.30933558 76.04762635 -22.29112474 67.5457751 -19.375 58.9375 C-18.83147385 57.32144908 -18.28842773 55.70523664 -17.74584961 54.08886719 C-16.66696361 50.87667853 -15.58586948 47.66524936 -14.50244141 44.45458984 C-12.51229877 38.55645646 -10.53403383 32.65437872 -8.5625 26.75 C-8.24651855 25.80439209 -7.93053711 24.85878418 -7.60498047 23.88452148 C-4.96460374 15.95421841 -2.45804755 7.98865453 0 0 Z M7 24 C5.66212755 28.29026517 4.33047065 32.58243422 3 36.875 C2.42765625 38.70998047 2.42765625 38.70998047 1.84375 40.58203125 C1.4828125 41.74863281 1.121875 42.91523437 0.75 44.1171875 C0.24726562 45.73536377 0.24726562 45.73536377 -0.265625 47.38623047 C-1.09016345 49.86841146 -1.09016345 49.86841146 -1 52 C5.27 52 11.54 52 18 52 C16.87969673 48.081934 15.75397372 44.16556758 14.625 40.25 C14.14933594 38.58324219 14.14933594 38.58324219 13.6640625 36.8828125 C13.2 35.27792969 13.2 35.27792969 12.7265625 33.640625 C12.44377441 32.65610352 12.16098633 31.67158203 11.86962891 30.65722656 C11.09339617 28.28538009 10.1858669 26.18999175 9 24 C8.34 24 7.68 24 7 24 Z " fill="#231915" transform="translate(1660,849)"/>
<path d="M0 0 C5.28 0 10.56 0 16 0 C16.49290527 1.45365967 16.98581055 2.90731934 17.49365234 4.4050293 C19.36975013 9.93727405 21.24676559 15.4692071 23.12408447 21.0010376 C23.95546425 23.45112334 24.78664227 25.90127755 25.61761475 28.35150146 C31.47241492 45.62752764 31.47241492 45.62752764 37.421875 62.87109375 C37.66253693 63.56287216 37.90319885 64.25465057 38.15115356 64.96739197 C39.21328364 68.01793815 40.28093236 71.06637572 41.35693359 74.11206055 C41.71609863 75.13984619 42.07526367 76.16763184 42.4453125 77.2265625 C42.74969238 78.08846191 43.05407227 78.95036133 43.36767578 79.83837891 C44 82 44 82 44 85 C38.72 85 33.44 85 28 85 C27.175 82.6075 26.35 80.215 25.5 77.75 C25.23896484 77.00331055 24.97792969 76.25662109 24.70898438 75.48730469 C23.56093471 72.09964702 23 69.61680617 23 66 C13.43 66 3.86 66 -6 66 C-6.66 68.97 -7.32 71.94 -8 75 C-8.65410414 76.8739845 -9.35245923 78.73415351 -10.125 80.5625 C-10.74375 82.026875 -11.3625 83.49125 -12 85 C-16.95 85 -21.9 85 -27 85 C-25.30933558 76.04762635 -22.29112474 67.5457751 -19.375 58.9375 C-18.83147385 57.32144908 -18.28842773 55.70523664 -17.74584961 54.08886719 C-16.66696361 50.87667853 -15.58586948 47.66524936 -14.50244141 44.45458984 C-12.51229877 38.55645646 -10.53403383 32.65437872 -8.5625 26.75 C-8.24651855 25.80439209 -7.93053711 24.85878418 -7.60498047 23.88452148 C-4.96460374 15.95421841 -2.45804755 7.98865453 0 0 Z M7 24 C5.66212755 28.29026517 4.33047065 32.58243422 3 36.875 C2.42765625 38.70998047 2.42765625 38.70998047 1.84375 40.58203125 C1.4828125 41.74863281 1.121875 42.91523437 0.75 44.1171875 C0.24726562 45.73536377 0.24726562 45.73536377 -0.265625 47.38623047 C-1.09016345 49.86841146 -1.09016345 49.86841146 -1 52 C5.27 52 11.54 52 18 52 C16.87969673 48.081934 15.75397372 44.16556758 14.625 40.25 C14.14933594 38.58324219 14.14933594 38.58324219 13.6640625 36.8828125 C13.2 35.27792969 13.2 35.27792969 12.7265625 33.640625 C12.44377441 32.65610352 12.16098633 31.67158203 11.86962891 30.65722656 C11.09339617 28.28538009 10.1858669 26.18999175 9 24 C8.34 24 7.68 24 7 24 Z " fill="#231915" transform="translate(1491,849)"/>
<path d="M0 0 C5.28 0 10.56 0 16 0 C16.49290527 1.45365967 16.98581055 2.90731934 17.49365234 4.4050293 C19.36975013 9.93727405 21.24676559 15.4692071 23.12408447 21.0010376 C23.95546425 23.45112334 24.78664227 25.90127755 25.61761475 28.35150146 C31.47241492 45.62752764 31.47241492 45.62752764 37.421875 62.87109375 C37.66253693 63.56287216 37.90319885 64.25465057 38.15115356 64.96739197 C39.21328364 68.01793815 40.28093236 71.06637572 41.35693359 74.11206055 C41.71609863 75.13984619 42.07526367 76.16763184 42.4453125 77.2265625 C42.74969238 78.08846191 43.05407227 78.95036133 43.36767578 79.83837891 C44 82 44 82 44 85 C38.72 85 33.44 85 28 85 C27.175 82.6075 26.35 80.215 25.5 77.75 C25.23896484 77.00331055 24.97792969 76.25662109 24.70898438 75.48730469 C23.56093471 72.09964702 23 69.61680617 23 66 C13.43 66 3.86 66 -6 66 C-6.66 68.97 -7.32 71.94 -8 75 C-8.65410414 76.8739845 -9.35245923 78.73415351 -10.125 80.5625 C-10.74375 82.026875 -11.3625 83.49125 -12 85 C-16.95 85 -21.9 85 -27 85 C-25.30933558 76.04762635 -22.29112474 67.5457751 -19.375 58.9375 C-18.83147385 57.32144908 -18.28842773 55.70523664 -17.74584961 54.08886719 C-16.66696361 50.87667853 -15.58586948 47.66524936 -14.50244141 44.45458984 C-12.51229877 38.55645646 -10.53403383 32.65437872 -8.5625 26.75 C-8.24651855 25.80439209 -7.93053711 24.85878418 -7.60498047 23.88452148 C-4.96460374 15.95421841 -2.45804755 7.98865453 0 0 Z M7 24 C5.66212755 28.29026517 4.33047065 32.58243422 3 36.875 C2.42765625 38.70998047 2.42765625 38.70998047 1.84375 40.58203125 C1.4828125 41.74863281 1.121875 42.91523437 0.75 44.1171875 C0.24726562 45.73536377 0.24726562 45.73536377 -0.265625 47.38623047 C-1.09016345 49.86841146 -1.09016345 49.86841146 -1 52 C5.27 52 11.54 52 18 52 C16.87969673 48.081934 15.75397372 44.16556758 14.625 40.25 C14.14933594 38.58324219 14.14933594 38.58324219 13.6640625 36.8828125 C13.2 35.27792969 13.2 35.27792969 12.7265625 33.640625 C12.44377441 32.65610352 12.16098633 31.67158203 11.86962891 30.65722656 C11.09339617 28.28538009 10.1858669 26.18999175 9 24 C8.34 24 7.68 24 7 24 Z " fill="#231915" transform="translate(1124,849)"/>
<path d="M0 0 C4.62 0 9.24 0 14 0 C14.02505615 1.24386475 14.0501123 2.48772949 14.07592773 3.76928711 C14.17144891 8.46792638 14.27129112 13.16646631 14.37231445 17.86499023 C14.41512525 19.88286993 14.456827 21.90077352 14.49731445 23.91870117 C14.35091784 45.6005985 14.35091784 45.6005985 17 67 C18.83333333 68.33333333 18.83333333 68.33333333 21 69 C22.485 69.99 22.485 69.99 24 71 C28.75222506 71.30659516 32.8264347 71.55051213 37 69 C42.5340184 63.24107375 41.60476666 56.193962 41.609375 48.6328125 C41.62436864 47.22889305 41.64109827 45.82499117 41.65948486 44.42111206 C41.70303882 40.74193478 41.72313051 37.06299539 41.73822021 33.38360596 C41.75783483 29.62278242 41.79979976 25.86221418 41.83984375 22.1015625 C41.91501633 14.73441155 41.96331764 7.36746157 42 0 C46.95 0 51.9 0 57 0 C57.0681756 7.74614688 57.12304422 15.49212539 57.15543652 23.23849106 C57.17099475 26.83668039 57.19204913 30.43465121 57.22631836 34.03271484 C57.25926816 37.5146215 57.2769267 40.99631996 57.28463173 44.47837067 C57.29275243 46.43232601 57.31611272 48.38619931 57.33988953 50.34002686 C57.3417478 60.34811418 56.75403917 71.05407157 50 79 C43.6883508 84.97047897 37.45060813 86.5024143 29.0625 86.375 C28.30259766 86.38660156 27.54269531 86.39820313 26.75976562 86.41015625 C20.07712838 86.37591558 14.6461606 85.0598393 9.3203125 80.9140625 C8.59585937 80.15867187 7.87140625 79.40328125 7.125 78.625 C6.38507813 77.87476563 5.64515625 77.12453125 4.8828125 76.3515625 C0.2360523 70.54793254 -0.12800161 63.74480126 -0.11352539 56.53564453 C-0.11344986 55.27479034 -0.11337433 54.01393616 -0.11329651 52.71487427 C-0.10819109 51.3541866 -0.10297511 49.99349935 -0.09765625 48.6328125 C-0.09578912 47.22891287 -0.09436661 45.82501258 -0.09336853 44.42111206 C-0.08956658 40.74192478 -0.07975633 37.06277752 -0.06866455 33.38360596 C-0.05840031 29.62293031 -0.0538602 25.86224814 -0.04882812 22.1015625 C-0.03813179 14.73435472 -0.02055401 7.36718809 0 0 Z " fill="#231915" transform="translate(1248,849)"/>
<path d="M0 0 C4.62 0 9.24 0 14 0 C14.02505615 1.24386475 14.0501123 2.48772949 14.07592773 3.76928711 C14.17144891 8.46792638 14.27129112 13.16646631 14.37231445 17.86499023 C14.41512525 19.88286993 14.456827 21.90077352 14.49731445 23.91870117 C14.35091784 45.6005985 14.35091784 45.6005985 17 67 C18.83333333 68.33333333 18.83333333 68.33333333 21 69 C22.485 69.99 22.485 69.99 24 71 C28.75222506 71.30659516 32.8264347 71.55051213 37 69 C42.5340184 63.24107375 41.60476666 56.193962 41.609375 48.6328125 C41.62436864 47.22889305 41.64109827 45.82499117 41.65948486 44.42111206 C41.70303882 40.74193478 41.72313051 37.06299539 41.73822021 33.38360596 C41.75783483 29.62278242 41.79979976 25.86221418 41.83984375 22.1015625 C41.91501633 14.73441155 41.96331764 7.36746157 42 0 C46.95 0 51.9 0 57 0 C57.0681756 7.74614688 57.12304422 15.49212539 57.15543652 23.23849106 C57.17099475 26.83668039 57.19204913 30.43465121 57.22631836 34.03271484 C57.25926816 37.5146215 57.2769267 40.99631996 57.28463173 44.47837067 C57.29275243 46.43232601 57.31611272 48.38619931 57.33988953 50.34002686 C57.3417478 60.34811418 56.75403917 71.05407157 50 79 C43.6883508 84.97047897 37.45060813 86.5024143 29.0625 86.375 C28.30259766 86.38660156 27.54269531 86.39820313 26.75976562 86.41015625 C20.07712838 86.37591558 14.6461606 85.0598393 9.3203125 80.9140625 C8.59585938 80.15867187 7.87140625 79.40328125 7.125 78.625 C6.38507812 77.87476563 5.64515625 77.12453125 4.8828125 76.3515625 C0.2360523 70.54793254 -0.12800161 63.74480126 -0.11352539 56.53564453 C-0.11344986 55.27479034 -0.11337433 54.01393616 -0.11329651 52.71487427 C-0.10819109 51.3541866 -0.10297511 49.99349935 -0.09765625 48.6328125 C-0.09578912 47.22891287 -0.09436661 45.82501258 -0.09336853 44.42111206 C-0.08956658 40.74192478 -0.07975633 37.06277752 -0.06866455 33.38360596 C-0.05840031 29.62293031 -0.0538602 25.86224814 -0.04882812 22.1015625 C-0.03813179 14.73435472 -0.02055401 7.36718809 0 0 Z " fill="#231915" transform="translate(934,849)"/>
<path d="M0 0 C4.62 0 9.24 0 14 0 C14.02505615 1.24386475 14.0501123 2.48772949 14.07592773 3.76928711 C14.17144891 8.46792638 14.27129112 13.16646631 14.37231445 17.86499023 C14.41512525 19.88286993 14.456827 21.90077352 14.49731445 23.91870117 C14.35091784 45.6005985 14.35091784 45.6005985 17 67 C18.83333333 68.33333333 18.83333333 68.33333333 21 69 C22.485 69.99 22.485 69.99 24 71 C28.75222506 71.30659516 32.8264347 71.55051213 37 69 C42.5340184 63.24107375 41.60476666 56.193962 41.609375 48.6328125 C41.62436864 47.22889305 41.64109827 45.82499117 41.65948486 44.42111206 C41.70303882 40.74193478 41.72313051 37.06299539 41.73822021 33.38360596 C41.75783483 29.62278242 41.79979976 25.86221418 41.83984375 22.1015625 C41.91501633 14.73441155 41.96331764 7.36746157 42 0 C46.95 0 51.9 0 57 0 C57.0681756 7.74614688 57.12304422 15.49212539 57.15543652 23.23849106 C57.17099475 26.83668039 57.19204913 30.43465121 57.22631836 34.03271484 C57.25926816 37.5146215 57.2769267 40.99631996 57.28463173 44.47837067 C57.29275243 46.43232601 57.31611272 48.38619931 57.33988953 50.34002686 C57.3417478 60.34811418 56.75403917 71.05407157 50 79 C43.6883508 84.97047897 37.45060813 86.5024143 29.0625 86.375 C28.30259766 86.38660156 27.54269531 86.39820313 26.75976562 86.41015625 C20.07712838 86.37591558 14.6461606 85.0598393 9.3203125 80.9140625 C8.59585938 80.15867187 7.87140625 79.40328125 7.125 78.625 C6.38507812 77.87476563 5.64515625 77.12453125 4.8828125 76.3515625 C0.2360523 70.54793254 -0.12800161 63.74480126 -0.11352539 56.53564453 C-0.11344986 55.27479034 -0.11337433 54.01393616 -0.11329651 52.71487427 C-0.10819109 51.3541866 -0.10297511 49.99349935 -0.09765625 48.6328125 C-0.09578912 47.22891287 -0.09436661 45.82501258 -0.09336853 44.42111206 C-0.08956658 40.74192478 -0.07975633 37.06277752 -0.06866455 33.38360596 C-0.05840031 29.62293031 -0.0538602 25.86224814 -0.04882812 22.1015625 C-0.03813179 14.73435472 -0.02055401 7.36718809 0 0 Z " fill="#231915" transform="translate(806,849)"/>
<path d="M0 0 C42.61904762 0 42.61904762 0 49.875 6.625 C55.09601426 14.91719912 56.36852501 24.12762439 54.4609375 33.70703125 C52.38789015 41.30440809 49.25111999 46.475918 42.78125 51.01953125 C39.14789481 53.01947018 35.66774072 53.12037634 31.578125 53.09765625 C30.65418945 53.09515869 29.73025391 53.09266113 28.77832031 53.09008789 C27.61397461 53.08098389 26.44962891 53.07187988 25.25 53.0625 C21.5375 53.041875 17.825 53.02125 14 53 C14 63.56 14 74.12 14 85 C9.38 85 4.76 85 0 85 C0 56.95 0 28.9 0 0 Z M14 14 C14 22.25 14 30.5 14 39 C24.77470961 39.62706631 24.77470961 39.62706631 35 37 C38.55545992 33.44454008 39.32917032 30.31540266 39.625 25.4375 C39.52118298 22.50267273 39.44642188 20.65811225 37.7890625 18.21484375 C32.68737332 13.7735255 27.68039469 13.85909748 21.25 13.9375 C18.8575 13.958125 16.465 13.97875 14 14 Z " fill="#231915" transform="translate(588,849)"/>
<path d="M0 0 C18.48 0 36.96 0 56 0 C56 4.62 56 9.24 56 14 C49.07 14 42.14 14 35 14 C35 37.43 35 60.86 35 85 C30.38 85 25.76 85 21 85 C21 61.57 21 38.14 21 14 C14.07 14 7.14 14 0 14 C0 9.38 0 4.76 0 0 Z " fill="#231915" transform="translate(740,849)"/>
<path d="M0 0 C18.48 0 36.96 0 56 0 C56 4.62 56 9.24 56 14 C49.07 14 42.14 14 35 14 C35 37.43 35 60.86 35 85 C30.38 85 25.76 85 21 85 C21 61.57 21 38.14 21 14 C14.07 14 7.14 14 0 14 C0 9.38 0 4.76 0 0 Z " fill="#231915" transform="translate(650,849)"/>
<path d="M0 0 C4.62 0 9.24 0 14 0 C14.09092615 8.12005472 14.16407214 16.23970341 14.20724869 24.36013317 C14.22798734 28.13212927 14.25604797 31.90375442 14.30175781 35.67553711 C14.34571327 39.32604345 14.3692398 42.97619653 14.37950897 46.6269474 C14.38681247 48.00901146 14.40107 49.39105958 14.42292023 50.7729702 C14.59302089 61.99297855 13.88726162 73.34601612 6 82 C-0.89830114 86.10962621 -8.10173974 86.79646322 -16 86 C-21.31412378 84.37574954 -25.06452693 81.7837339 -28 77 C-31.22769093 70.87996265 -31.6251122 64.84017006 -31 58 C-29.19292419 56.19292419 -26.44616525 56.57692402 -24 56.375 C-22.906875 56.27960937 -21.81375 56.18421875 -20.6875 56.0859375 C-19.800625 56.05757812 -18.91375 56.02921875 -18 56 C-16.47930961 57.52069039 -16.55446492 59.21702744 -16.1875 61.3125 C-15.31625516 65.31259493 -14.53855694 67.64096204 -11 70 C-7.85518209 70.80315654 -7.85518209 70.80315654 -5 71 C-5 70.34 -5 69.68 -5 69 C-4.34 69 -3.68 69 -3 69 C-0.43067071 54.78415166 -0.55576551 40.46442751 -0.375 26.0625 C-0.33674321 23.52928458 -0.29768725 20.99608109 -0.2578125 18.46289062 C-0.1626592 12.30869269 -0.07832743 6.15443415 0 0 Z " fill="#231915" transform="translate(904,849)"/>
<path d="M0 0 C4.62 0 9.24 0 14 0 C14 28.05 14 56.1 14 85 C9.38 85 4.76 85 0 85 C0 56.95 0 28.9 0 0 Z " fill="#231915" transform="translate(1930,849)"/>
</svg>
