<?xml version="1.0" encoding="UTF-8"?>
<svg id="Layer_2" data-name="Layer 2" xmlns="http://www.w3.org/2000/svg" viewBox="0 0 624.79 380.3">
  <defs>
    <style>
      .cls-1 {
        fill: #f68712;
      }

      .cls-1, .cls-2, .cls-3, .cls-4, .cls-5, .cls-6, .cls-7, .cls-8, .cls-9 {
        stroke-width: 0px;
      }

      .cls-2 {
        fill: #020202;
      }

      .cls-3 {
        fill: #040404;
      }

      .cls-4 {
        fill: #030303;
      }

      .cls-5 {
        fill: #00adef;
      }

      .cls-6 {
        fill: #050404;
      }

      .cls-7 {
        fill: #0c0909;
      }

      .cls-8 {
        fill: #030202;
      }

      .cls-9 {
        fill: #040303;
      }
    </style>
  </defs>
  <g id="Layer_1-2" data-name="Layer 1">
    <g>
      <path class="cls-1" d="M446.92,136.76c-1.94,0-3.88.05-5.82,0-4.89-.15-4.92-.17-5.39-4.86-.55-5.35-1.49-10.63-2.75-15.85-11.03-45.69-47.24-81.34-93.06-92.12-61.78-14.53-125.94,20.22-146.85,82.47-2.86,8.51-4.7,17.27-5.57,26.2-.36,3.69-.55,3.58-4.06,3.53-4.48-.07-8.96-.08-13.43-.24-3.36-.12-3.45-.22-3.17-3.71.76-9.55,2.45-18.97,5.37-28.08,15.04-47.02,45.68-79.27,92.14-96.07,19.32-6.99,39.38-9.35,59.91-7.33,46.43,4.57,82.65,26.4,108.78,64.83,13.86,20.38,21.56,43.12,23.41,67.77.26,3.39.27,3.42-3.23,3.5-2.09.05-4.18,0-6.27,0v-.04Z"/>
      <path class="cls-5" d="M181.01,209.5c6.63,1.62,12.41,3.04,18.31,3.83,17.82,2.37,35.1.04,51.98-5.9,16.73-5.89,31.99-14.61,46.76-24.27,5.62-3.68,11.1-7.57,16.84-11.05,11.67-7.07,24.14-11.73,38.02-11.6,8.96.08,17.33,2.68,25.47,6.23,9.32,4.06,18.23,8.9,27.13,13.77,12.57,6.87,25.13,13.79,38.85,18.19,2.03.65,2.15,1.52,1.42,3.25-2.17,5.09-4.57,10.05-7.32,14.85-1.57,2.72-1.66,2.8-4.36,1.37-7.64-4.06-15.24-8.2-22.84-12.34-8.91-4.86-17.9-9.53-27.35-13.29-14.46-5.76-28.57-4.87-42.54,1.59-7.76,3.59-14.89,8.22-21.75,13.27-15.93,11.73-32.74,21.87-51.41,28.71-19.27,7.06-39.02,9.57-59.43,6.77-4.35-.6-7.69-2.18-10.44-5.84-6.39-8.48-12.38-17.17-17.35-27.52Z"/>
      <path class="cls-5" d="M204.89,191.64c-8.43-.11-19.19-1.58-29.83-4.11-2.18-.52-3.28-1.4-3.84-3.6-1.88-7.39-3.32-14.85-4.22-22.41-.45-3.84-.2-4.14,3.75-3.57,12.46,1.77,24.98,2.06,37.52,1.54,21.97-.91,43.13-5.48,63.44-14.03,8.79-3.7,17.7-7.15,27-9.48,10.4-2.6,20.94-2.93,31.56-2.06,22.57,1.84,44.29,7.97,66.17,13.23,18.59,4.46,37.24,8.39,56.4,9.43,3.59.19,3.61.29,3.4,3.9-.37,6.43-1.73,12.71-3.09,18.97-.66,3.01-.78,3-3.84,2.53-11.57-1.78-22.58-5.5-33.48-9.62-14.5-5.49-28.64-11.91-43.39-16.78-24.34-8.04-47.88-6.32-70.71,5.33-15.02,7.66-30.01,15.38-45.84,21.29-15.64,5.84-31.7,9.49-50.99,9.46Z"/>
      <path class="cls-1" d="M416.41,135.38c-6.78-.02-12.98-1.43-19.18-1.41-6.14.02-7.58-3.08-9-8.23-8.3-29.99-27.71-49.45-57.78-57.15-42.55-10.89-85.54,15.67-95.84,58.42-1.35,5.61-1.34,5.67-7.09,6.33-5.63.65-11.27,1.22-16.91,1.73-3.71.33-3.87.12-3.36-3.53,2.38-17,8.32-32.66,18.36-46.6,17.21-23.91,40.36-38.75,69.46-43.39,55.79-8.9,105.33,27.14,118.37,77.1,1.4,5.35,2.37,10.75,2.97,16.75Z"/>
      <path class="cls-5" d="M226.49,263.04c5.16-.77,10.21-.61,15.24-1.09,23.46-2.26,45.02-10.14,65.25-21.91,7.35-4.28,14.36-9.12,21.68-13.47,8.64-5.13,17.72-9.19,27.79-10.77,8.29-1.3,16.35-.51,24.32,1.9,9.31,2.82,36.14,14.93,43.12,19.53.1,1.37-1.01,2.1-1.75,2.95-6.16,7.14-12.94,13.63-20.26,19.59-1.99,1.62-3.65,1.87-6.01.77-7.31-3.39-14.87-6.17-22.42-9-17.44-6.53-34.49-5.44-51.41,1.83-6.6,2.84-12.95,6.12-19.21,9.6-13.13,7.29-27,12.62-41.6,16.16-3.34.81-6.31.66-9.49-.86-8.89-4.25-17.45-9-25.25-15.23Z"/>
      <path class="cls-5" d="M371.49,278.26c-30.98,13.67-62.93,16.39-95.81,8.37-.14-.68.01-1.12.42-1.29,11.33-4.54,22.18-10.24,33.9-13.87,16.85-5.21,33.46-4.91,49.97,1.29,3.89,1.46,7.77,2.93,11.66,4.39-.04.37-.09.73-.13,1.1Z"/>
      <path class="cls-2" d="M588.32,379.18c-4.38.64-8.23.65-13.27-.15,4.5-2.07,3.78-5.11,3.46-8.11-.36-3.38-.57-6.78-.85-10.15-1.52-.32-1.38.91-1.66,1.6-1.55,3.87-3.05,7.77-4.57,11.65-.33.83-.62,1.68-1,2.49-.37.8-.74,1.69-1.85,1.68-1.11-.01-1.52-.89-1.86-1.7-1.71-4.13-3.31-8.31-5.08-12.41-.55-1.29-.66-2.9-2.3-3.94-.37,4.18-.64,8.15-1.11,12.09-.32,2.71-.08,5.01,3.48,6.22-3.4,1.69-6.15,1.34-9.84.46,4.39-2.22,4-5.88,4.35-9.22.4-3.86.55-7.75,1.06-11.59.35-2.61.07-4.7-2.97-5.63,4.82-2.75,8.51-1.63,10.34,2.83,1.86,4.52,3.71,9.04,5.71,13.92,2.37-4.46,3.77-8.87,5.46-13.14,2.3-5.8,1.91-4.76,7.43-4.87.74-.01,1.49.03,2.22.13.22.03.4.33.59.51-2.76,3.1-2.71,3.1-2.24,8.06.39,4.16.59,8.33.97,12.49.36,3.92.42,3.92,3.54,6.76Z"/>
      <path class="cls-4" d="M222.78,379.32c-4.25.35-8.07.63-12.09-.54,2.77-1.43,3.24-3.56,3.11-6.28-.22-4.61-.03-9.24-.07-13.85-.03-2.55.96-5.57-3.36-6.65,4.49-.98,8.36-.81,12.15-.65.48,1.13-.03,1.58-.82,1.83-1.36.42-1.79,1.37-1.78,2.71.04,3.09.01,6.18.01,10.09,4.39-3.43,7.62-7,11-10.39.73-.73.53-1.67-.46-2.23-.6-.34-1.48-.34-1.51-1.74,3.22-.74,6.45-.47,10.16-.15-1.08,2.25-3.25,2.53-4.47,3.88-1.49,1.65-3.2,3.12-4.86,4.61-1,.9-1.42,1.67-.53,3.01,2.71,4.09,5.35,8.24,7.86,12.47.79,1.34,2.47,1.6,3.45,3.59-4.06,1.06-7.87.51-11.49.37-1.39-1.97,1.98-1.79,1.09-3.34-.59-1.03-1.22-2.05-1.85-3.05-1.43-2.25-2.89-4.49-4.33-6.73-5.18,3.25-5.69,7.71-1.19,13.05Z"/>
      <path class="cls-4" d="M144.62,361.12c0,4.42.09,8.99-.04,13.54-.07,2.39,2.39,2.34,3.5,4.04-3.07,1.48-5.94,1-10.13.15,5.43-1.77,4.38-5.42,4.44-8.65.03-1.49.02-2.99,0-4.48-.06-4.82,1.05-9.89-3.59-13.7,6.25-1.6,6.53-1.5,9.85,2.86,3.97,5.22,7.95,10.44,11.92,15.67,1.51-.58.82-1.8.85-2.69.1-2.68-.01-5.37.05-8.06.07-3.06.56-6.25-3.68-7.65,3.76-1.2,4.81-1.23,8.96-.45.31.96-.31,1.31-1.04,1.59-1.49.56-1.85,1.71-1.84,3.19.05,5.52.07,11.04,0,16.57-.02,1.79.81,3.11,1.75,4.47.47.67.5,1.37-.41,1.81-2.04.98-5.65,0-7-1.81-3.93-5.26-7.89-10.49-11.85-15.73-.34-.45-.61-1.06-1.75-.69Z"/>
      <path class="cls-9" d="M199.75,359c-2.17-.44-2.37-1.99-3.07-3.05-.98-1.48-2.29-2.27-3.99-2.58-5.37-.95-6.12-.33-6.12,5.15,0,.75-.12,1.52.03,2.23.26,1.3-.99,3.38,1.21,3.71,1.91.29,4.29.89,5.37-1.82.21-.53.43-1.12,1.41-1.34,1.33,2.32,2.04,4.85,1.94,8.29-2.55-2.15-4.81-3.56-7.83-3.13-1.41.2-2.24.44-2.14,2.05.07,1.19-.14,2.41.04,3.57.32,1.98-1.31,5.02,2.06,5.53,4.36.66,6.94.29,8.72-2.75.77-1.3.96-3.18,3.13-3.83.67,3.27-.7,5.91-1.67,8.59-.21.58-.97.69-1.56.61-6.23-.88-12.51-.07-18.75-.49-.25-.02-.48-.26-1.16-.65,4.01-2.13,2.91-5.78,2.94-9.1.03-3.58.01-7.16,0-10.74,0-2.7.67-5.65-2.85-6.8.86-1.54,2-1.08,2.96-1.15,5.33-.36,10.72.68,16.01-.62.83-.2,1.55.16,1.81.92.8,2.33,2.06,4.59,1.51,7.41Z"/>
      <path class="cls-9" d="M319.14,349.92c1.88,3.11,2.37,5.89,2.94,8.62.06.31-.3.81-.6,1.07-.42.38-.89.04-1.14-.28-.71-.95-1.31-1.98-2.02-2.93-1.59-2.11-3.59-3.55-6.33-3.74-2.62-.18-4.28.78-4.95,2.88-.69,2.17.14,3.87,1.92,5,1.49.95,3.16,1.65,4.79,2.35,1.78.77,3.57,1.48,5.16,2.62,2.57,1.84,3.46,4.38,3.11,7.42-.36,3.13-2.15,5.12-5.04,6.23-2.46.95-4.98,1.19-7.41.19-1.94-.8-3.63-.72-5.28.69-1.64-2.44-1.42-5.09-2.1-7.48-.09-.32.19-.92.48-1.15.56-.43,1.13-.12,1.51.4.7.96,1.28,2.01,2.03,2.93,1.69,2.08,3.89,3.3,6.6,3.12,1.68-.11,3.18-.76,3.79-2.62.64-1.97.1-3.61-1.56-4.69-1.35-.88-2.9-1.48-4.39-2.15-1.63-.73-3.36-1.24-4.92-2.1-3.35-1.84-4.8-4.82-4.39-8.58.39-3.56,2.8-5.99,6.63-6.95,2.07-.52,4.12-.51,6.15.26,1.81.69,3.66,1.7,5.01-1.12Z"/>
      <path class="cls-3" d="M457.64,352.37c-3.84,1.06-3.65,4-3.79,6.71-.22,4.17-.47,8.35-.45,12.53.03,4.42,2.42,6.56,6.77,6.45,4.28-.1,6.8-2.39,6.74-6.61-.08-5.07-.72-10.13-.71-15.2,0-2.72-2.69-2.4-3.79-4.24,3.26-1.45,6.32-.46,9.17-.63.5,1.38-.13,1.68-.65,1.82-1.94.51-2.52,1.72-2.36,3.66.33,4.01.47,8.05.76,12.07.53,7.45-2.36,10.88-9.8,11.34-1.77.11-3.59-.04-5.33-.37-4.85-.91-7.24-3.79-7.16-8.73.07-4.18.28-8.36.65-12.52.25-2.8.47-5.37-3.52-6.04,3.14-1.7,9.52-1.79,13.47-.25Z"/>
      <path class="cls-8" d="M52.86,378.84c-3.97.59-7.82.5-11.73.08-.05-2.17,2.71-1.53,2.69-3.34-.01-1.49.04-2.98.03-4.47,0-5.52,0-11.04-.03-16.56,0-.29-.11-.58-.17-.86-3.96-.84-4.33-.71-6.12,2.23-.46.76-.84,1.58-1.24,2.37-.37.72-.89,1.28-1.74.9-.63-.28-.57-.98-.46-1.55.24-1.32.51-2.63.81-3.94.76-3.36.75-3.12,4.37-2.87,5.34.37,10.73.69,16.04-.22,2.09-.36,3.13.02,3.45,2.11.04.29.25.58.23.86-.19,1.92,2.19,4.52-.03,5.5-1.71.76-2.01-2.39-2.93-3.78-1.38-2.07-3.17-2.53-5.87-1.98,0,7.16.13,14.44-.08,21.7-.06,2.23,2.56,1.8,2.78,3.82Z"/>
      <path class="cls-4" d="M500.28,378.81c-4.15.74-7.95.23-11.59.36-.4-.91-.38-1.63.27-1.77,2.24-.49,2.1-2.14,2.1-3.82-.02-5.82.03-11.63-.04-17.45-.01-1.03.71-2.58-.99-2.96-1.47-.32-3.07-.29-4.11,1.05-.81,1.05-1.39,2.28-2.08,3.42-.44.73-.66,1.73-2.29,1.59-.68-2.88.5-5.56,1.4-8.22.34-1.01,1.49-.6,2.37-.48,5.92.79,11.84.87,17.76-.06,1.38-.22,2.35-.03,2.68,1.5.43,2.04.91,4.06,1.28,6.11.06.33-.22.89-.51,1.08-.58.37-1.18.06-1.52-.47-.48-.75-.81-1.59-1.26-2.36-1.82-3.17-1.9-3.2-6.45-3.05,0,7.26.07,14.54-.04,21.82-.03,2.05,2.14,1.76,3.03,3.7Z"/>
      <path class="cls-6" d="M406.3,378.58c3.77-1.29,3.25-4.19,3.23-6.92-.03-4.33.05-8.66-.03-12.99-.04-2.51,1.1-5.57-3.38-6.56,4.57-1.19,8.39-1.01,13.55-.54-4.78,2.18-3.88,5.55-3.9,8.61-.03,4.18-.01,8.36,0,12.54q0,3.63,2.71,5.76c-2.68,1.46-7.92,1.58-12.18.09Z"/>
      <path class="cls-7" d="M76.66,376.5c-.1,1.87-1.65,3.42-3.46,3.43-1.99.01-3.6-1.75-3.5-3.83.1-2.12,1.82-3.6,3.9-3.36,1.84.21,3.16,1.83,3.06,3.75Z"/>
      <path class="cls-4" d="M397.66,378.86c-3.76,1.19-6.99.71-10.18.55-.6-.03-1.14-.59-.7-1.24,2.39-3.58-1.68-5.07-2.52-7.59-.77-2.33-3.31-1.19-5.06-1.64-1.5,5.67-1.13,7.17,2.24,9.49-2.6,1.56-8.54,1.67-12.34.04,2.98-1.13,3.37-3.31,3.25-6-.21-4.46-.05-8.95-.06-13.42q0-4.54-3.38-7.83c6.97.24,13.28-.91,19.43,1.32,2.91,1.06,5.28,2.89,6.04,6.09.78,3.31.2,6.37-2.88,8.25-1.78,1.09-1.73,2-.68,3.49,2.01,2.87,3.4,6.17,6.84,8.5ZM378.46,364.86c0,.97.24,1.69,1.2,2.12,3.4,1.51,7.98-.97,8.5-4.63.82-5.88-2.97-9.52-9.69-8.93,0,3.79.01,7.61,0,11.44Z"/>
      <path class="cls-4" d="M9.48,369.83c-.58,3.82-1.39,7.38,3.53,9.03-4.44.92-8.58.9-13.01.06,3.35-1.64,2.97-4.42,2.93-7.14-.07-4.47-.11-8.95.02-13.42.07-2.57.09-4.96-2.8-5.9.45-1.6,1.52-1.19,2.3-1.2,3.13-.05,6.26-.04,9.39.01,3.02.05,5.91.71,8.52,2.32,3.34,2.06,5.14,5.64,4.55,9.03-.67,3.82-3.12,5.89-6.73,6.94-2.81.82-5.62.37-8.7.27ZM9.15,364.33c.05,3.46,1.22,4.36,4.62,3.6,2.88-.64,4.62-2.55,5.03-5.49.64-4.68-2.28-8.53-6.94-9.19-1.73-.25-2.9.02-2.73,2.2.13,1.62.02,3.26.02,4.89,0,1.33-.02,2.67,0,4Z"/>
      <path class="cls-4" d="M604.7,379.09c-2.6.86-5.28.7-8.58-.04,4.53-4.21,4.69-9.9,6.71-14.81.96-2.33,1.51-4.82,2.35-7.2.66-1.87,1.45-3.68-1.16-5.3,4.3-.67,8.17-.6,12.75-.37-2.16,2.13-1.44,4.08-.72,6.13,1.63,4.62,3.13,9.29,4.68,13.94.88,2.62,1.14,5.56,4.06,7.35-3.89,1-7.45,1.04-11.18.39-.14-1.88,3.02-1.9,1.86-4.06-.7-1.29-1.03-2.78-1.54-4.17-.33-.89-1.12-.84-1.84-.84-2.08-.02-4.2.22-6.24-.06-2.65-.36-2.89,1.52-3.39,3.17-.49,1.66-1.38,3.54,1.29,4.34.53.16,1.07.49.96,1.54ZM604.5,367.88c2.85.4,5.46.26,8.28.07-.72-4.38-2.58-8.28-4.13-12.43-1.61,4.02-3.37,7.88-4.15,12.36Z"/>
      <path class="cls-9" d="M360.1,379c-4.28.86-7.84.86-11.34.16-.32-1.84,2.12-1.48,1.81-2.88-.38-1.73-.5-3.89-1.6-5.03-2.44-2.52-5.86-.67-8.83-1.13-1.53-.23-1.91.87-2.35,2.09-1.3,3.65-1.34,3.66,2.16,6.63-2.79,1.28-5.48.8-8.33.41,4.82-7.37,5.98-15.82,9.06-23.53.72-1.81-1.03-2.58-1.19-4.25,3.91-.58,7.7-.13,12.15-.29-1.89,2.49-1.23,4.57-.43,6.76,1.47,4.06,2.7,8.2,4.09,12.29,1.02,3.02,1.59,6.27,4.79,8.77ZM347.83,367.9c-.97-4.44-2.41-8.46-4.21-13-1.73,4.58-3.22,8.56-4.15,12.95,2.9.39,5.49.34,8.36.05Z"/>
      <path class="cls-9" d="M255.09,351.42h13.43c-2.33,2.17-1.27,4.21-.57,6.29,1.62,4.8,3.16,9.62,4.76,14.43.79,2.36,1.3,4.87,3.64,6.72-3.69.95-7.22.96-11.67.25,4.16-2.49,2.55-5.52,1.17-7.69-1.78-2.79-5.17-.87-7.82-1.27-1.28-.19-2.58-.24-3.31,1.45-1.52,3.51-1.35,4.52,2.04,7.14-2.92,1.39-5.64,1.1-9.1.14,3.27-1.95,3.8-4.92,4.71-7.68,1.44-4.39,2.82-8.79,4.3-13.17.74-2.18,2.07-4.31-1.58-6.61ZM260.35,354.84c-1.58,4.61-3.18,8.58-4.11,13.07,2.86.3,5.46.29,8.42-.05-1.11-4.4-2.37-8.53-4.31-13.02Z"/>
      <path class="cls-9" d="M543.71,378.8c-3.72.93-7.3,1.05-10.93.41-.35-1.96,3.17-1.67,1.83-3.98-.73-1.26-1-2.79-1.46-4.2-.3-.92-1.07-.9-1.8-.91-1.64-.03-3.28-.02-4.91-.01-3.65.02-5.18,1.57-5.46,5.14-.19,2.32,2.46,1.86,3.07,3.35-2.95,1.33-4.76,1.38-8.8.13,2.92-1.59,3.45-4.37,4.31-6.97,1.58-4.8,3.18-9.6,4.67-14.43.57-1.86,2.45-3.96-1.64-5.56,4.96-.62,8.84-.71,13.55-.28-2.79,2.12-1.53,4.18-.89,6.17,1.69,5.23,3.5,10.43,5.19,15.66.65,1.99,1.39,3.87,3.29,5.49ZM527.57,354.97c-.95,2.78-1.73,4.71-2.25,6.7-.54,2.06-1.79,3.97-1.58,6.34h8.37c-1.36-4.46-2.27-8.64-4.53-13.04Z"/>
      <path class="cls-9" d="M108.59,351.44h12.92c-1.81,1.94-1.28,3.78-.57,5.77,1.85,5.19,3.57,10.42,5.22,15.68.67,2.15,1.43,4.17,4.35,5.98-4.68,1.09-8.29.83-11.87.41-.18-2,2.28-1.59,1.96-3.03-.42-1.88-.94-3.79-1.78-5.51-.6-1.23-9.77-.91-10.56.2-2.01,2.83-1.51,5.32,1.79,7.83-2.95,1.35-5.71,1.02-9.17.12,3.22-2.15,3.89-5.2,4.83-8.1,1.38-4.25,2.75-8.5,4.15-12.74.72-2.17,1.87-4.32-1.26-6.62ZM109.47,367.95c2.85.15,5.45.33,8.31-.1-1.04-4.5-2.36-8.52-4.34-13.2-1.35,4.9-3.26,8.83-3.97,13.3Z"/>
    </g>
  </g>
</svg>