<svg width="54" height="56" viewBox="0 0 54 56" fill="none" xmlns="http://www.w3.org/2000/svg">
<g clip-path="url(#clip0_0_189)">
<g clip-path="url(#clip1_0_189)">
<rect x="1" y="1" width="52" height="54" rx="26" stroke="#B3BAC5" stroke-width="2"/>
</g>
<path d="M27.5312 34.7812L33.603 28.7062C33.8968 28.4156 33.8968 27.9406 33.603 27.6469L32.9093 26.9531C32.6124 26.6531 32.128 26.6593 31.8374 26.9656L28.2499 30.7312V21.75C28.2499 21.3344 27.9156 21 27.4999 21H26.4999C26.0843 21 25.7499 21.3344 25.7499 21.75V30.7312L22.1625 26.9656C21.8718 26.6625 21.3875 26.6562 21.0906 26.9531L20.3968 27.6469C20.1031 27.9375 20.1031 28.4125 20.3968 28.7062L26.4718 34.7812C26.7625 35.075 27.2374 35.075 27.5312 34.7812Z" fill="#5A7184"/>
</g>
<defs>
<clipPath id="clip0_0_189">
<rect width="54" height="56" fill="white"/>
</clipPath>
<clipPath id="clip1_0_189">
<rect width="54" height="56" fill="white"/>
</clipPath>
</defs>
</svg>
