<?xml version="1.0" encoding="UTF-8"?>
<svg version="1.1" xmlns="http://www.w3.org/2000/svg" width="1634" height="368">
<path d="M0 0 C14.19 0 28.38 0 43 0 C43 12.21 43 24.42 43 37 C52.57 37 62.14 37 72 37 C72 47.89 72 58.78 72 70 C62.43 70 52.86 70 43 70 C43.0856281 79.78840545 43.17944372 89.57663957 43.28752708 99.36482334 C43.33739456 103.9102583 43.38372524 108.4556711 43.421875 113.0012207 C43.45884869 117.39094039 43.50524099 121.78047021 43.55806351 126.17002678 C43.5765434 127.84165033 43.59167481 129.51331449 43.60334396 131.18499947 C43.6203166 133.53311579 43.64937693 135.88080333 43.68115234 138.22875977 C43.68331253 138.91424896 43.68547272 139.59973816 43.68769836 140.30599976 C43.77576185 145.42643251 44.24122539 150.70594617 47.4375 154.875 C51.31152763 157.66429989 55.64792195 157.11404106 60.1875 157.0625 C61.31188477 157.05573242 61.31188477 157.05573242 62.45898438 157.04882812 C64.30602383 157.03706354 66.15302213 157.01912865 68 157 C70.89723015 167.92711678 73.17743783 178.84371036 75 190 C68.02477359 191.87658376 61.22626232 193.58599539 54 194 C52.7934375 194.07927734 52.7934375 194.07927734 51.5625 194.16015625 C37.32453882 194.64746742 22.00641954 191.59478652 11.125 181.875 C-0.93994256 168.45312013 -0.29551938 151.3428493 -0.1953125 134.453125 C-0.19157473 132.58697665 -0.18873138 130.72082632 -0.18673706 128.85467529 C-0.17916067 123.98199895 -0.15956483 119.10944496 -0.1373291 114.23681641 C-0.11674036 109.24904026 -0.10770769 104.26124404 -0.09765625 99.2734375 C-0.07631232 89.51556305 -0.04118022 79.75781092 0 70 C-6.6 70 -13.2 70 -20 70 C-20.33 61.42 -20.66 52.84 -21 44 C-21.58789307 45.71356689 -22.17578613 47.42713379 -22.78149414 49.19262695 C-43.66863001 110.06305808 -43.66863001 110.06305808 -52.35986328 134.81689453 C-55.76359755 144.52277643 -59.11114698 154.24632113 -62.41353607 163.9871521 C-63.75283489 167.93371283 -65.09806053 171.87825907 -66.44301605 175.82289505 C-67.53806171 179.03681355 -68.62736489 182.25242849 -69.70904541 185.47088623 C-82.07945435 222.27052504 -82.07945435 222.27052504 -93 234 C-93.495 234.53625 -93.99 235.0725 -94.5 235.625 C-105.67386692 246.35191224 -120.38183204 249.39384217 -135.3125 249.3125 C-136.31563232 249.31048584 -137.31876465 249.30847168 -138.35229492 249.30639648 C-146.41709417 249.19761517 -154.65419101 248.67290449 -162 245 C-161.34393867 237.90828945 -159.07454482 231.32796313 -156.9375 224.5625 C-156.56044922 223.35400391 -156.18339844 222.14550781 -155.79492188 220.90039062 C-154.8680528 217.93206307 -153.93628172 214.96536931 -153 212 C-151.98164062 212.15984375 -150.96328125 212.3196875 -149.9140625 212.484375 C-146.36185427 212.95233057 -142.95443272 213.19874321 -139.375 213.25 C-137.74691406 213.28867187 -137.74691406 213.28867187 -136.0859375 213.328125 C-131.5224563 212.84289409 -128.97914462 211.03674136 -125.875 207.75 C-122.33045098 202.55132811 -120.57229259 198.69144854 -121.50726318 192.36074829 C-122.49948569 187.60691722 -124.13893412 183.06250436 -125.7265625 178.48046875 C-126.10590439 177.36624542 -126.48524628 176.25202209 -126.87608337 175.10403442 C-128.1181602 171.46255433 -129.37139988 167.82502754 -130.625 164.1875 C-131.2777725 162.28181361 -131.9293011 160.3757054 -132.58063602 158.46952724 C-138.42152346 141.37627081 -144.35431007 124.31507357 -150.33081055 107.26879883 C-155.62037865 92.16723909 -160.78953312 77.0253478 -165.9375 61.875 C-166.34316193 60.68274811 -166.74882385 59.49049622 -167.16677856 58.26211548 C-168.30961444 54.90191863 -169.4501915 51.54096527 -170.58984375 48.1796875 C-170.93590668 47.16217911 -171.2819696 46.14467072 -171.63851929 45.09632874 C-171.95108673 44.17234787 -172.26365417 43.248367 -172.58569336 42.29638672 C-172.86021835 41.48676483 -173.13474335 40.67714294 -173.41758728 39.84298706 C-174 38 -174 38 -174 37 C-158.82 37 -143.64 37 -128 37 C-126.09734375 43.83976562 -124.1946875 50.67953125 -122.234375 57.7265625 C-121.02218878 62.0833482 -119.8099738 66.44012585 -118.59765625 70.796875 C-116.67729279 77.69816465 -114.75703057 84.59948236 -112.83740234 91.50097656 C-111.28816927 97.07079113 -109.73845625 102.64047196 -108.18842316 108.21006393 C-107.59984822 110.32525339 -107.01144049 112.44048938 -106.42321014 114.55577469 C-103.31991622 125.71483548 -100.20689477 136.87019755 -97 148 C-92.76175756 133.66687504 -88.65563432 119.2984076 -84.609375 104.91015625 C-84.25446236 103.64853731 -84.25446236 103.64853731 -83.89237976 102.36143112 C-81.6727441 94.47027528 -79.45587303 86.57834407 -77.24121094 78.68579102 C-76.01599959 74.31986527 -74.78866886 69.95453974 -73.56006622 65.58956718 C-73.09839738 63.94770612 -72.63753658 62.30561759 -72.17754364 60.66328621 C-71.53668738 58.37530323 -70.8931353 56.08809365 -70.24902344 53.80102539 C-69.97312378 52.81208282 -69.97312378 52.81208282 -69.69165039 51.80316162 C-68.27814956 46.80007918 -66.64945612 41.94836835 -65 37 C-43.55 37 -22.1 37 0 37 C0 24.79 0 12.58 0 0 Z " fill="#0A0CC3" transform="translate(1317,75)"/>
<path d="M0 0 C3.74187741 0.74837548 5.84327504 1.23591341 9.05810547 2.86669922 C9.82516815 3.25193756 10.59223083 3.6371759 11.38253784 4.03408813 C12.20247223 4.45338593 13.02240662 4.87268372 13.8671875 5.3046875 C14.73054718 5.73985687 15.59390686 6.17502625 16.48342896 6.62338257 C18.32829437 7.55386681 20.17183475 8.48698205 22.01416016 9.42248535 C26.79237836 11.8484974 31.58014611 14.25552046 36.3671875 16.6640625 C37.3018988 17.13493286 38.23661011 17.60580322 39.199646 18.09094238 C46.87521591 21.95216328 54.59255446 25.71167489 62.37060547 29.36279297 C70.99856307 33.42311527 79.45754029 37.72877014 88 42 C88 85.23 88 128.46 88 173 C81.4 176.3 74.8 179.6 68 183 C61.17596672 186.57748984 61.17596672 186.57748984 54.36328125 190.17578125 C47.84748475 193.61782972 41.29773678 196.9942707 34.75 200.375 C25.03293802 205.39340422 15.3251991 210.42896314 5.63330078 215.49584961 C0.39144556 218.23488274 -4.85580853 220.9631864 -10.109375 223.6796875 C-11.01681961 224.14915047 -11.01681961 224.14915047 -11.94259644 224.62809753 C-14.88749 226.15156495 -17.83302863 227.67373978 -20.77978516 229.19360352 C-21.85019043 229.74717529 -22.9205957 230.30074707 -24.0234375 230.87109375 C-25.04663086 231.39687012 -26.06982422 231.92264648 -27.12402344 232.46435547 C-30.44426368 234.2372172 -33.63674552 236.18239839 -36.79150391 238.23461914 C-41.08323135 239.72196886 -44.98324993 238.41154555 -49.06347656 236.76000977 C-50.07893555 236.24237061 -51.09439453 235.72473145 -52.140625 235.19140625 C-53.28273438 234.61487305 -54.42484375 234.03833984 -55.6015625 233.44433594 C-56.81784575 232.81732379 -58.03398827 232.19003858 -59.25 231.5625 C-60.52305086 230.91492946 -61.79649291 230.26812739 -63.0703125 229.62207031 C-70.45092384 225.86862521 -77.78703893 222.03198984 -85.09204102 218.13354492 C-99.57142455 210.45883352 -114.32795634 203.29725738 -129 196 C-129 195.34 -129 194.68 -129 194 C-127.82300789 193.4131694 -127.82300789 193.4131694 -126.62223816 192.81448364 C-119.13659467 189.08178508 -111.65197787 185.34703694 -104.168437 181.61012459 C-100.32336246 179.69016904 -96.47792933 177.77093988 -92.6315918 175.85351562 C-71.5029838 165.34501455 -71.5029838 165.34501455 -50.56390381 154.46612549 C-42.02431812 149.92858345 -33.38130023 145.59761702 -24.73217773 141.2734375 C-21.87850253 139.84547807 -19.02811875 138.41107758 -16.17773438 136.9765625 C-14.35696541 136.06471554 -12.53600932 135.1532421 -10.71484375 134.2421875 C-9.44168556 133.60021927 -9.44168556 133.60021927 -8.14280701 132.94528198 C-7.36341263 132.55712311 -6.58401825 132.16896423 -5.78100586 131.76904297 C-4.7544413 131.25469193 -4.7544413 131.25469193 -3.70713806 130.72994995 C-2 130 -2 130 0 130 C0 87.1 0 44.2 0 0 Z " fill="#0A0CC3" transform="translate(206,124)"/>
<path d="M0 0 C4.17452105 1.8105346 8.20917101 3.84780073 12.25 5.9375 C13.41821289 6.53159668 14.58642578 7.12569336 15.79003906 7.73779297 C22.84678168 11.33791461 29.86058702 15.01628983 36.84985352 18.74536133 C52.07040004 26.80518999 67.58107329 34.32892745 83 42 C83 42.66 83 43.32 83 44 C81.78542366 44.60562271 81.78542366 44.60562271 80.54631042 45.22348022 C72.82521013 49.07391117 65.10513408 52.9263869 57.38613415 56.78102684 C53.41999093 58.76151569 49.45348863 60.74127743 45.48608398 62.71923828 C23.86836225 73.46665665 23.86836225 73.46665665 2.44476318 84.59344482 C-5.7734327 88.96281826 -14.08859891 93.13733834 -22.41333008 97.29931641 C-25.12214899 98.65484923 -27.82767156 100.01682606 -30.53320312 101.37890625 C-32.26282634 102.24518011 -33.99263654 103.11108075 -35.72265625 103.9765625 C-36.52768082 104.38266754 -37.33270538 104.78877258 -38.16212463 105.20718384 C-43.77109728 108 -43.77109728 108 -46 108 C-46 150.9 -46 193.8 -46 238 C-49.67722038 237.26455592 -51.73119176 236.82089683 -54.87451172 235.22509766 C-55.60155304 234.85987 -56.32859436 234.49464233 -57.07766724 234.11834717 C-57.85383392 233.72093323 -58.63000061 233.32351929 -59.4296875 232.9140625 C-60.24847382 232.50117981 -61.06726013 232.08829712 -61.91085815 231.66290283 C-63.66138405 230.77958814 -65.41058452 229.89364269 -67.15856934 229.00531006 C-71.70632227 226.69444337 -76.26368446 224.40267793 -80.8203125 222.109375 C-82.15908447 221.43471695 -82.15908447 221.43471695 -83.52490234 220.74642944 C-90.99939695 216.98531666 -98.51750481 213.32933354 -106.09326172 209.77587891 C-115.4878 205.35341331 -124.69950253 200.65024874 -134 196 C-134 152.77 -134 109.54 -134 65 C-127.4 61.7 -120.8 58.4 -114 55 C-107.17596672 51.42251016 -107.17596672 51.42251016 -100.36328125 47.82421875 C-93.84748475 44.38217028 -87.29773678 41.0057293 -80.75 37.625 C-71.03293802 32.60659578 -61.3251991 27.57103686 -51.63330078 22.50415039 C-46.39144556 19.76511726 -41.14419147 17.0368136 -35.890625 14.3203125 C-35.28566193 14.00733719 -34.68069885 13.69436188 -34.05740356 13.37190247 C-31.11251 11.84843505 -28.16697137 10.32626022 -25.22021484 8.80639648 C-24.14980957 8.25282471 -23.0794043 7.69925293 -21.9765625 7.12890625 C-20.95336914 6.60312988 -19.93017578 6.07735352 -18.87597656 5.53564453 C-16.23151677 4.12361973 -13.70282892 2.59375657 -11.1484375 1.02734375 C-6.9569251 -1.26587633 -4.68982483 -1.498963 0 0 Z " fill="#0A0CC3" transform="translate(167,5)"/>
<path d="M0 0 C7.05428237 5.46859353 10.97295258 12.08215395 14.125 20.3125 C14.599375 19.19875 15.07375 18.085 15.5625 16.9375 C21.39616535 5.39298331 31.05287095 -1.64601849 42.9375 -6.0625 C56.89121223 -9.99731459 72.77106356 -9.29588224 85.5625 -2.3671875 C96.70924432 4.52421186 104.34995022 14.10891623 107.4375 27 C108.80768342 35.13598133 109.26856727 43.09384558 109.23852539 51.34008789 C109.23867142 52.40454132 109.23881744 53.46899475 109.2389679 54.56570435 C109.23827576 58.05554297 109.23051631 61.54532704 109.22265625 65.03515625 C109.22078958 67.46609976 109.21936685 69.89704365 109.21836853 72.32798767 C109.21456294 78.70491588 109.20474946 85.08182107 109.19366455 91.45874023 C109.18340824 97.97444345 109.17886189 104.4901504 109.17382812 111.00585938 C109.16312535 123.77475129 109.1455445 136.54362012 109.125 149.3125 C94.935 149.3125 80.745 149.3125 66.125 149.3125 C66.07601562 142.27035156 66.02703125 135.22820312 65.9765625 127.97265625 C65.94116236 123.50193906 65.90519441 119.03124081 65.8671875 114.56054688 C65.80696219 107.46999878 65.74879929 100.37947707 65.703125 93.28881836 C65.6661551 87.56992649 65.61976349 81.85118046 65.56693649 76.13241386 C65.54845466 73.95445765 65.53332397 71.77647025 65.52165604 69.59846687 C65.50468707 66.53953353 65.47562664 63.48092968 65.44384766 60.42211914 C65.44168747 59.52875351 65.43952728 58.63538788 65.43730164 57.71495056 C65.32863806 49.48622149 64.58631492 41.80703667 59.125 35.3125 C52.92176465 29.97685001 47.98870214 29.0073607 39.87890625 29.09375 C34.0103782 29.55990258 29.28442157 32.15307843 25.125 36.3125 C21.92627641 41.53600486 20.02037902 46.47182442 19.96678162 52.62786865 C19.9569928 53.48319687 19.94720398 54.33852509 19.93711853 55.21977234 C19.93136307 56.14981583 19.9256076 57.07985931 19.91967773 58.03808594 C19.90977814 59.02378067 19.89987854 60.0094754 19.88967896 61.02503967 C19.85809786 64.2822937 19.83331983 67.53956231 19.80859375 70.796875 C19.7880213 73.05560688 19.76702475 75.31433493 19.74562073 77.57305908 C19.69043011 83.51764834 19.6410075 89.46227216 19.59277344 95.40692139 C19.54253648 101.47313514 19.48686186 107.53929869 19.43164062 113.60546875 C19.32409583 125.50777121 19.22314512 137.41011632 19.125 149.3125 C5.265 149.3125 -8.595 149.3125 -22.875 149.3125 C-22.88958252 146.23421875 -22.90416504 143.1559375 -22.91918945 139.984375 C-22.96957527 129.8022828 -23.0361776 119.62034288 -23.11071491 109.43840027 C-23.1554009 103.26640128 -23.19466118 97.09446803 -23.22143555 90.92236328 C-23.24748582 84.96352701 -23.28790107 79.00494396 -23.33818626 73.04626465 C-23.35484319 70.77538203 -23.36636476 68.50445562 -23.37261391 66.23352051 C-23.38226748 63.04733876 -23.41034293 59.86180316 -23.44262695 56.67578125 C-23.44119186 55.74141739 -23.43975677 54.80705353 -23.4382782 53.84437561 C-23.5381549 46.85312692 -24.58856988 41.1868693 -29.0625 35.5625 C-35.18760044 30.66241965 -40.24574231 28.59257332 -48.19921875 28.93359375 C-54.959827 29.89093536 -59.4582533 33.15411017 -63.625 38.453125 C-68.74052715 46.06247163 -69.022356 53.98250054 -69.08032227 62.80615234 C-69.09022186 63.74337128 -69.10012146 64.68059021 -69.11032104 65.64620972 C-69.14179578 68.73026034 -69.16663782 71.81432634 -69.19140625 74.8984375 C-69.2119879 77.04220978 -69.23298468 79.18597811 -69.25437927 81.32974243 C-69.30947489 86.9619425 -69.3589392 92.59417843 -69.40722656 98.22644043 C-69.46638373 104.98967903 -69.53254267 111.75285234 -69.59752655 118.51603699 C-69.6953786 128.78148465 -69.78434241 139.04697492 -69.875 149.3125 C-84.065 149.3125 -98.255 149.3125 -112.875 149.3125 C-112.875 98.1625 -112.875 47.0125 -112.875 -5.6875 C-99.345 -5.6875 -85.815 -5.6875 -71.875 -5.6875 C-71.545 2.8925 -71.215 11.4725 -70.875 20.3125 C-69.225 17.0125 -67.575 13.7125 -65.875 10.3125 C-59.91718824 1.6779902 -51.20632392 -4.52617706 -41.03125 -7.21484375 C-26.30209817 -9.4205707 -12.58034414 -8.43741956 0 0 Z " fill="#0A0CC3" transform="translate(800.875,117.6875)"/>
<path d="M0 0 C14.19 0 28.38 0 43 0 C43.33 24.75 43.66 49.5 44 75 C46.31 71.7 48.62 68.4 51 65 C58.30784128 56.73375331 67.00056623 50.86490792 78.30151367 49.77880859 C96.03565511 48.95947836 111.36945367 51.38662655 125.5 63.06640625 C140.89089925 77.59936686 148.12025195 98.75908227 149.12402344 119.5715332 C149.90292367 147.06142275 146.66991667 172.91492569 127.23046875 193.93359375 C114.51972921 205.70939273 99.17867523 209.75788005 82.26171875 209.3125 C69.51636707 208.62680522 59.60414388 202.86771746 50.703125 194.1015625 C48.15880191 190.96200786 46.14177177 187.42683483 44 184 C43.67 191.59 43.34 199.18 43 207 C28.81 207 14.62 207 0 207 C0 138.69 0 70.38 0 0 Z M52 94 C42.20744869 107.10270949 40.51113862 123.88722943 42.4609375 139.75 C44.4439445 151.13479316 48.17615133 163.002457 58 170 C65.52335439 174.31562281 73.32827731 175.51084351 81.7421875 173.26953125 C86.89747396 171.39557697 90.47656893 169.30641575 94 165 C94.49113281 164.45859375 94.98226563 163.9171875 95.48828125 163.359375 C105.36762385 151.69047406 106.0990827 134.62049522 105 120 C103.41903434 108.23144588 99.49917365 96.6266684 89.7578125 89.18359375 C77.79291435 81.127229 61.57465873 83.34650649 52 94 Z " fill="#0A0CC3" transform="translate(996,60)"/>
<path d="M0 0 C16.13652674 13.64535224 22.26774392 32.26504868 24.93359375 52.75 C24.93359375 60.67 24.93359375 68.59 24.93359375 76.75 C-9.05640625 76.75 -43.04640625 76.75 -78.06640625 76.75 C-76.06117502 88.78138737 -74.06675168 98.71689365 -64.1171875 106.41796875 C-56.27670353 111.51054977 -47.03693153 112.49541104 -37.84375 111.34765625 C-31.24216679 109.93720421 -25.74105445 107.74589179 -21.06640625 102.75 C-20.26202538 101.30989877 -19.49054948 99.85089867 -18.75390625 98.375 C-17.63623047 96.44262695 -17.63623047 96.44262695 -16.06640625 94.75 C-13.93164062 94.36083984 -13.93164062 94.36083984 -11.34765625 94.4609375 C-10.36692139 94.49364746 -9.38618652 94.52635742 -8.37573242 94.56005859 C-7.28365479 94.62273926 -6.19157715 94.68541992 -5.06640625 94.75 C-3.87313721 94.81654785 -2.67986816 94.8830957 -1.45043945 94.95166016 C2.40908255 95.19106799 6.26468047 95.46505284 10.12109375 95.75 C11.46807337 95.84671122 12.81507852 95.94306757 14.16210938 96.0390625 C17.4195379 96.27256992 20.67666625 96.50962219 23.93359375 96.75 C22.56115545 108.35071532 17.82113718 117.23858308 9.93359375 125.75 C9.07701172 126.68779297 9.07701172 126.68779297 8.203125 127.64453125 C-6.8990492 142.41332412 -29.43776484 145.89618586 -49.62109375 145.71875 C-71.5995347 144.72199531 -89.19763463 136.62185078 -104.12109375 120.53515625 C-119.95185988 101.64377534 -122.53631249 76.71972616 -120.79296875 53.03515625 C-118.32775427 32.73202192 -110.35690184 13.28782624 -93.9921875 0.3125 C-66.42962808 -19.98004262 -27.67594487 -20.3074449 0 0 Z M-71.06640625 29.75 C-75.59930624 35.69799313 -78.06640625 41.17313704 -78.06640625 48.75 C-57.60640625 48.75 -37.14640625 48.75 -16.06640625 48.75 C-16.06640625 40.09267264 -18.01965364 32.76164887 -24.13671875 26.35546875 C-32.13291943 19.70275928 -40.21970169 17.68432825 -50.359375 18.30078125 C-59.02631914 19.35104318 -65.17119298 23.40427917 -71.06640625 29.75 Z " fill="#0A0CC3" transform="translate(1517.06640625,124.25)"/>
<path d="M0 0 C14.19 0 28.38 0 43 0 C43.04898438 6.68121094 43.09796875 13.36242187 43.1484375 20.24609375 C43.18383975 24.48894707 43.2198089 28.73178051 43.2578125 32.97460938 C43.31802598 39.70301407 43.37618607 46.43139107 43.421875 53.15991211 C43.45885864 58.58703514 43.50525376 64.01400488 43.55806351 69.44099617 C43.5765381 71.50730756 43.59167141 73.57365173 43.60334396 75.64001274 C43.62032551 78.54328853 43.64938855 81.44621855 43.68115234 84.34936523 C43.68331253 85.19597717 43.68547272 86.04258911 43.68769836 86.91485596 C43.7870956 94.06728732 44.37095409 101.45447051 48.625 107.4375 C51 110.83526012 51 110.83526012 51 113 C52.32258472 113.68774405 53.65986503 114.34711373 55 115 C55.94875 115.53625 56.8975 116.0725 57.875 116.625 C64.22542491 119.29382081 72.18402261 119.06454305 78.73046875 117.23828125 C85.39861456 114.41241711 90.00699052 110.83842978 93.25 104.25 C93.75015625 103.26515625 94.2503125 102.2803125 94.765625 101.265625 C97.24231236 94.71337616 97.15627939 87.75606528 97.20532227 80.83007812 C97.21522186 79.95108856 97.22512146 79.072099 97.23532104 78.16647339 C97.26667305 75.28809211 97.29158842 72.40969439 97.31640625 69.53125 C97.33699855 67.52485752 97.35799559 65.51846916 97.37937927 63.51208496 C97.43436505 58.25145823 97.48387719 52.99079389 97.53222656 47.73010254 C97.59148531 41.40733764 97.65758304 35.08464094 97.72252655 28.76193237 C97.82024012 19.17466351 97.90929843 9.58734931 98 0 C112.19 0 126.38 0 141 0 C141 51.15 141 102.3 141 155 C127.14 155 113.28 155 99 155 C98.505 142.13 98.505 142.13 98 129 C96.02 132.3 94.04 135.6 92 139 C89.5625 141.75 89.5625 141.75 87 144 C86.52304687 144.47953125 86.04609375 144.9590625 85.5546875 145.453125 C76.5433326 154.07268186 64.14561247 156.77072798 52 157 C37.21382133 156.56669227 24.0836553 151.65289161 13.8125 140.875 C2.28003927 127.18307451 -0.17958367 110.70480267 -0.11352539 93.43139648 C-0.11367142 92.41571091 -0.11381744 91.40002533 -0.1139679 90.3535614 C-0.11327617 87.02604978 -0.10551868 83.69859548 -0.09765625 80.37109375 C-0.09578944 78.05225149 -0.09436678 75.73340884 -0.09336853 73.41456604 C-0.08956408 67.33355608 -0.07975161 61.25257029 -0.06866455 55.17156982 C-0.05840576 48.95748217 -0.05386136 42.74339057 -0.04882812 36.52929688 C-0.03812737 24.3528523 -0.02054747 12.17643195 0 0 Z " fill="#0A0CC3" transform="translate(526,112)"/>
<path d="M0 0 C14.52 0 29.04 0 44 0 C44 56.1 44 112.2 44 170 C72.71 170 101.42 170 131 170 C131 182.21 131 194.42 131 207 C87.77 207 44.54 207 0 207 C0 138.69 0 70.38 0 0 Z " fill="#0A0CC3" transform="translate(380,60)"/>
<path d="M0 0 C14.19 0 28.38 0 43 0 C43 51.15 43 102.3 43 155 C28.81 155 14.62 155 0 155 C0 103.85 0 52.7 0 0 Z " fill="#0A0CC3" transform="translate(930,112)"/>
<path d="M0 0 C7.63004744 4.67145762 11.29851246 8.62086235 13.75 17.3125 C14.72602681 25.31591981 14.19657382 32.33217583 9.515625 39.1171875 C4.97119966 44.60669244 0.2931205 48.01421185 -6.9375 48.875 C-14.72253235 49.39400216 -21.45156206 48.09495226 -27.75 43.25 C-33.7138866 37.54963397 -35.18895634 31.55737672 -35.5 23.4375 C-35.28169065 16.62897713 -34.29351818 11.24241551 -29.9375 5.875 C-21.73336033 -1.13659398 -10.46362045 -4.07051596 0 0 Z " fill="#FAAD13" transform="translate(1587.9375,219.125)"/>
<path d="M0 0 C5.59786251 3.3875477 9.46136951 8.24747652 11.5 14.4375 C12.40772411 21.49874918 11.85876667 27.66639553 7.5 33.4375 C1.89551138 39.4712686 -3.06831146 42.42077149 -11.375 42.75 C-19.19274684 42.56218626 -24.98184464 40.08106798 -30.5 34.4375 C-35.05753521 28.35135049 -35.46595941 21.82659157 -34.5 14.4375 C-32.75109443 8.24906492 -28.83279215 3.9187822 -23.5 0.4375 C-16.6484373 -2.96497672 -7.00474452 -3.15687713 0 0 Z " fill="#0A0CC3" transform="translate(963.5,50.5625)"/>
</svg>
