<svg width="102" height="118" viewBox="0 0 102 118" fill="none" xmlns="http://www.w3.org/2000/svg">
<path opacity="0.1" fill-rule="evenodd" clip-rule="evenodd" d="M99 6C100.657 6 102 4.65685 102 3C102 1.34315 100.657 0 99 0C97.3431 0 96 1.34315 96 3C96 4.65685 97.3431 6 99 6ZM102 19C102 20.6569 100.657 22 99 22C97.3431 22 96 20.6569 96 19C96 17.3431 97.3431 16 99 16C100.657 16 102 17.3431 102 19ZM99 38C100.657 38 102 36.6569 102 35C102 33.3431 100.657 32 99 32C97.3431 32 96 33.3431 96 35C96 36.6569 97.3431 38 99 38ZM102 51C102 52.6569 100.657 54 99 54C97.3431 54 96 52.6569 96 51C96 49.3431 97.3431 48 99 48C100.657 48 102 49.3431 102 51ZM99 70C100.657 70 102 68.6569 102 67C102 65.3431 100.657 64 99 64C97.3431 64 96 65.3431 96 67C96 68.6569 97.3431 70 99 70ZM102 83C102 84.6569 100.657 86 99 86C97.3431 86 96 84.6569 96 83C96 81.3431 97.3431 80 99 80C100.657 80 102 81.3431 102 83ZM99 102C100.657 102 102 100.657 102 99C102 97.3431 100.657 96 99 96C97.3431 96 96 97.3431 96 99C96 100.657 97.3431 102 99 102ZM6 115C6 116.657 4.65685 118 3 118C1.34315 118 0 116.657 0 115C0 113.343 1.34315 112 3 112C4.65685 112 6 113.343 6 115ZM19 118C20.6569 118 22 116.657 22 115C22 113.343 20.6569 112 19 112C17.3431 112 16 113.343 16 115C16 116.657 17.3431 118 19 118ZM38 115C38 116.657 36.6569 118 35 118C33.3431 118 32 116.657 32 115C32 113.343 33.3431 112 35 112C36.6569 112 38 113.343 38 115ZM51 118C52.6569 118 54 116.657 54 115C54 113.343 52.6569 112 51 112C49.3431 112 48 113.343 48 115C48 116.657 49.3431 118 51 118ZM70 115C70 116.657 68.6569 118 67 118C65.3431 118 64 116.657 64 115C64 113.343 65.3431 112 67 112C68.6569 112 70 113.343 70 115ZM83 118C84.6569 118 86 116.657 86 115C86 113.343 84.6569 112 83 112C81.3431 112 80 113.343 80 115C80 116.657 81.3431 118 83 118ZM99 118C100.657 118 102 116.657 102 115C102 113.343 100.657 112 99 112C97.3431 112 96 113.343 96 115C96 116.657 97.3431 118 99 118ZM86 99C86 100.657 84.6569 102 83 102C81.3431 102 80 100.657 80 99C80 97.3431 81.3431 96 83 96C84.6569 96 86 97.3431 86 99ZM67 102C68.6569 102 70 100.657 70 99C70 97.3431 68.6569 96 67 96C65.3431 96 64 97.3431 64 99C64 100.657 65.3431 102 67 102ZM54 99C54 100.657 52.6569 102 51 102C49.3431 102 48 100.657 48 99C48 97.3431 49.3431 96 51 96C52.6569 96 54 97.3431 54 99ZM35 102C36.6569 102 38 100.657 38 99C38 97.3431 36.6569 96 35 96C33.3431 96 32 97.3431 32 99C32 100.657 33.3431 102 35 102ZM22 99C22 100.657 20.6569 102 19 102C17.3431 102 16 100.657 16 99C16 97.3431 17.3431 96 19 96C20.6569 96 22 97.3431 22 99ZM3 102C4.65685 102 6 100.657 6 99C6 97.3431 4.65685 96 3 96C1.34315 96 0 97.3431 0 99C0 100.657 1.34315 102 3 102ZM83 86C84.6569 86 86 84.6569 86 83C86 81.3431 84.6569 80 83 80C81.3431 80 80 81.3431 80 83C80 84.6569 81.3431 86 83 86ZM70 83C70 84.6569 68.6569 86 67 86C65.3431 86 64 84.6569 64 83C64 81.3431 65.3431 80 67 80C68.6569 80 70 81.3431 70 83ZM51 86C52.6569 86 54 84.6569 54 83C54 81.3431 52.6569 80 51 80C49.3431 80 48 81.3431 48 83C48 84.6569 49.3431 86 51 86ZM38 83C38 84.6569 36.6569 86 35 86C33.3431 86 32 84.6569 32 83C32 81.3431 33.3431 80 35 80C36.6569 80 38 81.3431 38 83ZM19 86C20.6569 86 22 84.6569 22 83C22 81.3431 20.6569 80 19 80C17.3431 80 16 81.3431 16 83C16 84.6569 17.3431 86 19 86ZM6 83C6 84.6569 4.65685 86 3 86C1.34315 86 0 84.6569 0 83C0 81.3431 1.34315 80 3 80C4.65685 80 6 81.3431 6 83ZM86 67C86 68.6569 84.6569 70 83 70C81.3431 70 80 68.6569 80 67C80 65.3431 81.3431 64 83 64C84.6569 64 86 65.3431 86 67ZM67 70C68.6569 70 70 68.6569 70 67C70 65.3431 68.6569 64 67 64C65.3431 64 64 65.3431 64 67C64 68.6569 65.3431 70 67 70ZM54 67C54 68.6569 52.6569 70 51 70C49.3431 70 48 68.6569 48 67C48 65.3431 49.3431 64 51 64C52.6569 64 54 65.3431 54 67ZM35 70C36.6569 70 38 68.6569 38 67C38 65.3431 36.6569 64 35 64C33.3431 64 32 65.3431 32 67C32 68.6569 33.3431 70 35 70ZM22 67C22 68.6569 20.6569 70 19 70C17.3431 70 16 68.6569 16 67C16 65.3431 17.3431 64 19 64C20.6569 64 22 65.3431 22 67ZM3 70C4.65685 70 6 68.6569 6 67C6 65.3431 4.65685 64 3 64C1.34315 64 0 65.3431 0 67C0 68.6569 1.34315 70 3 70ZM83 54C84.6569 54 86 52.6569 86 51C86 49.3431 84.6569 48 83 48C81.3431 48 80 49.3431 80 51C80 52.6569 81.3431 54 83 54ZM70 51C70 52.6569 68.6569 54 67 54C65.3431 54 64 52.6569 64 51C64 49.3431 65.3431 48 67 48C68.6569 48 70 49.3431 70 51ZM51 54C52.6569 54 54 52.6569 54 51C54 49.3431 52.6569 48 51 48C49.3431 48 48 49.3431 48 51C48 52.6569 49.3431 54 51 54ZM38 51C38 52.6569 36.6569 54 35 54C33.3431 54 32 52.6569 32 51C32 49.3431 33.3431 48 35 48C36.6569 48 38 49.3431 38 51ZM19 54C20.6569 54 22 52.6569 22 51C22 49.3431 20.6569 48 19 48C17.3431 48 16 49.3431 16 51C16 52.6569 17.3431 54 19 54ZM6 51C6 52.6569 4.65685 54 3 54C1.34315 54 0 52.6569 0 51C0 49.3431 1.34315 48 3 48C4.65685 48 6 49.3431 6 51ZM86 35C86 36.6569 84.6569 38 83 38C81.3431 38 80 36.6569 80 35C80 33.3431 81.3431 32 83 32C84.6569 32 86 33.3431 86 35ZM67 38C68.6569 38 70 36.6569 70 35C70 33.3431 68.6569 32 67 32C65.3431 32 64 33.3431 64 35C64 36.6569 65.3431 38 67 38ZM54 35C54 36.6569 52.6569 38 51 38C49.3431 38 48 36.6569 48 35C48 33.3431 49.3431 32 51 32C52.6569 32 54 33.3431 54 35ZM35 38C36.6569 38 38 36.6569 38 35C38 33.3431 36.6569 32 35 32C33.3431 32 32 33.3431 32 35C32 36.6569 33.3431 38 35 38ZM22 35C22 36.6569 20.6569 38 19 38C17.3431 38 16 36.6569 16 35C16 33.3431 17.3431 32 19 32C20.6569 32 22 33.3431 22 35ZM3 38C4.65685 38 6 36.6569 6 35C6 33.3431 4.65685 32 3 32C1.34315 32 0 33.3431 0 35C0 36.6569 1.34315 38 3 38ZM83 22C84.6569 22 86 20.6569 86 19C86 17.3431 84.6569 16 83 16C81.3431 16 80 17.3431 80 19C80 20.6569 81.3431 22 83 22ZM70 19C70 20.6569 68.6569 22 67 22C65.3431 22 64 20.6569 64 19C64 17.3431 65.3431 16 67 16C68.6569 16 70 17.3431 70 19ZM51 22C52.6569 22 54 20.6569 54 19C54 17.3431 52.6569 16 51 16C49.3431 16 48 17.3431 48 19C48 20.6569 49.3431 22 51 22ZM38 19C38 20.6569 36.6569 22 35 22C33.3431 22 32 20.6569 32 19C32 17.3431 33.3431 16 35 16C36.6569 16 38 17.3431 38 19ZM19 22C20.6569 22 22 20.6569 22 19C22 17.3431 20.6569 16 19 16C17.3431 16 16 17.3431 16 19C16 20.6569 17.3431 22 19 22ZM6 19C6 20.6569 4.65685 22 3 22C1.34315 22 0 20.6569 0 19C0 17.3431 1.34315 16 3 16C4.65685 16 6 17.3431 6 19ZM86 3C86 4.65685 84.6569 6 83 6C81.3431 6 80 4.65685 80 3C80 1.34315 81.3431 0 83 0C84.6569 0 86 1.34315 86 3ZM67 6C68.6569 6 70 4.65685 70 3C70 1.34315 68.6569 0 67 0C65.3431 0 64 1.34315 64 3C64 4.65685 65.3431 6 67 6ZM54 3C54 4.65685 52.6569 6 51 6C49.3431 6 48 4.65685 48 3C48 1.34315 49.3431 0 51 0C52.6569 0 54 1.34315 54 3ZM35 6C36.6569 6 38 4.65685 38 3C38 1.34315 36.6569 0 35 0C33.3431 0 32 1.34315 32 3C32 4.65685 33.3431 6 35 6ZM22 3C22 4.65685 20.6569 6 19 6C17.3431 6 16 4.65685 16 3C16 1.34315 17.3431 0 19 0C20.6569 0 22 1.34315 22 3ZM3 6C4.65685 6 6 4.65685 6 3C6 1.34315 4.65685 0 3 0C1.34315 0 0 1.34315 0 3C0 4.65685 1.34315 6 3 6Z" fill="#5A7184"/>
</svg>
