<?xml version="1.0" encoding="UTF-8"?>
<svg id="Layer_2" data-name="Layer 2" xmlns="http://www.w3.org/2000/svg" viewBox="0 0 1746.78 1067.47">
  <defs>
    <style>
      .cls-1 {
        fill: #fff;
      }

      .cls-2 {
        fill: #f5d3b7;
      }

      .cls-3 {
        fill: #bf9451;
      }

      .cls-4 {
        fill: #fff0dd;
      }

      .cls-5 {
        fill: #fbdbd8;
      }
    </style>
  </defs>
  <g id="Layer_1-2" data-name="Layer 1">
    <g>
      <g>
        <path class="cls-3" d="M241.77,402.75c-19.53-50.67-68.88-84.46-124.03-71.66-52.99,12.3-86.28,70.25-66.32,121.77,9.34,24.1,28.47,41.59,51.74,52.15,21.19,9.62,44.31,13.75,65.47,23.18,15.88,7.07,36.99,21.03,35.58,40.26-1.1,14.91-19.37,26.49-33.58,32.91-37.49,16.94-86.96,9.68-118.46-18.36-12.35-10.99-31.14-12.17-43.31,0-11.19,11.19-12.41,32.27,0,43.31,35.29,31.4,82.59,48.46,129.99,44.54,46.84-3.87,99.99-26.01,119.72-71.82,23.24-53.97-16.65-105.41-64.96-126.36-20.21-8.77-44.16-13.44-62.94-22.11-16.07-7.43-26.67-17.58-23.53-35.72,2.58-14.95,18.75-25.25,33.97-25.44,17.3-.21,35.02,12.56,41.6,29.63,5.95,15.42,20.59,26.08,37.67,21.39,14.74-4.05,27.37-22.16,21.39-37.67h0Z"/>
        <path class="cls-3" d="M267.86,439.68c-16.24,51.1,.23,119.84,52.94,142.69,18.01,7.81,36.59,11.32,56.12,7.32,14.12-2.89,27.98-11.13,37.75-21.68,16.09-17.39,25.04-40.42,29.11-63.49,1.77-10.02,3.07-20.19,3.67-30.35,.28-4.72,.4-9.44,.28-14.16-.13-4.95-1.35-10.41-.79-15.33-1.39,5.15-2.79,10.3-4.18,15.46l.1-.14c-8.81,5.06-17.63,10.11-26.44,15.17h.03c-5.15-1.39-10.3-2.79-15.46-4.18-6.17-2.96-12.74-11.55-13.7-17.59,.07,.44,.29,.87,.38,1.32,.34,1.67,.76,3.33,1.1,5,1.44,7.17,2.61,14.39,3.8,21.6,5.85,35.49,11.04,71.09,16.27,106.67,2.34,15.9,23.28,26.05,37.67,21.39,17.38-5.62,23.89-20.63,21.39-37.67-5.46-37.14-10.83-74.31-17.05-111.33-3.62-21.56-6.22-44.13-34.44-46.46-11.07-.92-20.62,6.67-26.44,15.17-7.32,10.68-3.19,26.42-3.48,38.43-.12,4.95-.45,9.9-.94,14.82-.15,1.51-.34,3.01-.5,4.51-.39,3.66,1.43-8.83,.22-1.91-.72,4.15-1.44,8.28-2.41,12.38-.92,3.91-1.99,7.79-3.25,11.61-.65,1.95-1.39,3.87-2.09,5.8-1.62,4.49,1.17-2.84,1.3-3.03-.79,1.22-1.33,2.88-2,4.18-1.88,3.67-4.33,6.88-6.41,10.41,4.45-7.53,2.15-2.77-.09-.47-.69,.71-1.47,1.36-2.16,2.08-3.72,3.93,6.14-3.9,1.52-1.06-1.72,1.06-3.44,2.08-5.19,3.1-3.79,2.2,2.63-2.48,3.07-1.23,.04,.1-4.98,1.55-4.63,1.44-3.55,1.15-1.14,1.74,1.26,.06-.58,.41-4.14,.19-4.5,.18,.12,0-4.19,.08-4.39-.21,4.23,.65,5.19,.77,2.87,.36-1.02-.18-2.03-.39-3.03-.63-2.53-.59-4.95-1.48-7.44-2.21-5.13-1.51,6.43,3.15-.32-.12-2.51-1.21-4.84-2.66-7.26-4.03-5.12-2.91-.02,.55,.68,.77-.81-.25-2.73-2.38-3.17-2.8-1.89-1.79-3.47-4.37-5.49-5.95,.7,.55,3.84,5.79,1.36,1.51-.63-1.08-1.36-2.11-1.99-3.18-.62-1.05-1.21-2.12-1.77-3.2-.59-1.13-2.42-6.07-.71-1.13,1.75,5.06-.96-2.79-1.39-4.11-.76-2.36-1.43-4.76-2.03-7.17-.51-2.06-.96-4.13-1.39-6.21-.15-.71-.28-1.42-.43-2.13-.17-.92-.34-1.85-.51-2.77,.36,3.17,.43,3.64,.2,1.41-.18-3.8-.53-7.55-.45-11.36,.03-1.56,.1-3.12,.2-4.68,.1-1.48,.23-2.96,.4-4.43-.18,1.33-.36,2.66-.54,3.98,1.77-5.09,2.17-10.87,3.83-16.08,4.85-15.27-5.7-34.1-21.39-37.67-16.71-3.81-32.48,5.04-37.67,21.39h0Z"/>
        <path class="cls-3" d="M929.54,837.37c-21.87-42.99-72.48-63.02-116.21-42.19-7.13,3.4-13.6,7.6-19.55,12.35-1.53-10.07-3.16-20.12-4.95-30.13-7.59-42.53-10.35-43.72-12.32-63.84-1.46-14.86-.62-21.11-3.4-53.6-1.11-12.91-2.36-22.32-9.7-29.82-5.63-5.74-14.98-9.55-24.17-7.78-9.42,1.82-14.87,8.76-17.1,11.61-1.28,1.63-6.18,8.18-7.77,18.77-7.71,51.41,15.23,139.87,15.23,139.87,6.94,26.78,14.85,66.07,16.83,116.58,0,0,0,.02,0,.02,0,0,0,0,0,0,.01,.09,.03,.19,.04,.29-.72,9.91,3.54,19.93,15.12,26.16,32.93,17.7,70.77,34.62,109.02,25.15,54.14-13.4,84.53-73.14,58.94-123.45Zm-87.53,64.58c-11.83-1.31-21.84-5.05-31.67-9.81,4.51-17.51,14.32-33.21,28.17-41.13,5.91-3.38,3.39-2.87,10.02-3.76-4.41,.59-.41-.18,1.87-.03,1.21,.06,1.55,.02,1.2-.1l2.13,.47c9.22,2.81,17.86,9.94,22.18,18.98,10.47,21.88-14.97,37.47-33.91,35.38Z"/>
        <path class="cls-3" d="M670.52,478.42c-7.69-21.24-18.52-47.25-35.2-63.58-22.86-24.81-57.08-42.21-91.23-36.04-36.56,6.61-62.71,42.31-68.83,77.34-7.18,41.07,8.16,82.74,46.36,102.89,33.23,17.52,72.26,14.56,101.52-5.9,.57,13.13-.32,26.13-3.4,38-11.45,44.14-80.89,60.59-128.68,55.87-58.85-5.81-96.06-24.12-96.06-24.12-10.78-5.3-26.02-13.95-40.04-8.11-11.32,4.72-20.17,18.19-18.92,29.94,1,9.4,8.87,21.71,54.51,38.41,52.12,19.08,86.38,31.62,133.47,25.25,51.6-6.98,143.51-36.22,156.66-109.71,6.95-38.82,3.22-83.23-10.17-120.25Zm-76.89,20.16c-16.02,17.67-48.53,12.2-56.6-6.94-7.19-17.04,.62-41.77,13.49-50.49,11.59-7.85,28.81,4.09,39.41,14.82,9.41,14.37,15.57,29.52,3.7,42.61Z"/>
        <path class="cls-3" d="M876.65,448.2c-12.68-45.28-53.81-78.24-101.91-69.13-33.41,6.33-61.74,34.74-74.84,65-17.2,39.73-15.2,88.36,18.12,119.49,31.49,29.43,81.36,38.68,117.8,12.55,40.35-28.93,53.19-81.22,40.84-127.91-4.1-15.49-22.04-26.45-37.67-21.39-17.08,5.53-24.28,20.71-21.39,37.67,6.8,39.86,13.6,79.73,20.4,119.59,2.7,15.83,23.02,26.13,37.67,21.39,17.08-5.53,24.28-20.71,21.39-37.67-6.8-39.86-13.6-79.73-20.4-119.59-19.69,5.43-39.38,10.86-59.06,16.28,.94,3.54,1.57,7.12,2.38,10.69-1.45-6.39,.15,2.68,.23,4.92,.11,3.39-.09,6.74-.19,10.12-.16,5.72,.08,.41,.28-.79-.4,2.39-.82,4.75-1.37,7.11-.72,3.08-1.71,6.04-2.63,9.05-.47,1.52-1.21,5.58,.55-.89-.35,1.3-1.37,2.96-1.95,4.09-1.34,2.64-2.83,5.21-4.46,7.68-.67,1.01-1.63,2.87-2.5,3.57,2.5-2.02,2.93-3.38,.01-.42-1.93,1.95-4.19,3.8-6.02,5.82-2.66,2.93,4.8-2.85,1.33-1.02-1.18,.62-2.25,1.52-3.4,2.21-1.44,.87-2.94,1.6-4.41,2.42-4.18,2.34,1.57-1.47,1.81-.74,.18,.54-12,2.88-7.09,2.15,4.18-.62-1.08-.03-2.13,0-1.65,.04-3.34-.2-4.97-.08-4.39,.32,5.03,1.25,.74,.21-1.61-.39-3.25-.65-4.86-1.06-1.61-.42-3.2-.89-4.78-1.42-.96-.32-5.68-2.51-2.14-.74,3.58,1.8-1.11-.71-1.94-1.16-1.82-.99-3.54-2.12-5.32-3.18-4.69-2.78-.73-.4,.25,.43-1.24-1.05-2.48-2.09-3.67-3.2-1.56-1.47-7-8.11-3.19-2.76-1.86-2.62-3.4-5.34-5.03-8.1-2.74-4.65-.16-.23,.22,.92-.73-2.21-1.52-4.35-2.12-6.61-.4-1.49-.68-2.99-1.02-4.5-.82-3.64-1.56-1.17,.13,1.29-1.15-1.68-.34-7.19-.28-9.24,.04-1.55,.18-3.09,.27-4.64,.18-3.05-1.14-3.02-.21,1.21-.56-2.58,1.62-7.74,2.34-10.24,.43-1.5,.9-2.98,1.4-4.46,.33-.98,1.88-5.78,.52-1.79-1.34,3.94,.32-.67,.79-1.65,.67-1.39,1.36-2.75,2.09-4.11,1.44-2.67,3.01-5.27,4.7-7.8,.58-.87,3.32-4.93,.87-1.43-2.59,3.71,1.13-1.27,1.78-2,2.82-3.15,5.94-5.94,9.1-8.73,5.42-4.78-5.57,3.51,.51-.29,2.44-1.53,4.92-2.95,7.38-4.43,4.67-2.83-1.09,.09-1.54,.42,1.38-1.03,4.77-1.71,6.4-2.15,.62-.17,4.44-1.23,4.58-1.03-.37-.57-6.33,.35,.42,.32,.96,0,6.37,.37,2.44-.08-3.97-.45,2.09,.58,2.91,.81,.44,.12,3.69,.82,4.21,1.38-3.54-1.57-4.29-1.85-2.24-.85,1,.49,1.98,1.02,2.94,1.58,1.29,.75,2.49,1.68,3.78,2.41-3.2-1.83-2.83-2.39,0,.2,1.13,1.04,2.22,2.12,3.28,3.25,2.33,2.48,2.66,3.37,.45,.13,2.29,3.36,4.32,6.76,6.22,10.35,.85,1.6,1.33,4.9-.14-.45,.67,2.45,1.62,4.84,2.3,7.3,4.32,15.42,21.89,26.5,37.67,21.39,15.74-5.09,26.02-21.15,21.39-37.67h0Z"/>
        <path class="cls-3" d="M895.11,406.05c6.6,60.15,17.48,119.65,33.46,178.02,4.23,15.45,21.95,26.48,37.67,21.39,16.8-5.44,24.66-20.79,21.39-37.67-7.5-38.77-12.53-76.47-11.77-117.89,.02-1.1,.28-5.14-.12-1.82,.27-2.18,.79-4.39,1.34-6.52,.2-.76,2.92-8,1.35-4.6-1.42,3.08,1.18-1.9,1.47-2.41,.28-.48,3.29-5.19,1.4-2.51-2.01,2.84,2.84-3.03,2.89-3.08,1.28-1.28,2.62-2.5,4.01-3.66-2.35,1.97-1.82,1.25,.4,.03,.65-.35,7.11-3.77,3.58-2.16-3.06,1.39,2.28-.67,2.92-.86,.55-.16,6.26-1.58,2.93-.92-3.72,.74,3.63-.18,4.48-.18,1.91,0,3.82,.09,5.72,.26-3.23-.3-2.17-.42,.33,.34,.66,.2,7.79,2.48,4.48,1.19-3.04-1.18,4.05,2.27,4.03,2.26,13.91,7.97,34.13,3.72,41.9-10.99,7.7-14.57,3.86-33.4-10.99-41.9-49.12-28.14-111.6-4.2-129.04,49.7-8.1,25.02-4.25,54.34-1.95,80.05,2.45,27.48,6.35,54.87,11.59,81.95,19.69-5.43,39.38-10.86,59.06-16.28-7.46-27.27-13.93-54.79-19.27-82.55-5.43-28.2-9.1-52.73-12-79.19-1.74-15.87-12.84-31.42-30.63-30.63-15.09,.68-32.5,13.57-30.63,30.63h0Z"/>
        <path class="cls-3" d="M1162.65,598.79c-4.39,91.44,1.79,182.79,17.26,272.99,4.6,26.83,43.61,28.58,55.98,7.32,7.61-13.08,11.04-26.76,13.66-41.5,2.01-11.29,3.57-22.65,11.16-31.68,9.92-11.79,25.07-17.91,36.46-8.73,33.81,27.27-24.87,82.1-42.52,47.55-7.52-14.73-28.2-19-41.9-10.99-14.96,8.75-18.54,27.12-10.99,41.9,23.41,45.82,84.16,51.98,123.55,23.68,38.58-27.72,55.77-80.51,32.13-123.57-22.9-41.71-74.01-55.49-115.24-32.59-18.17,10.09-33.54,26.72-42.2,45.58-8.6,18.73-6.81,41.89-17,59.42,18.66,2.44,37.32,4.88,55.98,7.32-14.54-84.74-19.2-170.85-15.08-256.71,1.89-39.4-59.36-39.3-61.25,0h0Z"/>
        <path class="cls-3" d="M1126.61,771.02c-19.55-23.31-51.71-38.84-81.98-39.23-46.16-.59-85.84,33.12-99.88,75.78-14.51,44.06,6,96.8,47.99,117.73,44.74,22.3,103.55,8,129.39-36.11,11.04-18.84,14.94-41.33,14.94-62.92,0-7.31-.55-14.6-1.25-21.88-.23-2.43-.55-4.87-.68-7.31-.32-6.11,.98-.63-.94,3.97-2.63,4.5-5.25,9.01-7.88,13.51-1.97,1.52-3.94,3.04-5.91,4.56-5.15,1.39-10.3,2.79-15.46,4.18-10.41,.33-20.74-6.15-25.61-14.48,.23,.39,.42,.79,.62,1.19-.35-.7-3.58-9.87-2.21-5.04,.26,.91,.6,1.81,.87,2.72,1.91,6.24,3.33,12.65,4.76,19.01,6.84,30.48,12.35,61.27,17.92,92.01,2.86,15.8,22.91,26.17,37.67,21.39,16.95-5.49,24.46-20.74,21.39-37.67-6.54-36.12-12.02-73.12-21.95-108.53-3.06-10.89-7.41-21.58-17.72-27.6-20.92-12.21-46.1,3.84-46.82,27.17-.14,4.52,.54,9.02,.95,13.52,.78,8.55,1.23,17.14,.86,25.73-.1,2.23-.32,4.45-.45,6.67-.22,3.72-1.56,.57,.39-2.32-.4,.6-.56,3.42-.65,3.9-.93,4.98-2.91,9.61-4.01,14.5-.87,3.84,2.86-5.02,.68-1.72-.74,1.12-1.23,2.45-1.89,3.62-.87,1.55-2.34,5.36-3.9,6.08,.12-.05,5.03-5.48,.78-1.32-.77,.75-1.49,1.56-2.26,2.31-1.05,1.02-2.2,1.94-3.25,2.94-2.76,2.63,5.92-3.58-.12-.07-2.35,1.36-4.61,2.83-7.04,4.06-.96,.49-5.6,2.18-1.75,.89,3.71-1.25-.24-.01-.83,.15-3.15,.9-6.22,1.75-9.43,2.45-4.58,1,.24,.7,.79-.1-.33,.49-4.35,.22-5,.23-1.69,.01-3.36-.13-5.05-.15-1.98-.02-4.92-1.42,.52,.13-2.85-.81-6-1.76-8.87-2.33-3.36-.67,.89,.52,1.5,.81-1.46-.69-2.92-1.38-4.34-2.16-1.39-.76-2.71-1.71-4.11-2.45-4.92-2.6,2.01,2.17-.43-.13-1.98-1.87-4.05-3.6-5.92-5.59-.48-.51-3.11-3.11-3.04-3.47,.03-.15,4.12,6.23,.71,.69-1.39-2.25-2.79-4.45-4.02-6.81-.14-.27-1.29-3-1.48-3.01,1.45,3.59,1.78,4.32,.98,2.2-.26-.68-.51-1.37-.72-2.07-.92-2.77-1.41-5.58-2.19-8.37-.9-3.23,.36,2.6,.3,2.86,.24-.93-.27-3.14-.31-4.25-.1-2.48-.05-4.96,.12-7.44,.14-1.95,1.74-4.68,.05-1.21-1.82,3.73,.28-.73,.63-2.22,.57-2.43,1.29-4.83,2.1-7.19,2.49-7.22-1.92,3.19,.62-1.62,1.35-2.56,2.66-5.09,4.2-7.55,.77-1.22,1.6-2.4,2.4-3.6,2.69-4-.11,1.1-.83,1.04,.64,.05,6.07-6.53,6.68-7.1,.79-.74,1.61-1.45,2.41-2.19,5.23-4.85-5.35,3.33,.66-.52,2.44-1.56,4.85-3.14,7.42-4.49,.73-.38,3.64-1.46,3.9-1.91-.69,1.17-5.52,1.96-1.24,.68,3.18-.96,6.36-1.67,9.57-2.51,4.02-1.05-5.41,.11-1.1,.17,1.92,.03,3.85-.22,5.78-.19,1.13,.01,2.25,.07,3.37,.14,6.63,.43,.1-.88-.54-.17,.66-.74,8.14,1.98,9.15,2.3,.97,.31,1.92,.68,2.89,.99,6.22,1.98-4.04-2.23-.93-.42,2.43,1.41,5.05,2.51,7.48,3.94,2.01,1.18,3.97,2.45,5.89,3.77,6.63,4.6-3.88-3.52,.63,.39,3.75,3.25,7.52,6.53,10.72,10.34,10.34,12.32,32.79,11.46,43.31,0,12.03-13.11,11.03-30.17,0-43.31h0Z"/>
        <path class="cls-3" d="M1379.9,756.05c5.31,36.97-1.63,73.42,16.73,107.97,17.45,32.83,52.06,49.37,88.39,42.82,30.87-5.56,59.54-28.29,73.3-56.26,17.95-36.46,17.34-76.83,14.55-116.4-20.05,2.71-40.1,5.43-60.16,8.14,1.74,6.87,3.02,13.88,4.16,20.87,.46,2.8,.87,5.6,1.27,8.41-1.18-8.42,.31,3.24,.52,5.25,.88,8.55,1.46,17.14,1.75,25.73,1.36,40.51-2.69,79.69-21.25,116.45-18.74,37.11-49.23,66.64-86.87,80.55-52.78,19.49-112.35,3.12-163.75-13.22-9.55-3.04-35.88-16.1-72.6-21.03-21.09-2.83-39.46-2.48-54.62,8.17-3.38,2.37-16.24,11.41-15.38,22.43,1.12,14.36,24.75,22.3,31.34,24.51,19.83,6.65,36.45,4.35,44.92,3.69,35.72-2.76,56.11,13.86,89.72,26.27,14.29,5.28,87.5,30.68,158.94,7.43,69.18-22.52,105.23-80.18,114.46-95.63,25.41-42.55,35.76-92.88,36.52-142.01,.49-31.24-2.35-63.78-10.05-94.14-8.31-32.77-62.62-26.9-60.16,8.14,2.45,34.82,9.75,104.59-39.03,112.86-13.46,2.28-22.27-8.43-26.42-23.29-7.45-26.71-3.26-56.5-7.21-83.98-2.36-16.39-23.17-25.38-37.67-21.39-17.6,4.84-23.75,21.24-21.39,37.67Z"/>
        <g>
          <path class="cls-4" d="M1137.82,477.11c11.63,25.57,30.3,38.85,55.45,56.7,18.97,13.47,36.59,22.22,49.93,27.89,30.41,8.96,72.24,17.84,122.37,18.47,62.64,.78,113.66-11.62,147.62-22.82,7.87-3.22,19.09-8.58,31.12-17.34,11.64-8.47,31.23-22.73,42.58-49.09,1.81-4.21,13.05-31.27,6.5-63.35-3.89-19.07-10.3-21.43-11.87-40.07-1.6-18.88,3.64-27.41,6.69-45.66,2.34-14,2.93-34.79-6.59-62.12,7.61-4.03,22.84-13.48,33.53-31.82,3.61-6.19,9.98-17.09,10.16-31.61,.28-23.67-15.43-39.94-24.49-49.37-24.51-25.52-55.06-30.63-62.32-31.66-14.59-2.08-53.65-7.64-77.88,19.65-21.18,23.87-16.34,56.33-15.39,62.1-17.71-5.43-39.48-10.56-64.64-13.29-31.42-3.41-58.79-2.06-80.21,.57,.49-1.82,9.5-38.02-16.49-64.79-23.07-23.76-54.31-20.08-57.65-19.63-15.05,1.01-39.78,5.07-64.09,21.38-14.25,9.56-40.72,27.33-44.67,58.4-2.98,23.46,8.43,42.16,10.14,44.86,7.36,11.68,16.61,18.46,22.09,21.87-18.81,60.34-19.29,85.95-15.11,97.57,.61,1.69,2.81,8.44,2.6,17.49-.3,12.97-5.51,22.24-7.26,25.85-12.31,25.42,5.14,63.81,7.88,69.82Z"/>
          <path class="cls-3" d="M1308.25,215.95c46.39-13.44,96.91-8.73,139.33,12.26,7.9,3.91,17.26-2.53,15-11.53-3.28-13.08-4.38-27.66,1.44-40.23,4.66-10.06,12.4-16.75,22.29-21.85,20.51-10.59,47.09-10.83,69.61-4.48,9.59,2.71,18.73,6.72,26.97,12.36,.85,.58,1.69,1.18,2.53,1.79,.66,.49,1.32,.98,1.97,1.48-1.91-1.44,.04,.04,.77,.63,3.39,2.75,6.66,5.67,9.75,8.75,15.19,15.13,26.87,35.43,19.78,57.6-1.8,5.64-5.09,11.3-8.57,15.5-2.13,2.57-4.48,4.97-6.96,7.21-2.29,2.07-3.9,3.34-5.6,4.56-3.91,2.79-8.04,5.27-12.32,7.44-1.57,.8-3.2,1.47-4.78,2.25-.4,.2,2.53-1.01,.51-.22-.35,.14-.71,.28-1.06,.41-5.16,1.95-8.69,6.89-7.13,12.56,1.36,4.95,7.38,9.09,12.56,7.13,19.55-7.38,38.28-21.1,48.17-39.82,7.5-14.19,9.68-30.5,5.93-46.12-3.23-13.46-10.71-25.48-19.59-35.93-32.42-38.16-89.45-53.5-136.16-33.81-14.13,5.96-26.93,15.59-34.63,29.08-10.3,18.02-10.09,39.52-5.17,59.15,5-3.84,10-7.69,15-11.53-48.08-23.79-103.42-29.29-155.07-14.32-12.6,3.65-7.24,23.37,5.43,19.7h0Z"/>
          <path class="cls-3" d="M1391.37,442.86c.56,8.27-11.22,16.5-21.9,16.56-11.23,.06-23.3-8.9-22.49-17.22,.76-7.8,12.64-13.15,21.97-13.15,9.63,0,21.87,5.7,22.42,13.81Z"/>
          <path class="cls-3" d="M1315.38,208.82c4.07-25.86,0-52.97-17.74-73.22-17.56-20.05-45.57-27.1-71.34-25.94-25.85,1.16-51.03,9.38-71.99,24.68-23.77,17.35-44.34,42.32-47.47,72.51-3.16,30.57,17.63,55.92,42.87,70.18,11.46,6.48,21.77-11.16,10.31-17.64-16.26-9.19-32.26-24.17-33.02-44.78-.88-23.7,15.65-44.55,32.92-58.96,16.42-13.7,37.15-22.48,57.89-24.9,19.68-2.29,41.41-.42,57.65,11.91,10.81,8.21,17.22,20.44,19.85,33.56,1.11,5.54,1.38,11.22,1.22,16.87-.07,2.39-.22,4.78-.46,7.15-.08,.84-.18,1.68-.29,2.52,.35-2.91-.02,.02-.11,.63-.86,5.44,1.39,10.99,7.13,12.56,4.85,1.33,11.7-1.65,12.56-7.13h0Z"/>
          <path class="cls-2" d="M1178.24,208.73c.22-12.74,8.57-25.02,20.42-29.7,5.33-2.1,11.13-2.73,16.85-2.93,5.91-.2,11.91,.05,17.58,1.73,16.1,4.78,27.41,22.13,25.3,38.79-.2,1.59-24.47,8.7-27.2,9.81-9,3.68-17.94,9.51-27.16,12.38-15.16,4.71-26-17.59-25.79-30.09Z"/>
          <path class="cls-2" d="M1519.3,195.55c16.8-2.71,36.86,5.99,44.21,22.93,.83,1.91,7.14,17.15-1.11,30.94-1.23,2.06-6.59,11.02-16.3,12.99-5.65,1.15-9.03-.84-30.82-13.08-18.82-10.57-22.04-12.31-23.88-17.32-3.63-9.83,2.58-19.91,3.59-21.55,7.52-12.21,21.49-14.46,24.31-14.92Z"/>
          <circle class="cls-3" cx="1297.29" cy="410.58" r="16.69"/>
          <circle class="cls-3" cx="1441.03" cy="411.19" r="16.69"/>
          <path class="cls-5" d="M1530.1,480.23c-3.07-8.57-8.62-16.36-16.99-20.43-8.14-3.97-18.14-4.5-25.99,.58-15.53,10.06-18.5,32.21-8.11,46.92,10.46,14.81,27.71,22,45.52,19.36,16.76-2.48,30.88-14.01,36.86-29.79,6.98-18.4,.38-40.39-14.7-52.72-4.27-3.49-10.27-4.17-14.44,0-3.6,3.6-4.29,10.93,0,14.44,1.29,1.05,2.53,2.15,3.69,3.34,.41,.43,2.61,2.97,1.57,1.64,.98,1.25,1.85,2.63,2.63,4.02,.31,.55,.62,1.11,.9,1.68,.08,.16,1.23,2.92,.51,1.02,1,2.62,1.78,5.37,2.15,8.15-.27-2.05-.06,.02-.03,.54,.05,.78,.07,1.55,.07,2.33,0,.62-.02,1.24-.05,1.87-.01,.26-.4,3.22-.03,1-.23,1.39-.53,2.76-.91,4.12-.22,.76-.48,1.5-.72,2.25-.1,.32-.75,1.78-.04,.21-.58,1.29-1.25,2.54-1.98,3.75-.4,.66-.84,1.29-1.26,1.93-1.16,1.76,.91-.87-.65,.79-.92,.98-1.82,1.96-2.82,2.87-.55,.5-1.11,.98-1.68,1.44,.35-.28,1.53-1-.06-.02-1.12,.7-2.2,1.43-3.36,2.06-.64,.35-1.3,.66-1.95,.99-1.91,.99,1.46-.39-.77,.31-2.49,.79-4.92,1.51-7.5,1.94,2.21-.37-.7,.02-1.52,.06-1.55,.07-3.08-.01-4.63-.09-.64-.03-2.46-.43-.18,.01-.54-.1-1.09-.19-1.63-.31-1.35-.29-2.63-.73-3.95-1.11-.36-.1-1.69-.69,0,.06-.56-.25-1.12-.52-1.67-.8-1.57-.8-3.06-1.73-4.52-2.72-1.5-1.02,1.68,1.54-.68-.5-.5-.44-1.01-.86-1.49-1.32-1.1-1.02-2.13-2.1-3.09-3.25-1.14-1.36,1.08,1.89-.5-.7-.34-.56-.71-1.1-1.05-1.67-.33-.57-.62-1.14-.92-1.73-.99-1.91,0,.77-.41-1.16-.17-.79-.43-1.55-.59-2.34-.33-1.65-.11,2.25-.03-.66,.02-.64,.04-1.32,.03-1.97-.02-2.86-.53,1.11,0-.01,.45-.96,.53-2.29,.87-3.33,.17-.51,.35-1.02,.55-1.52-.88,2.22,.12-.08,.39-.56,.34-.62,.72-1.2,1.11-1.8,.42-.6,.31-.47-.32,.37,.27-.33,.55-.64,.85-.94,.32-.42,1.83-1.63,.16-.37,.69-.52,1.44-.95,2.2-1.34-.52,.27-1.69,.39,.03,.08,.42-.12,.84-.22,1.26-.29,.77-.14,.5-.1-.8,.13,.4,.06,1.12,.01,1.55-.01,2.15-.12-1.51-.57,.41,.06,.77,.25,1.56,.44,2.33,.7-1.67-.57-.23-.07,.58,.39,.5,.28,.97,.61,1.45,.91-1.75-1.1,.36,.31,.67,.61,.44,.42,.83,.87,1.27,1.29,1.53,1.46-.33-.84,.7,.87,.41,.69,.86,1.36,1.24,2.07,.24,.43,.46,.87,.67,1.32-.37-.91-.33-.78,.1,.38,1.86,5.19,6.96,8.67,12.56,7.13,5.02-1.38,9-7.35,7.13-12.56h0Z"/>
          <path class="cls-5" d="M1231.32,466.92c1.09-3.04-.51,.83,.32-.82,.36-.73,.75-1.44,1.17-2.14,.33-.54,.68-1.07,1.06-1.58-1.02,1.39-.09,.14,.16-.09,.54-.52,1.05-1.07,1.6-1.59,.43-.4,2-1.35,.34-.31,.49-.31,.95-.62,1.45-.91,.51-.29,2.69-1.02,.58-.39,.64-.19,1.31-.38,1.94-.6,.7-.24,2.38-.21,.02-.11,1.02-.04,3.42,.18,1.16-.23,.7,.13,1.38,.3,2.07,.5,1.4,.39-1.65-1.25,.36,.19,.47,.33,.97,.58,1.44,.93-1.82-1.37,.23,.46,.46,.67,1.3,1.21,.27,.32,0-.09,.4,.58,.78,1.17,1.14,1.78,.35,.61,.65,1.23,.97,1.85-.18-.34-.65-1.94-.08-.17,.35,1.12,.65,2.24,.98,3.36,.21,.71,.26,2.43,.06-.26,.07,.99,.11,1.97,.12,2.96,.03,1.91-.02,.72,.07,.18-.13,.8-.32,1.58-.55,2.35-.12,.42-.8,2.41-.13,.75-.24,.59-.56,1.19-.86,1.75-.31,.58-.64,1.14-.99,1.7,.12-.19-1.71,2.45-.91,1.39,.8-1.06-1.26,1.43-1.11,1.26-.67,.74-1.38,1.44-2.11,2.12-3.48,3.23-7.17,5.22-11.91,6.3-.67,.15-1.36,.25-2.03,.4,2.06-.47,.81-.08,.24-.05-1.41,.08-2.79,.18-4.2,.15-1.13-.02-2.26-.12-3.39-.22,2.27,.22,.34,.05-.25-.08-.84-.19-1.68-.35-2.52-.56-1.26-.33-2.48-.76-3.72-1.16-1.81-.57-.37-.12,.02,.05-.66-.3-1.32-.61-1.97-.95-1.17-.6-2.31-1.26-3.41-1.98-.49-.32-.97-.66-1.45-1,1.74,1.23-.34-.3-.69-.62-1.13-1-2.1-2.1-3.15-3.17-1.29-1.33-.4-.42-.11-.05-.46-.61-.89-1.25-1.31-1.89-.77-1.19-1.42-2.42-2.07-3.67-.91-1.76-.28-.61-.11-.18-.34-.88-.65-1.78-.92-2.68-.22-.75-.42-1.51-.59-2.27-.07-.32-.54-3.06-.39-1.87,.2,1.53-.09-1.5-.09-1.43-.05-.93-.07-1.87-.05-2.8,.01-.62,.06-1.24,.09-1.86,.12-2.93-.45,1.89,.09-.99,.29-1.54,.63-3.06,1.08-4.56,.82-2.7,1.52-4.35,3.85-7.82,.36-.53,.72-1.07,1.12-1.57-1.15,1.47,.64-.65,.89-.93,1.35-1.47,2.82-2.8,4.36-4.06,4.27-3.5,3.63-10.82,0-14.44-4.23-4.23-10.16-3.5-14.44,0-13.82,11.31-20.03,29.93-16.32,47.31,3.56,16.66,17.18,29.81,33.43,34.19,16.39,4.42,33.94-.21,45.78-12.47,6.56-6.79,11.3-15.9,11.14-25.54-.14-8.35-3.53-16.78-9.17-22.91-6.84-7.43-17.84-9.98-27.31-6.61-10.32,3.67-17.32,11.97-20.95,22.1-1.8,5.04,2.03,11.4,7.13,12.56,5.74,1.31,10.63-1.74,12.56-7.13h0Z"/>
          <path class="cls-3" d="M1337.88,505.8c6.44-.01,13.34-.07,19.43-2.42,6.45-2.5,12.57-6.55,15.7-12.96,1.22-2.49,1.79-5.12,1.03-7.87-.65-2.37-2.48-4.94-4.69-6.1-2.37-1.25-5.24-1.88-7.87-1.03-2.42,.78-4.94,2.32-6.1,4.69-.46,.94-1.01,1.81-1.65,2.65,.53-.69,1.06-1.38,1.6-2.07-.83,1.02-1.75,1.92-2.78,2.73,.69-.53,1.38-1.06,2.07-1.6-1.38,1.04-2.86,1.89-4.44,2.58,.81-.34,1.63-.69,2.44-1.03-2.24,.94-4.58,1.5-6.98,1.86,.91-.12,1.81-.24,2.72-.36-3.47,.47-6.97,.5-10.47,.5-5.34,.01-10.46,4.69-10.21,10.21,.25,5.52,4.49,10.22,10.21,10.21h0Z"/>
          <path class="cls-3" d="M1357.27,491.83c6.42,7.81,16.41,12.46,26.39,13.12,14.03,.92,27.31-7.38,34.33-19.2,2.73-4.6,1.19-11.41-3.66-13.97-4.92-2.6-11.06-1.24-13.97,3.66-.35,.59-.7,1.16-1.08,1.73-.23,.35-1.51,1.66-.39,.59,1.18-1.13-.47,.49-.7,.75-.37,.41-.75,.8-1.15,1.19-.47,.46-.97,.89-1.46,1.33-1.37,1.23,1.31-.87,.27-.19-1,.65-1.96,1.32-3.01,1.89-.49,.27-1.29,.52-1.73,.86,.66-.52,1.9-.74,.36-.19-1.11,.4-2.24,.72-3.39,.97-.4,.09-2.28,.28-.54,.14,1.84-.14-.52,.02-.89,.03-1.01,.05-2.77-.39-3.68-.08,.69-.23,2.15,.37,.36,.03-.53-.1-1.07-.22-1.59-.36-.61-.16-1.21-.34-1.81-.54-1.17-.4-1.49-1.1,.2,.15-1.52-1.13-3.51-1.86-5.11-2.96-1.35-.92,1.64,1.38,.78,.61-.27-.24-.55-.45-.82-.69-.52-.45-1.02-.91-1.5-1.4-.62-.61-1.2-1.26-1.76-1.93-3.41-4.14-10.96-3.79-14.44,0-4.04,4.4-3.63,10.02,0,14.44h0Z"/>
          <g>
            <path class="cls-1" d="M1408.81,208.71c16.96,2.67,25.44,4,32.73,7.4,11.35,5.3,16.66,9.81,21.44,7.66,3.91-1.76,7.42-8.21,5.96-28.47,5.59,2.02,13.94,4.39,24.25,4.83,7.91,.34,26.63,1.05,43.4-11.47,5.18-3.87,17.19-12.82,20.15-29.06,3.91-21.46-11.32-37.26-12.63-38.57-11.81-11.86-26.43-13.1-30.23-13.31,18.02-17.7,23.57-41.78,14.63-58.53-7.68-14.38-23.74-19.06-29.19-20.65-4.22-1.23-25.06-6.76-44.6,5.84-12.11,7.81-17.65,18.67-19.74,23.46-18.37-34-49.52-51.89-74-45.77-9.17,2.29-20.68,8.79-28.47,20.41-12.21,18.22-7.65,37.77-6.84,41-17.22-11.71-39.49-13.12-57.91-3.64-20.61,10.61-29.97,31.55-30.65,49.2-.29,7.65-.77,19.85,7.03,29.33,10.25,12.47,34.45,19.77,41.6,28.94,2.16,2.77,3.38,5.87,3.38,5.87,1.08,2.75,1.34,5,1.45,5.83,.2,1.56,2,15.23,7.71,19.62,4.47,3.44,11.1,1.14,17.76-.76,4.56-1.3,16.87-1.6,41.51-2.22,26.84-.67,46.94,2.38,51.25,3.06Z"/>
            <path class="cls-3" d="M1290.61,124.1c.77,8.38,4.59,15.76,10.18,21.97,5.62,6.24,12.83,10.86,19.84,15.36,2.25,1.45,5.74,.54,6.99-1.83,1.34-2.53,.57-5.44-1.83-6.99-6.26-4.02-12-7.64-17.05-12.98-2.26-2.39-3.65-4.22-5.31-7.33-.21-.39-.41-.78-.6-1.18-.05-.11-.56-1.25-.39-.84,.15,.36-.33-.88-.32-.86-.12-.33-.23-.66-.34-1-.27-.84-.49-1.68-.67-2.54-.07-.34-.14-.69-.2-1.03-.29-1.65,.08,.94-.08-.74-.24-2.65-2.17-5.24-5.11-5.11-2.56,.11-5.37,2.26-5.11,5.11h0Z"/>
            <path class="cls-3" d="M1383.01,81.27c1.75,24.49,.71,49.15-3.44,73.36-1.1,6.43,8.74,9.19,9.85,2.72,4.31-25.13,5.62-50.64,3.8-76.07-.46-6.52-10.68-6.57-10.21,0h0Z"/>
            <path class="cls-3" d="M1457.15,97.22c-5.11,23.39-16.6,47.13-37.25,60.49-5.5,3.56-.38,12.4,5.15,8.82,22.87-14.81,36.25-40.54,41.94-66.59,1.4-6.41-8.44-9.14-9.85-2.72h0Z"/>
            <path class="cls-3" d="M1325.37,191.71c46.61-6.49,94.76,.61,137.55,20.16,5.94,2.71,11.13-6.09,5.15-8.82-45.53-20.81-95.84-28.1-145.42-21.19-6.48,.9-3.72,10.75,2.72,9.85h0Z"/>
            <path class="cls-3" d="M1292.83,170.1c-13.34-5.17-28.85-11.03-37.53-23.1-7.9-10.99-9.71-25.74-6.33-38.29,3.64-13.49,12.67-24.9,25.45-30.81,15.15-7,32.41-4.64,46.1,4.38,11.01,7.25,21.25-10.43,10.31-17.64-29.43-19.39-69.32-12.55-90.44,15.58-18.03,24.02-18.08,59.54,1.55,82.64,11.62,13.66,29.18,20.61,45.45,26.92,5.14,2,11.21-2.2,12.56-7.13,1.59-5.78-1.97-10.56-7.13-12.56h0Z"/>
            <path class="cls-3" d="M1337.81,71.69c-2.53-12.73-2.64-27.54,6.31-37.93,6.79-7.89,17.3-12.62,27.62-13.26,24.78-1.54,45.08,18.03,53.39,40.07,1.94,5.16,6.9,8.69,12.56,7.13,4.95-1.36,9.09-7.38,7.13-12.56-9.27-24.6-28.37-46.81-54.72-53.34-24.32-6.02-52.46,3.34-66.05,24.94-9.47,15.04-9.28,33.55-5.94,50.39,1.07,5.41,7.52,8.52,12.56,7.13,5.65-1.55,8.21-7.13,7.13-12.56h0Z"/>
            <path class="cls-3" d="M1445.41,62.16c7.61-21.24,30.21-33.17,51.63-26.24,10.11,3.27,19.14,10.61,23.64,20.32,4.38,9.45,3.16,20.26-1.29,28.66-3.38,6.38-6.6,10.71-12.72,15.59-4.32,3.44-3.59,10.85,0,14.44,4.26,4.26,10.12,3.45,14.44,0,18.72-14.93,28.3-42.1,19.08-64.72-12.52-30.74-49.87-44.74-79.93-31.74-16.6,7.18-28.52,21.42-34.55,38.25-1.86,5.19,2.1,11.18,7.13,12.56,5.66,1.56,10.7-1.92,12.56-7.13h0Z"/>
            <path class="cls-3" d="M1513.89,117.93c.77,.03,1.53,.11,2.29,.15,2.17,.12-.81-.21-.14-.05,.8,.2,1.66,.26,2.47,.42,1.98,.39,3.94,.88,5.87,1.49,3.13,.98,3.28,1.07,5.63,2.3,9.71,5.1,16.16,14.63,15.95,26.42-.2,10.84-5.07,21.73-12.99,29.14-7.38,6.9-16.18,9.58-26.13,11.22-.41,.07-3.65,.54-2.01,.31,1.54-.21,.14-.02-.25,.03-.96,.11-1.92,.23-2.89,.31-4.25,.38-8.53,.37-12.78,0-5.89-.53-11.71-2.18-17.24-4.24-5.17-1.92-11.19,2.15-12.56,7.13-1.57,5.72,1.94,10.63,7.13,12.56,25.25,9.39,58.07,6.61,79.19-11.13,12.26-10.3,19.3-26.15,20.76-41.89,1.63-17.43-6.45-34.11-20.56-44.22-9.04-6.48-20.64-9.99-31.73-10.4-13.15-.48-13.13,19.95,0,20.43h0Z"/>
            <path class="cls-3" d="M1458.73,195.29c-.72,9.42-2.19,18.68-4.33,27.88,5-2.03,10-4.07,15-6.1-31.01-16.17-65.87-22.09-100.58-22.32-18.28-.12-36.53,1.26-54.71,3.09-1.45,.15-12.65,.53-12.95,1.22,2.98,2.34,3.78,2.51,2.39,.49h.02c-.11-1.67-1.14-3.67-1.51-5.34-1.05-4.69-1.49-9.46-1.74-14.26-.67-13.08-21.1-13.16-20.43,0,.64,12.43,1.49,33.69,15.67,38.52,4.2,1.43,8.3,.87,12.6,.41,5.29-.56,10.58-1.09,15.88-1.57,9.6-.86,19.22-1.54,28.85-1.89,36.25-1.31,73.58,2.27,106.2,19.28,5.6,2.92,13.44,.6,15-6.1,2.55-10.95,4.2-22.1,5.06-33.31,.42-5.51-5-10.21-10.21-10.21-5.88,0-9.79,4.69-10.21,10.21h0Z"/>
          </g>
          <path class="cls-3" d="M1572.66,391.62c9.96,23.29,15.32,50.62,10.63,75.8-4.84,26.03-21.06,47.27-42.33,62.52-17.24,12.36-36.37,20.42-56.27,27.35-14.68,5.11-29.57,9.57-44.72,13.03-49.66,11.33-101.93,11.87-151.08-2.32-20.99-6.06-40.79-15-60.03-25.26-15.48-8.26-31.36-18-44.49-28.61-17.37-14.05-32.86-30.53-41.75-51.17-10.22-23.72-8.29-51.08,2.82-74.91,2.33-5,1.4-11.01-3.66-13.97-4.42-2.59-11.63-1.36-13.97,3.66-11.79,25.29-16.28,53.52-8.37,80.7,6.43,22.12,20,41.54,36.32,57.54,28.84,28.29,66.73,49.17,104.19,63.76,54.64,21.29,114.68,23.92,171.94,13.1,18.03-3.41,35.76-8.21,53.14-14.09,19.89-6.73,39.6-14.12,57.49-25.3,24.75-15.47,46.35-37.31,56.34-65.18,9.88-27.56,7.56-58.9-.9-86.5-2.14-6.97-4.8-13.74-7.66-20.44-2.17-5.07-9.64-6.2-13.97-3.66-5.25,3.07-5.84,8.88-3.66,13.97h0Z"/>
          <path class="cls-3" d="M1147.37,380.41c-4.7-36.44,.59-73.86,16.17-107.05,2.34-4.99,1.4-11.01-3.66-13.97-4.43-2.59-11.62-1.35-13.97,3.66-17.14,36.54-24.13,77.24-18.96,117.36,.7,5.47,4.19,10.21,10.21,10.21,4.97,0,10.92-4.7,10.21-10.21h0Z"/>
          <path class="cls-3" d="M1591.33,389.18c9.38-37.13,9.4-76.07,.1-113.21-3.19-12.74-22.9-7.34-19.7,5.43,8.42,33.6,8.39,68.76-.1,102.35-3.22,12.75,16.47,18.19,19.7,5.43h0Z"/>
        </g>
      </g>
      <path class="cls-3" d="M1655.32,594.92c-5,2.88,1.34,.14-1.83,.77-.34,.08-.67,.16-1.01,.24,1.96-.34,1.68-.44-.84-.32,3.96,1.57-5.35-2.21-1.86-.73-1.42-.6-2.84-1.98-3.68-3.06,1.48,1.9-2.15-3.7-1.86-3.2-1.77-3.04-.29,.71-1.16-2.97-1.27-5.35-1.92-8.63-1.16-13.39-.4,2.52,1.2-4.39,1.03-3.74,.08-.3,1.42-3.52,.35-1.23,1.83-3.92,1.54-3.38,4.43-6.15-2.71,2.6,6.24-3.18,2.5-1.7,2.38-.94,4.97-1.59,7.5-1.98-3.57,.54-.22,.11,.45,.15,1.64,.09,3.3,0,4.95,.1,3.47,.2-4.29-1.33,1.47,.24,1.92,.53,3.83,1,5.74,1.6,.66,.21,3.37,1.65,.6,.23,1.31,.67,2.61,1.35,3.87,2.11,3.71,2.22,2.87,1.57,5.56,3.98,5.61,5.01,8.2,8.23,11.7,13.67,1.81,2.81,3.48,5.71,5.05,8.66,.89,1.68,1.73,3.39,2.57,5.1-.09-.19,1.55,3.38,.85,1.75,1.42,3.33,2.55,6.83,3.53,10.3,.55,1.93,1.05,3.88,1.46,5.85,.12,.56,.9,6.33,.69,4.02,.29,3.12,.29,6.27,.12,9.4-.13,2.32-.44,3.56-1.61,7.17-1.48,4.57-3.72,7.7-7.53,11.46-.98,.97-2,1.87-3.02,2.79-4.73,4.29,1.45-.87-1.61,1.26-2.58,1.79-5.26,3.44-8.03,4.93-6.55,3.54-8.38,4.15-15.87,6.39-12.39,3.72-25.92,5.62-36.52,3.64-8.15-1.53-12.92-3.08-19.19-7.1-.74-.48-3.98-2.98-1.3-.78-1.24-1.02-2.42-2.12-3.56-3.25-1.15-1.13-2.23-2.32-3.29-3.53,2.21,2.53-1-1.41-1.43-2.07-.7-1.08-1.36-2.18-1.98-3.3-.16-.29-2.65-5.74-1.2-2.06-1.16-2.94-1.95-5.98-2.61-9.06,.77,3.59,.03,.8,.01-.14-.04-1.86-.04-3.7-.02-5.56,.07-5.6-.66,2.19,.19-1,.22-.82,2.27-6.75,.67-3.13,4.43-10.05,2.94-21.86-7.3-27.85-8.65-5.06-23.4-2.81-27.85,7.3-17.71,40.21,6.29,82.81,45.87,97.47,37.13,13.75,87.69,1.71,116.1-25.46,33.94-32.46,23.41-84.87-1.83-119.27-12.24-16.68-28.98-31.37-49.96-35.17-20.42-3.7-43.25,.74-57.4,17.03-17.48,20.11-19.15,49.51-7.46,72.89,12.21,24.43,43.09,35.8,67.25,21.85,22.69-13.09,2.21-48.29-20.55-35.16h0Z"/>
      <path class="cls-3" d="M557.76,883.73c23.68,13.67,52.12,4.69,67.6-16.65,13.81-19.04,15.74-46.18,6.7-67.55-9.48-22.41-30.51-35.18-54.39-36.49-22.14-1.22-43.5,9.26-58.83,24.71-30.73,30.98-51.86,88.61-24.98,128.01,25.06,36.73,77.37,51.29,119.63,44.58,50.07-7.96,85.6-59.64,64.34-107.91-4.73-10.74-20.41-13.23-29.71-7.79-11.07,6.47-12.54,18.94-7.79,29.71-2.07-4.71,1.49,8.36,.75,2.44,.33,2.63,.19,5.26,.14,7.9-.08,4.23-.19,1.11,.02,.15-.35,1.64-.71,3.26-1.17,4.88-.47,1.62-.98,3.23-1.61,4.79,1.4-3.48-.82,1.37-1.28,2.2-1.32,2.38-2.77,4.76-4.46,6.9,2.29-2.9-.63,.47-1.24,1.12-.94,1-1.92,1.96-2.92,2.9-.69,.64-4.15,3.35-1.15,1.16-1.09,.8-2.25,1.56-3.4,2.27-1.29,.79-2.62,1.48-3.94,2.21-3.13,1.74-.67,.62-3.84,1.7-3.89,1.31-7.81,2.36-11.84,3.11-2.93,.55-2,.38-6.48,.56-8.85,.37-14.03-.08-21.56-1.65-6.72-1.41-13.3-3.37-19.73-5.77-3.9-1.45,4.41,2.19-2.07-.83-1.36-.63-2.71-1.28-4.05-1.96-3.34-1.71-6.47-3.69-9.64-5.67-5.78-3.61,1.23,1.24-1.79-1.27-1.13-.94-2.21-1.91-3.27-2.93-1.32-1.26-2.56-2.58-3.79-3.93-.37-.4-2.3-3.24-.62-.76-1.46-2.17-3.6-5.86-4.19-7.36,.8,2.04-1.56-5.55-1.24-4.53-1.04-3.39-.48-.28-.69-4.05-.72-12.81,3.21-26.13,9.29-37.8,1.65-3.16,3.41-6.26,5.31-9.28,1.06-1.68,2.17-3.32,3.29-4.95,.08-.11,2.44-3.19,.9-1.27,4.44-5.55,9.79-10.46,13.85-12.98,1.67-1.03,3.37-1.99,5.12-2.87-.83,.41-3.54,1.1,.64-.25,1.35-.43,2.68-.87,4.06-1.22-.31,.08,6.4-1.18,3.36-.78-3.04,.39,3.76-.1,3.44-.1,1.41-.01,2.8,.07,4.21,.14-3.62-.19-.45-.11,.43,.11,2.02,.51,4.01,.98,5.96,1.72-4.03-1.54,5.66,4.66,2.67,1.82,2.73,2.6,3.5,3.72,4.54,6.11-1.02-2.34,1.43,4.77,1.18,4.02,.17,.76,.34,1.53,.51,2.29-.11-1.51-.1-1.48,.02,.06,.19,1.97,.07,3.92,.15,5.89,.16,4.03,.64-.71-.32,3.38-.97,4.09-1.36,5.82-2.36,7.57-.73,1.28-1.44,2.65-2.32,3.84,1.91-2.61-1.91,1.87-2.48,2.32,2.2-1.76-.74,.36-1.11,.51,3.01-1.26-2.54,.83-3.29,.96,4.18-.74-2.74,.79-.26,.01,1.39,.32,.9,.19-1.48-.37,1.72,.92,1.42,.73-.88-.56-24.25-14-46.15,23.52-21.92,37.5h0Z"/>
    </g>
  </g>
</svg>