<?xml version="1.0" encoding="UTF-8"?>
<svg version="1.1" xmlns="http://www.w3.org/2000/svg" width="1740" height="370">
<path d="M0 0 C17.92557882 -0.04694169 35.85114146 -0.08209659 53.77676868 -0.10362434 C62.10193258 -0.11389045 70.42705805 -0.12786031 78.75219727 -0.15087891 C86.01736676 -0.17095698 93.2825084 -0.18375023 100.54770488 -0.18817699 C104.38640496 -0.19076025 108.22502543 -0.19673175 112.06369972 -0.21146011 C151.41892148 -0.35655444 151.41892148 -0.35655444 169.625 4.125 C170.48834961 4.33527832 171.35169922 4.54555664 172.24121094 4.76220703 C184.80270423 8.02837995 196.21795342 13.40162572 206 22 C206.86625 22.598125 207.7325 23.19625 208.625 23.8125 C218.21337814 32.64390092 224.20964702 45.9000749 225.22094727 58.82348633 C226.12446002 82.37044834 222.07812177 100.92769259 206 119 C205.39671875 119.68578125 204.7934375 120.3715625 204.171875 121.078125 C190.87556929 135.2683 173.18720306 142.4019531 155 148 C162.2729867 158.27267476 169.70331481 168.42341433 177.18554688 178.54443359 C179.54662881 181.73977295 181.90347526 184.93821785 184.25927734 188.13745117 C185.41990667 189.71268399 186.58169144 191.28706613 187.74462891 192.8605957 C190.71112654 196.87684725 193.65732847 200.90566918 196.5703125 204.9609375 C203.50085323 214.57028743 210.61591306 223.61591306 219 232 C219.74378906 232.74378906 220.48757813 233.48757813 221.25390625 234.25390625 C230.45767603 242.91528076 241.85152917 249.19824477 253 255 C253 255.99 253 256.98 253 258 C230.89 258 208.78 258 186 258 C185.67 255.69 185.34 253.38 185 251 C183.97016886 248.8204791 183.97016886 248.8204791 182.515625 247.01171875 C181.99911377 246.3146582 181.48260254 245.61759766 180.95043945 244.89941406 C180.38929443 244.16948242 179.82814941 243.43955078 179.25 242.6875 C178.06084684 241.09270963 176.87205504 239.49764977 175.68359375 237.90234375 C174.76682861 236.68587158 174.76682861 236.68587158 173.83154297 235.44482422 C170.93941707 231.58428719 168.12801417 227.66656028 165.3125 223.75 C164.2254085 222.24468472 163.13817163 220.7394744 162.05078125 219.234375 C158.95516832 214.94235732 155.87900709 210.63668986 152.80786133 206.32714844 C148.83677232 200.75979824 144.82863585 195.21939493 140.82080078 189.6784668 C137.08852657 184.51565246 133.37823826 179.3378681 129.68994141 174.14355469 C127.47123639 171.02808133 125.2208748 167.93955658 122.9375 164.87109375 C122.42719238 164.18362061 121.91688477 163.49614746 121.39111328 162.7878418 C120.39887619 161.45415372 119.40260545 160.12345482 118.40185547 158.79614258 C115 154.22108469 115 154.22108469 115 152 C98.83 152 82.66 152 66 152 C66.06168817 167.49432148 66.06168817 167.49432148 66.16015625 182.98828125 C66.20848706 189.30875934 66.25253327 195.62906193 66.27099609 201.94970703 C66.28615316 207.04626601 66.32058214 212.14236553 66.36830902 217.23871994 C66.38313256 219.18189879 66.39104157 221.12514324 66.39188385 223.06837845 C66.39425232 225.79298998 66.421322 228.51633052 66.45410156 231.24072266 C66.4490712 232.04201599 66.44404083 232.84330933 66.43885803 233.66888428 C66.53594188 238.89328157 67.60807856 241.81697081 71 246 C77.09128665 251.81105797 86.07986254 253.15403046 94 255 C94 255.99 94 256.98 94 258 C62.98 258 31.96 258 0 258 C0 257.01 0 256.02 0 255 C1.485 254.65388672 1.485 254.65388672 3 254.30078125 C11.3374579 252.27446237 18.86824148 250.39832359 24.9375 243.9375 C27.47103428 239.31752573 27.14579737 234.43107582 27.14044189 229.28996277 C27.14341302 228.40126962 27.14638414 227.51257646 27.1494453 226.59695321 C27.15813095 223.61304721 27.15964043 220.62918132 27.16113281 217.64526367 C27.16576105 215.50827448 27.17078572 213.37128611 27.17617798 211.23429871 C27.18930271 205.42433381 27.19574699 199.61438047 27.20018864 193.80440307 C27.203119 190.17539486 27.20722373 186.54638981 27.21169281 182.91738319 C27.22536741 171.56536981 27.23503447 160.21336366 27.2388947 148.86134261 C27.24337669 135.75259974 27.26093133 122.64396107 27.2898953 109.53524989 C27.31150178 99.4052052 27.32159842 89.27518984 27.32293582 79.14512235 C27.32398451 73.09356101 27.32990606 67.04209763 27.34775543 60.99056053 C27.36421836 55.29835317 27.36640019 49.60631759 27.35761642 43.91409492 C27.35684512 41.82554032 27.36120099 39.73697654 27.37107468 37.64844513 C27.38376954 34.79575448 27.37793062 31.94367456 27.36749268 29.09098816 C27.37554908 28.2658798 27.38360548 27.44077144 27.39190602 26.5906598 C27.33920342 20.42574229 26.29765742 15.5130628 22 10.8125 C15.27684518 6.75059396 7.61310142 4.72372108 0 3 C0 2.01 0 1.02 0 0 Z M66 8 C66 50.57 66 93.14 66 137 C78.29221546 140.35155642 78.29221546 140.35155642 90.6875 142.6875 C91.49582275 142.80778564 92.30414551 142.92807129 93.13696289 143.05200195 C118.41349877 146.71999411 148.74455958 148.22884384 171.015625 133.68359375 C181.63484591 125.59758393 185.54833405 111.62538825 187.28125 98.94140625 C190.1747587 75.21463492 188.24676623 49.54138395 173.4296875 29.94140625 C160.78818636 14.63746677 141.83317489 10.35414686 123 8 C104.19 8 85.38 8 66 8 Z " fill="#BB8E5A" transform="translate(1208,102)"/>
<path d="M0 0 C65.01 0 130.02 0 197 0 C209 58 209 58 209 60 C206.4198372 59.62786784 205.23803369 59.2510862 203.41943359 57.33276367 C202.91750488 56.61838135 202.41557617 55.90399902 201.8984375 55.16796875 C201.04741455 53.97856689 201.04741455 53.97856689 200.17919922 52.76513672 C199.58381348 51.9145166 198.98842773 51.06389648 198.375 50.1875 C197.11697331 48.44228513 195.85655222 46.69879376 194.59375 44.95703125 C193.97886719 44.1057666 193.36398437 43.25450195 192.73046875 42.37744141 C179.43208054 24.10716709 162.37543717 12.12516666 139.82592773 8.48803711 C132.96393457 7.65144173 126.02843217 7.7615292 119.125 7.68359375 C117.76301532 7.66515698 116.40103602 7.64631861 115.0390625 7.6270752 C110.02610517 7.55903174 105.01304529 7.49872122 100 7.4375 C83.17 7.2209375 83.17 7.2209375 66 7 C66 46.27 66 85.54 66 126 C113.38620875 129.64060088 113.38620875 129.64060088 160.5 113.65625 C166.9134721 106.57470789 170.65591767 97.83022663 174 89 C174.66 89 175.32 89 176 89 C176 115.4 176 141.8 176 169 C175.34 169 174.68 169 174 169 C173.57589844 167.94941406 173.15179687 166.89882813 172.71484375 165.81640625 C167.9375747 154.26009605 162.94644612 143.53451176 151 138 C124.27867728 129.0546645 92.76239625 132.48658902 66 132 C66 171.27 66 210.54 66 251 C77.55 250.87625 89.1 250.7525 101 250.625 C104.61324219 250.59100098 108.22648437 250.55700195 111.94921875 250.52197266 C115.25941451 250.48195248 115.25941451 250.48195248 118.56958008 250.43954468 C120.0155075 250.42214771 121.4614798 250.40822126 122.9074707 250.39730835 C149.87360114 250.18486972 169.2953338 245.26826435 188.7824707 225.64233398 C200.46390172 213.47706625 209.67395084 198.98907374 219 185 C219.99 185.33 220.98 185.66 222 186 C218.64084103 202.12564546 214.45372157 218.04023563 210.30834961 233.97680664 C209.36734474 237.59722719 208.42993713 241.21857895 207.4921875 244.83984375 C205.66489205 251.89412294 203.83374136 258.94739332 202 266 C200.1863523 265.02296079 198.37411183 264.04330895 196.5625 263.0625 C195.55316406 262.51722656 194.54382812 261.97195313 193.50390625 261.41015625 C191 260 191 260 190 259 C187.54669185 258.88991905 185.12092606 258.84504165 182.66661072 258.84178162 C181.88988134 258.83684364 181.11315197 258.83190566 180.31288534 258.82681805 C177.69028196 258.81136645 175.06770319 258.80306183 172.44506836 258.79467773 C170.57302125 258.78510522 168.70097632 258.77509552 166.82893372 258.76467896 C161.72999595 258.73755589 156.63104886 258.71658653 151.5320785 258.69667697 C146.20956504 258.67486291 140.88708056 258.64745189 135.56459045 258.62062073 C125.4781721 258.57063171 115.39173771 258.525716 105.3052879 258.48259836 C93.82541563 258.43327893 82.34557243 258.37834123 70.86572826 258.32291877 C47.24384595 258.20900345 23.62193576 258.10218531 0 258 C0.29052734 256.1184082 0.29052734 256.1184082 1 254 C3.53785467 252.5654318 5.97122571 251.35976264 8.625 250.1875 C17.30331341 246.08693714 22.9251643 242.60708771 26.35111928 233.25862515 C27.42241411 229.52966024 27.41350311 225.93159532 27.38095093 222.07469177 C27.3856309 221.21116579 27.39031087 220.3476398 27.39513266 219.45794636 C27.40703709 216.58305175 27.39764333 213.70863784 27.38818359 210.83374023 C27.39225128 208.76512373 27.39759427 206.6965094 27.40411377 204.62789917 C27.41776874 199.02265538 27.41249639 193.41757759 27.40297651 187.81233096 C27.39537156 181.9419452 27.40242776 176.07157347 27.40713501 170.20118713 C27.41258968 160.3447922 27.40540802 150.48846476 27.39111328 140.63208008 C27.37478284 129.2405788 27.38007936 117.84923858 27.3965925 106.4577412 C27.41021013 96.67155023 27.41212579 86.88540771 27.40427649 77.09921032 C27.39960211 71.25675603 27.39896883 65.41437743 27.40888596 59.57192802 C27.41755748 54.07991247 27.41153013 48.58810445 27.39420319 43.0961113 C27.39023956 41.08173911 27.39137025 39.06734944 27.39799118 37.05298424 C27.40620144 34.30119595 27.3958913 31.55007075 27.38095093 28.79832458 C27.38764309 28.00318134 27.39433526 27.2080381 27.40123022 26.38879961 C27.33737218 20.31581917 26.22798854 15.43686246 22 10.8125 C15.27684518 6.75059396 7.61310142 4.72372108 0 3 C0 2.01 0 1.02 0 0 Z " fill="#BB8E5A" transform="translate(1513,102)"/>
<path d="M0 0 C65.01 0 130.02 0 197 0 C209 58 209 58 209 60 C206.4198372 59.62786784 205.23803369 59.2510862 203.41943359 57.33276367 C202.91750488 56.61838135 202.41557617 55.90399902 201.8984375 55.16796875 C201.04741455 53.97856689 201.04741455 53.97856689 200.17919922 52.76513672 C199.58381348 51.9145166 198.98842773 51.06389648 198.375 50.1875 C197.11697331 48.44228513 195.85655222 46.69879376 194.59375 44.95703125 C193.97886719 44.1057666 193.36398437 43.25450195 192.73046875 42.37744141 C179.43208054 24.10716709 162.37543717 12.12516666 139.82592773 8.48803711 C132.96393457 7.65144173 126.02843217 7.7615292 119.125 7.68359375 C117.76301532 7.66515698 116.40103602 7.64631861 115.0390625 7.6270752 C110.02610517 7.55903174 105.01304529 7.49872122 100 7.4375 C83.17 7.2209375 83.17 7.2209375 66 7 C66 46.27 66 85.54 66 126 C113.38620875 129.64060088 113.38620875 129.64060088 160.5 113.65625 C166.9134721 106.57470789 170.65591767 97.83022663 174 89 C174.66 89 175.32 89 176 89 C176 115.4 176 141.8 176 169 C175.34 169 174.68 169 174 169 C173.57589844 167.94941406 173.15179688 166.89882813 172.71484375 165.81640625 C167.9375747 154.26009605 162.94644612 143.53451176 151 138 C124.27867728 129.0546645 92.76239625 132.48658902 66 132 C66 171.27 66 210.54 66 251 C77.55 250.87625 89.1 250.7525 101 250.625 C104.61324219 250.59100098 108.22648437 250.55700195 111.94921875 250.52197266 C115.25941451 250.48195248 115.25941451 250.48195248 118.56958008 250.43954468 C120.0155075 250.42214771 121.4614798 250.40822126 122.9074707 250.39730835 C149.87360114 250.18486972 169.2953338 245.26826435 188.7824707 225.64233398 C200.46390172 213.47706625 209.67395084 198.98907374 219 185 C219.99 185.33 220.98 185.66 222 186 C218.64084103 202.12564546 214.45372157 218.04023563 210.30834961 233.97680664 C209.36734474 237.59722719 208.42993713 241.21857895 207.4921875 244.83984375 C205.66489205 251.89412294 203.83374136 258.94739332 202 266 C200.1863523 265.02296079 198.37411183 264.04330895 196.5625 263.0625 C195.55316406 262.51722656 194.54382813 261.97195313 193.50390625 261.41015625 C191 260 191 260 190 259 C187.54669185 258.88991905 185.12092606 258.84504165 182.66661072 258.84178162 C181.88988134 258.83684364 181.11315197 258.83190566 180.31288534 258.82681805 C177.69028196 258.81136645 175.06770319 258.80306183 172.44506836 258.79467773 C170.57302125 258.78510522 168.70097632 258.77509552 166.82893372 258.76467896 C161.72999595 258.73755589 156.63104886 258.71658653 151.5320785 258.69667697 C146.20956504 258.67486291 140.88708056 258.64745189 135.56459045 258.62062073 C125.4781721 258.57063171 115.39173771 258.525716 105.3052879 258.48259836 C93.82541563 258.43327893 82.34557243 258.37834123 70.86572826 258.32291877 C47.24384595 258.20900345 23.62193576 258.10218531 0 258 C0.29052734 256.1184082 0.29052734 256.1184082 1 254 C3.53785467 252.5654318 5.97122571 251.35976264 8.625 250.1875 C17.30331341 246.08693714 22.9251643 242.60708771 26.35111928 233.25862515 C27.42241411 229.52966024 27.41350311 225.93159532 27.38095093 222.07469177 C27.3856309 221.21116579 27.39031087 220.3476398 27.39513266 219.45794636 C27.40703709 216.58305175 27.39764333 213.70863784 27.38818359 210.83374023 C27.39225128 208.76512373 27.39759427 206.6965094 27.40411377 204.62789917 C27.41776874 199.02265538 27.41249639 193.41757759 27.40297651 187.81233096 C27.39537156 181.9419452 27.40242776 176.07157347 27.40713501 170.20118713 C27.41258968 160.3447922 27.40540802 150.48846476 27.39111328 140.63208008 C27.37478284 129.2405788 27.38007936 117.84923858 27.3965925 106.4577412 C27.41021013 96.67155023 27.41212579 86.88540771 27.40427649 77.09921032 C27.39960211 71.25675603 27.39896883 65.41437743 27.40888596 59.57192802 C27.41755748 54.07991247 27.41153013 48.58810445 27.39420319 43.0961113 C27.39023956 41.08173911 27.39137025 39.06734944 27.39799118 37.05298424 C27.40620144 34.30119595 27.3958913 31.55007075 27.38095093 28.79832458 C27.38764309 28.00318134 27.39433526 27.2080381 27.40123022 26.38879961 C27.33737218 20.31581917 26.22798854 15.43686246 22 10.8125 C15.27684518 6.75059396 7.61310142 4.72372108 0 3 C0 2.01 0 1.02 0 0 Z " fill="#BB8E5A" transform="translate(338,102)"/>
<path d="M0 0 C31.02 0 62.04 0 94 0 C94 0.99 94 1.98 94 3 C92.77023437 3.31453125 91.54046875 3.6290625 90.2734375 3.953125 C88.64046957 4.38482917 87.00766558 4.81715378 85.375 5.25 C84.56675781 5.45496094 83.75851562 5.65992187 82.92578125 5.87109375 C76.91777912 7.48299676 71.73484399 9.1204528 68.36121178 14.72011089 C66.86870853 18.31635156 66.62285644 20.80259424 66.61904907 24.68135071 C66.6143691 25.32785102 66.60968913 25.97435132 66.60486734 26.64044255 C66.59296095 28.79346659 66.60235739 30.94584889 66.61181641 33.09887695 C66.60774831 34.64851755 66.60240509 36.19815525 66.59588623 37.74778748 C66.58222258 41.95099139 66.58751065 46.15397406 66.59702349 50.35718179 C66.60463994 54.77215927 66.59756759 59.1871183 66.59286499 63.60209656 C66.58740692 71.02749001 66.59459382 78.45279397 66.60888672 85.87817383 C66.62514721 94.42358651 66.61997323 102.96878369 66.6034075 111.51419097 C66.58971472 118.87589411 66.58791272 126.23753299 66.59572351 133.59924477 C66.60036604 137.98440993 66.60112173 142.36947453 66.59111404 146.75463295 C66.58233502 150.89075515 66.58866176 155.02660539 66.60579681 159.16269875 C66.609707 160.66652478 66.60872379 162.17037439 66.60200882 163.67419052 C66.50601249 187.39269661 71.73780552 212.54569843 89 230 C105.15941863 243.83201418 124.49217294 250.6172865 145.73681641 249.21875 C164.53396606 247.40189497 183.99586735 236.62881177 196.3125 222.375 C213.399179 199.32785159 214.32077935 172.43515108 214.265625 144.8671875 C214.26697658 142.45793621 214.2689212 140.04868519 214.27142334 137.63943481 C214.2743548 132.6118101 214.27014339 127.58425694 214.26074219 122.55664062 C214.24938613 116.17970977 214.25589556 109.80294806 214.26788712 103.42602348 C214.27519129 98.45481138 214.27277838 93.48363788 214.26763153 88.51242447 C214.26631662 86.16459253 214.26786505 83.81675684 214.27259064 81.46892929 C215.8949469 45.07588572 215.8949469 45.07588572 202.14453125 12.99609375 C196.37856361 7.65393031 190.8868024 4.96180517 183 4 C183 3.01 183 2.02 183 1 C205.44 1 227.88 1 251 1 C251 1.99 251 2.98 251 4 C250.21496094 4.14695312 249.42992187 4.29390625 248.62109375 4.4453125 C240.75628214 6.12442565 235.55121065 8.05367088 230.796875 14.67578125 C223.14484971 28.00972085 223.85607559 46.09728057 223.84228516 60.94018555 C223.83720444 62.16162766 223.83212372 63.38306976 223.82688904 64.64152527 C223.81626336 67.27082897 223.8072405 69.9000825 223.80076981 72.52939415 C223.7899363 76.70663337 223.76965393 80.88379594 223.74765015 85.06098938 C223.6862335 96.93019072 223.63184529 108.79938464 223.59863281 120.66870117 C223.58015105 127.24551165 223.55105526 133.82219009 223.5106281 140.39890319 C223.48979579 143.86234474 223.47413521 147.32562182 223.47182083 150.78912926 C223.43014289 183.29191084 219.45072851 213.34033582 195.59375 237.4296875 C175.99830529 255.84692509 150.138422 263.69477401 123.6171875 263.18359375 C100.31787309 262.00101516 78.51010459 255.72609683 60 241 C59.17113281 240.34644531 58.34226562 239.69289063 57.48828125 239.01953125 C44.49952012 228.09942427 37.07575352 213.46359083 32.25 197.4375 C32.05116211 196.77782227 31.85232422 196.11814453 31.64746094 195.43847656 C28.44069314 184.14603354 27.70640516 173.01475768 27.72875977 161.33666992 C27.72436234 159.79947639 27.71905652 158.26228523 27.71292114 156.72509766 C27.70150422 153.43986243 27.69596794 150.15469099 27.69503975 146.86943626 C27.69308485 141.67032989 27.67495756 136.47135421 27.65428162 131.27229309 C27.60530102 118.36837357 27.57418492 105.46441914 27.55297852 92.5604248 C27.53644339 82.50980296 27.51362644 72.45929497 27.46995777 62.4087494 C27.44822648 57.24403779 27.44011909 52.07954278 27.44235051 46.9147886 C27.44068104 43.70221503 27.42661732 40.4897826 27.40913773 37.27725983 C27.40355114 35.79181001 27.40304108 34.30633078 27.40807533 32.82087898 C27.67113613 20.87268063 27.67113613 20.87268063 22 10.8125 C15.27684518 6.75059396 7.61310142 4.72372108 0 3 C0 2.01 0 1.02 0 0 Z " fill="#BB8E5A" transform="translate(895,102)"/>
<path d="M0 0 C30.69 0 61.38 0 93 0 C93 0.99 93 1.98 93 3 C91.96101563 3.15855469 90.92203125 3.31710938 89.8515625 3.48046875 C80.44817103 5.01309064 71.73083661 6.62397613 64.5 13.3125 C59.56381388 22.15650013 61.4318129 29.56616791 64 39 C64.81386138 41.61702283 65.71367611 44.19765735 66.63916016 46.77709961 C66.89887918 47.50596595 67.15859821 48.23483229 67.42618752 48.98578548 C70.65658137 57.9527875 74.21573582 66.78804481 77.7734375 75.62890625 C78.53050297 77.51780958 79.28724858 79.40684113 80.04370117 81.29598999 C82.06544353 86.3426865 84.09134604 91.38770309 86.11803436 96.43241501 C88.23183156 101.69617457 90.34161546 106.96154199 92.45166016 112.22680664 C95.48220647 119.78816756 98.51386653 127.34907993 101.54701805 134.90939617 C106.91429264 148.28798475 112.27255181 161.67016083 117.625 175.0546875 C118.00145283 175.99605246 118.37790565 176.93741741 118.76576614 177.90730858 C120.59685541 182.48631559 122.42777873 187.06538894 124.25860596 191.64450073 C127.31398169 199.28617107 130.37067958 206.92731253 133.42733765 214.56847 C134.84012057 218.10023158 136.25282287 221.6320254 137.66552734 225.16381836 C138.11938812 226.29847031 138.5732489 227.43312225 139.04086304 228.60215759 C139.35737823 229.39344559 139.67389343 230.18473358 140 231 C142.00954877 228.99045123 142.682118 227.73295073 143.77392578 225.16357422 C144.28962883 223.95996498 144.28962883 223.95996498 144.81575012 222.73204041 C145.18850571 221.84851395 145.56126129 220.96498749 145.9453125 220.0546875 C146.34284225 219.12334488 146.74037201 218.19200226 147.14994812 217.23243713 C148.47938015 214.11515209 149.80207473 210.99505133 151.125 207.875 C152.06678026 205.66392182 153.00909207 203.45306998 153.9519043 201.24243164 C155.94984612 196.55680851 157.94557569 191.87025176 159.93994141 187.18310547 C164.38140299 176.7504986 168.8530176 166.33082833 173.32302856 155.91043091 C175.32713115 151.2375586 177.32951478 146.56395048 179.33195496 141.8903656 C183.75035336 131.57825524 188.17212455 121.26760084 192.59784508 110.95863152 C198.74315107 96.64389753 204.87814416 82.32477981 211 68 C211.38621521 67.09695129 211.77243042 66.19390259 212.17034912 65.26348877 C214.1381898 60.66113164 216.10057665 56.05656615 218.05044556 51.44656372 C218.83811691 49.58707161 219.63120696 47.72987762 220.42456055 45.87280273 C224.104693 37.12915174 227.3109357 28.64589722 226 19 C221.89963027 10.79926055 215.25124397 7.89562288 207 5 C204.67576454 4.2664647 202.35931282 3.61547291 200 3 C200 2.01 200 1.02 200 0 C222.44 0 244.88 0 268 0 C268 0.99 268 1.98 268 3 C267.05898438 3.44730469 266.11796875 3.89460938 265.1484375 4.35546875 C263.89041125 4.96570537 262.63261071 5.57640747 261.375 6.1875 C260.75753906 6.47947266 260.14007813 6.77144531 259.50390625 7.07226562 C246.77199554 13.30420087 240.65862331 25.09140459 234.87109375 37.4375 C234.48792999 38.25139191 234.10476624 39.06528381 233.70999146 39.90383911 C229.16563155 49.65588989 224.98822433 59.56453231 220.80834961 69.47680664 C218.29569033 75.43383348 215.76888881 81.38485595 213.2421875 87.3359375 C212.8534634 88.2519511 212.8534634 88.2519511 212.45688629 89.18647003 C206.88048815 102.32408416 201.19899357 115.41519887 195.5 128.5 C188.08957531 145.52268812 180.74369814 162.57117558 173.47689819 179.65570068 C172.01784926 183.08307131 170.55492896 186.5087658 169.09106445 189.93408203 C165.20650999 199.03363369 161.32715801 208.13182393 157.61984253 217.30532837 C156.2925063 220.58715683 154.94646313 223.86114879 153.59887695 227.13470459 C152.72503237 229.28274004 151.88258238 231.44121787 151.04101562 233.60205078 C147.6289317 242.04967231 143.68951218 247.05202147 136 252 C134.95070312 252.7425 133.90140625 253.485 132.8203125 254.25 C131.93085938 254.8275 131.04140625 255.405 130.125 256 C125.36151263 259.10873227 125.36151263 259.10873227 120.640625 262.28125 C119.02414063 263.37953125 119.02414063 263.37953125 117.375 264.5 C116.39273438 265.1703125 115.41046875 265.840625 114.3984375 266.53125 C112 268 112 268 110 268 C110.052771 266.82614746 110.10554199 265.65229492 110.15991211 264.44287109 C110.14993582 260.13441207 109.12017103 256.91153191 107.44140625 252.9140625 C107.01183876 251.87171951 107.01183876 251.87171951 106.57359314 250.80831909 C105.93061343 249.25226191 105.28122423 247.6988424 104.62646484 246.14770508 C103.10311318 242.53577467 101.61366396 238.91008469 100.12081909 235.28546143 C99.25039054 233.17280641 98.37834676 231.06081634 97.50491333 228.94940186 C91.43216754 214.25309836 85.52852175 199.48837496 79.60217285 184.73260498 C77.48264565 179.45582135 75.36030962 174.1801704 73.23730469 168.90478516 C72.88088835 168.01911551 72.52447201 167.13344585 72.15725517 166.22093773 C71.43205232 164.41886303 70.70684721 162.61678923 69.98163986 160.81471634 C64.77652145 147.87958171 59.57462119 134.94315398 54.3752346 122.00571442 C51.42053167 114.65365789 48.46495786 107.30195183 45.50884438 99.95046234 C43.76323337 95.60914188 42.01814176 91.26761439 40.27441406 86.92553711 C36.78065832 78.22641823 33.27925439 69.5305159 29.76055336 60.84145355 C27.88590946 56.2075471 26.02993574 51.56662757 24.18625736 46.9203186 C22.96124661 43.84072319 21.72427247 40.76602074 20.48485374 37.69219971 C19.91293878 36.26648535 19.34591435 34.83879609 18.78460121 33.40887451 C14.65345929 22.89500902 9.83841054 11.82942758 1.72892761 3.73242188 C0 2 0 2 0 0 Z " fill="#BB8E5A" transform="translate(7,102)"/>
<path d="M0 0 C32.01 0 64.02 0 97 0 C97 0.99 97 1.98 97 3 C95.7934375 3.24234375 94.586875 3.4846875 93.34375 3.734375 C91.72904512 4.07233649 90.11446848 4.41091101 88.5 4.75 C87.70851563 4.90726562 86.91703125 5.06453125 86.1015625 5.2265625 C79.87050333 6.55449314 73.535332 8.3010982 69.0625 13.0625 C67.39564148 16.10206554 66.87414582 18.60208925 66.8613348 22.00799084 C66.85586036 22.82559515 66.85038591 23.64319947 66.84474558 24.48557967 C66.84376747 25.3834321 66.84278936 26.28128453 66.84178162 27.2063446 C66.83684364 28.16037558 66.83190566 29.11440655 66.82681805 30.09734756 C66.811407 33.30797925 66.80307266 36.5185909 66.79467773 39.72924805 C66.78510205 42.02522967 66.77509215 44.32120952 66.76467896 46.6171875 C66.73759032 52.86266712 66.7166022 59.10815432 66.69667697 65.35366035 C66.67484181 71.87599055 66.64744106 78.39829726 66.62062073 84.92060852 C66.57634186 95.87194817 66.53551226 106.82329572 66.49731445 117.7746582 C66.45795883 129.05526673 66.41653244 140.33586452 66.37231445 151.61645508 C66.36959018 152.31163688 66.36686591 153.00681868 66.36405908 153.72306659 C66.35037959 157.21054342 66.33665932 160.69802009 66.32291877 164.18549669 C66.20895616 193.12364185 66.10221963 222.06181107 66 251 C73.48514597 250.90642184 80.9700079 250.79897893 88.45483398 250.68261719 C90.99255038 250.64471446 93.53031347 250.60980009 96.06811523 250.578125 C113.94347947 250.37667427 113.94347947 250.37667427 131.765625 249.09765625 C132.85336967 248.98588547 132.85336967 248.98588547 133.96308899 248.87185669 C152.65345778 246.67536171 166.77163622 237.90664392 180 225 C180.68449219 224.38898438 181.36898437 223.77796875 182.07421875 223.1484375 C193.51424424 212.64376001 201.84461021 198.10762907 210 185 C210.99 185.33 211.98 185.66 213 186 C209.64084103 202.12564546 205.45372157 218.04023563 201.30834961 233.97680664 C200.36734474 237.59722719 199.42993713 241.21857895 198.4921875 244.83984375 C196.66489205 251.89412294 194.83374136 258.94739332 193 266 C191.74746998 265.40109608 190.49809012 264.7956023 189.25 264.1875 C188.55390625 263.85105469 187.8578125 263.51460938 187.140625 263.16796875 C185 262 185 262 183.32574081 260.45192242 C180.14966226 258.46914789 177.27720115 258.57586848 173.64752197 258.60127258 C172.9049813 258.59462576 172.16244062 258.58797893 171.39739871 258.58113068 C168.90834798 258.56247255 166.41977677 258.5651078 163.93066406 258.56762695 C162.14683858 258.5586115 160.3630193 258.54828481 158.57920837 258.53674316 C153.73454215 258.50912161 148.8899933 258.49988165 144.04525852 258.49388909 C138.98298537 258.48451884 133.92080037 258.45831656 128.85858154 258.43388367 C119.27162985 258.39017783 109.68469521 258.36165595 100.09767413 258.33856028 C89.1835909 258.3115305 78.26959615 258.26761763 67.35557604 258.22227156 C44.90376531 258.12936678 22.45192682 258.05771275 0 258 C0.29052734 256.1184082 0.29052734 256.1184082 1 254 C3.53785467 252.5654318 5.97122571 251.35976264 8.625 250.1875 C17.30331341 246.08693714 22.9251643 242.60708771 26.35111928 233.25862515 C27.42241411 229.52966024 27.41350311 225.93159532 27.38095093 222.07469177 C27.3856309 221.21116579 27.39031087 220.3476398 27.39513266 219.45794636 C27.40703709 216.58305175 27.39764333 213.70863784 27.38818359 210.83374023 C27.39225128 208.76512373 27.39759427 206.6965094 27.40411377 204.62789917 C27.41776874 199.02265538 27.41249639 193.41757759 27.40297651 187.81233096 C27.39537156 181.9419452 27.40242776 176.07157347 27.40713501 170.20118713 C27.41258968 160.3447922 27.40540802 150.48846476 27.39111328 140.63208008 C27.37478284 129.2405788 27.38007936 117.84923858 27.3965925 106.4577412 C27.41021013 96.67155023 27.41212579 86.88540771 27.40427649 77.09921032 C27.39960211 71.25675603 27.39896883 65.41437743 27.40888596 59.57192802 C27.41755748 54.07991247 27.41153013 48.58810445 27.39420319 43.0961113 C27.39023956 41.08173911 27.39137025 39.06734944 27.39799118 37.05298424 C27.40620144 34.30119595 27.3958913 31.55007075 27.38095093 28.79832458 C27.38764309 28.00318134 27.39433526 27.2080381 27.40123022 26.38879961 C27.33737218 20.31581917 26.22798854 15.43686246 22 10.8125 C15.27684518 6.75059396 7.61310142 4.72372108 0 3 C0 2.01 0 1.02 0 0 Z " fill="#BB8E5A" transform="translate(621,102)"/>
<path d="M0 0 C4.12419462 0.84062792 6.00317653 2.5803511 9.0625 5.5 C12.72816612 8.94402692 16.44269532 12.23145921 20.375 15.375 C25.1714071 19.24218863 29.6704146 23.34980716 34.16357422 27.55810547 C37.51081785 30.67539336 40.92995906 33.63566482 44.5 36.5 C48.66666457 39.84302158 52.60417858 43.35116931 56.5 47 C61.26955916 51.46646273 66.17904911 55.66175518 71.27734375 59.75390625 C76.01100888 63.65901019 80.49929188 67.83009828 85 72 C84.67 72.66 84.34 73.32 84 74 C72.71484375 68.1484375 61.4296875 62.296875 50.14453125 56.4453125 C48.49565918 55.59042236 48.49565918 55.59042236 46.81347656 54.71826172 C44.59259627 53.56658507 42.37189498 52.41456317 40.15136719 51.26220703 C34.41624748 48.28650016 28.67788906 45.31733514 22.93359375 42.359375 C10.16834577 35.7781097 -2.5076797 29.08714642 -15 22 C-13.72598605 18.48167877 -12.25703223 15.74187473 -9.9609375 12.79296875 C-9.38085938 12.04208984 -8.80078125 11.29121094 -8.203125 10.51757812 C-7.59984375 9.74865234 -6.9965625 8.97972656 -6.375 8.1875 C-5.76398438 7.39923828 -5.15296875 6.61097656 -4.5234375 5.79882812 C-3.0207657 3.86179026 -1.51286614 1.92907921 0 0 Z " fill="#BB8E5A" transform="translate(1560,0)"/>
</svg>
