<svg width="24" height="24" viewBox="0 0 24 24" fill="none" xmlns="http://www.w3.org/2000/svg">
<mask id="mask0_125_18" style="mask-type:luminance" maskUnits="userSpaceOnUse" x="2" y="2" width="20" height="20">
<path d="M22 2H2V22H22V2Z" fill="white"/>
</mask>
<g mask="url(#mask0_125_18)">
<path d="M2.08359 11.8772C2.08305 13.6181 2.54141 15.3175 3.41281 16.8155L2 21.9339L7.27898 20.5605C8.73352 21.3474 10.3712 21.7622 12.0376 21.7629H12.0419C17.53 21.7629 21.9977 17.3312 22 11.8851C22.0009 9.24574 20.9659 6.7638 19.0859 4.89674C17.2057 3.02992 14.7057 2.00109 12.0419 2C6.55281 2 2.08578 6.43101 2.08359 11.8772ZM5.22742 16.5575L5.03031 16.2471C4.20172 14.9398 3.76437 13.4291 3.765 11.8778C3.76672 7.35109 7.47953 3.66822 12.045 3.66822C14.2559 3.66915 16.3337 4.52434 17.8966 6.07597C19.4593 7.62775 20.3192 9.69054 20.3187 11.8845C20.3166 16.4112 16.6037 20.0946 12.0419 20.0946H12.0386C10.5532 20.0938 9.09641 19.698 7.82594 18.95L7.52359 18.7721L4.39094 19.5871L5.22742 16.5575Z" fill="url(#paint0_linear_125_18)"/>
<path d="M9.55303 7.74776C9.36662 7.33668 9.17045 7.32838 8.99318 7.32117C8.84803 7.31497 8.68209 7.31544 8.51631 7.31544C8.35037 7.31544 8.08076 7.37738 7.85287 7.62427C7.62475 7.87141 6.98193 8.46862 6.98193 9.68327C6.98193 10.8979 7.87357 12.0719 7.99787 12.2368C8.12232 12.4013 9.7192 14.9737 12.2483 15.9633C14.3501 16.7857 14.7779 16.6222 15.234 16.5809C15.6903 16.5399 16.7062 15.9839 16.9135 15.4074C17.1209 14.8309 17.1209 14.3368 17.0587 14.2336C16.9965 14.1307 16.8306 14.0689 16.5818 13.9455C16.3329 13.8221 15.1096 13.2247 14.8815 13.1423C14.6534 13.06 14.4876 13.0189 14.3216 13.2661C14.1557 13.513 13.6792 14.0689 13.534 14.2336C13.3889 14.3986 13.2437 14.4192 12.9949 14.2957C12.7459 14.1718 11.9446 13.9114 10.9939 13.0704C10.2542 12.416 9.75482 11.6078 9.60967 11.3606C9.46451 11.1138 9.59412 10.98 9.71889 10.857C9.83068 10.7464 9.96779 10.5687 10.0923 10.4246C10.2164 10.2804 10.2578 10.1775 10.3408 10.0129C10.4238 9.84807 10.3822 9.70389 10.3201 9.5804C10.2578 9.45691 9.77428 8.2359 9.55303 7.74776Z" fill="#959EAD"/>
</g>
<defs>
<linearGradient id="paint0_linear_125_18" x1="1002" y1="1995.39" x2="1002" y2="2" gradientUnits="userSpaceOnUse">
<stop stop-color="#959EAD"/>
<stop offset="1" stop-color="#959EAD"/>
</linearGradient>
</defs>
</svg>
