<?xml version="1.0" encoding="UTF-8"?>
<svg version="1.1" xmlns="http://www.w3.org/2000/svg" width="1452" height="1026">
<path d="M0 0 C3.31696364 3.92004794 3.53302564 7.60283596 3.4609375 12.5625 C0.89524388 31.07574025 -19.18552005 46.68252689 -32.9375 57.4375 C-33.81607666 58.13069336 -33.81607666 58.13069336 -34.71240234 58.83789062 C-66.88417101 84.16371935 -102.03590879 104.90411906 -137.56787109 125.09033203 C-141.13206633 127.11662807 -144.69104207 129.15202419 -148.25 131.1875 C-150.14583333 132.27083333 -152.04166667 133.35416667 -153.9375 134.4375 C-151.64561892 134.18937612 -149.35401058 133.93901344 -147.0625 133.6875 C-145.89098389 133.55988281 -145.89098389 133.55988281 -144.69580078 133.4296875 C-139.22353048 132.82540024 -133.75954139 132.17023415 -128.296875 131.484375 C-22.99193053 118.35129636 -22.99193053 118.35129636 9.0625 139.4375 C13.38128589 143.28900741 16.57294638 146.82471824 17.37109375 152.71484375 C17.87530512 163.11993302 13.64293411 170.80695259 6.875 178.5 C5.28172278 180.1563773 3.67728269 181.80208111 2.0625 183.4375 C1.29679688 184.27539062 0.53109375 185.11328125 -0.2578125 185.9765625 C-13.31708759 199.85460092 -29.78278257 210.4988756 -45.9375 220.4375 C-46.72624512 220.9231543 -47.51499023 221.40880859 -48.32763672 221.90917969 C-83.56020757 243.5022176 -120.71847631 261.99047358 -158.04296875 279.66821289 C-165.30743202 283.11364784 -172.49499998 286.70040655 -179.67578125 290.31640625 C-186.18366954 293.58427598 -192.73425296 296.7514514 -199.3125 299.875 C-207.23523864 303.63749461 -215.10288993 307.4948156 -222.9375 311.4375 C-231.71907535 315.85673463 -240.55319189 320.14660064 -249.43359375 324.36328125 C-256.89555552 327.9156242 -264.28739692 331.59582017 -271.66845703 335.31274414 C-279.17512807 339.0821453 -286.74492844 342.70837019 -294.33203125 346.3125 C-300.90693457 349.44425368 -307.43310498 352.66204343 -313.9375 355.9375 C-321.35501857 359.67274569 -328.81037271 363.31276541 -336.3125 366.875 C-344.23523864 370.63749461 -352.10288993 374.4948156 -359.9375 378.4375 C-368.71907535 382.85673463 -377.55319189 387.14660064 -386.43359375 391.36328125 C-392.97501624 394.47739209 -399.4668618 397.67907973 -405.9375 400.9375 C-413.35502043 404.6727419 -420.81037266 408.31276538 -428.3125 411.875 C-436.23523864 415.63749461 -444.10288993 419.4948156 -451.9375 423.4375 C-460.71818086 427.85628449 -469.55048742 432.14773465 -478.43139648 436.36108398 C-485.0003384 439.48623464 -491.50846008 442.71752691 -498 446 C-533.00948031 463.66795082 -533.00948031 463.66795082 -546.9375 462.4375 C-550.518945 461.24151837 -552.37041157 459.48661359 -554.1875 456.125 C-553.76827322 451.61831215 -551.19225901 449.2861096 -547.9375 446.4375 C-529.77040515 432.8298971 -508.94460261 422.67704845 -488.6875 412.625 C-487.11879654 411.84289154 -487.11879654 411.84289154 -485.5184021 411.04498291 C-472.23583876 404.42581554 -458.89557899 397.9966154 -445.3380127 391.96136475 C-427.84373951 384.17039962 -410.71618744 375.62444528 -393.53633118 367.1688385 C-386.6475456 363.78012078 -379.74054234 360.43285145 -372.8125 357.125 C-363.08465372 352.47726992 -353.38298689 347.77724352 -343.6875 343.0625 C-332.90289589 337.81858334 -322.11395732 332.58412853 -311.3125 327.375 C-301.09863788 322.44884526 -290.89056983 317.51096047 -280.6875 312.5625 C-280.00093323 312.22952911 -279.31436646 311.89655823 -278.60699463 311.55349731 C-273.71699023 309.1818545 -268.82721777 306.8097337 -263.9375 304.4375 C-258.3543261 301.72883789 -252.77105039 299.02038595 -247.1875 296.3125 C-246.50079224 295.97945862 -245.81408447 295.64641724 -245.10656738 295.30328369 C-234.37061302 290.09704395 -223.62737247 284.90609032 -212.88085938 279.72167969 C-202.42288666 274.6750667 -191.97111493 269.61569538 -181.52661133 264.54125977 C-174.52516377 261.14053034 -167.51761149 257.75364527 -160.49609375 254.39453125 C-142.70410175 245.87042891 -125.2343856 236.93324385 -107.9375 227.4375 C-106.79555176 226.81488281 -105.65360352 226.19226563 -104.47705078 225.55078125 C-51.41636763 199.55800219 -51.41636763 199.55800219 -9.9375 159.4375 C-9.5692935 158.11337279 -9.22764947 156.78089204 -8.9375 155.4375 C-10.07445312 155.3034375 -11.21140625 155.169375 -12.3828125 155.03125 C-17.63602568 154.37488724 -22.83818959 153.46176763 -28.05078125 152.54296875 C-36.90833242 151.0232156 -45.6831486 150.28171719 -54.66796875 150.234375 C-55.56846954 150.22736069 -56.46897034 150.22034637 -57.39675903 150.21311951 C-60.30622402 150.19565616 -63.21548442 150.18926123 -66.125 150.1875 C-67.12614838 150.18682526 -68.12729675 150.18615051 -69.15878296 150.18545532 C-86.60232032 150.20405351 -103.63363283 151.0959005 -120.9375 153.4375 C-122.81791992 153.68693359 -122.81791992 153.68693359 -124.73632812 153.94140625 C-165.35022857 159.47128679 -205.3318941 169.0589766 -244.38061523 181.45727539 C-245.21665283 181.72145264 -246.05269043 181.98562988 -246.9140625 182.2578125 C-247.62643066 182.48742676 -248.33879883 182.71704102 -249.07275391 182.95361328 C-250.9375 183.4375 -250.9375 183.4375 -253.9375 183.4375 C-254.16179687 184.21738281 -254.38609375 184.99726562 -254.6171875 185.80078125 C-267.03967735 220.01775774 -292.02397531 255.22285953 -314.9375 283.4375 C-315.6505127 284.32187744 -315.6505127 284.32187744 -316.37792969 285.22412109 C-322.50382037 292.76513025 -329.09939583 299.78841911 -335.9375 306.6875 C-336.66807617 307.42742187 -337.39865234 308.16734375 -338.15136719 308.9296875 C-338.84391602 309.61804688 -339.53646484 310.30640625 -340.25 311.015625 C-340.86488281 311.62825195 -341.47976563 312.24087891 -342.11328125 312.87207031 C-345.57946764 315.84653326 -348.46557255 316.74410743 -353 316.8125 C-353.85722656 316.84085938 -354.71445312 316.86921875 -355.59765625 316.8984375 C-357.9375 316.4375 -357.9375 316.4375 -359.734375 314.60546875 C-361.13081066 312.08916423 -361.32176043 310.36726495 -360.76171875 307.54296875 C-358.07908221 300.69016736 -352.39987611 294.97032227 -347.75 289.375 C-336.8212946 276.1553976 -327.27835217 261.80329905 -317.9375 247.4375 C-317.44926758 246.68919922 -316.96103516 245.94089844 -316.45800781 245.16992188 C-310.25023397 235.61887101 -304.38276847 225.90145405 -298.75 216 C-298.18482666 215.01040283 -297.61965332 214.02080566 -297.03735352 213.0012207 C-296.51584717 212.07398193 -295.99434082 211.14674316 -295.45703125 210.19140625 C-294.99401611 209.36970947 -294.53100098 208.5480127 -294.05395508 207.70141602 C-293.0171726 205.59905785 -292.39805879 203.72716324 -291.9375 201.4375 C-292.43113037 201.69217041 -292.92476074 201.94684082 -293.43334961 202.20922852 C-310.99507617 211.2256929 -328.90337979 219.42118726 -346.9375 227.4375 C-347.89481018 227.86346466 -347.89481018 227.86346466 -348.87145996 228.29803467 C-411.4254161 256.09369251 -411.4254161 256.09369251 -432.5625 249.125 C-437.60416667 246.60416667 -437.60416667 246.60416667 -438.9375 243.4375 C-440.26086605 236.90252744 -438.22224848 232.06346419 -435.2265625 226.30859375 C-429.31947401 218.89953225 -421.15072251 214.01234534 -412.8125 209.75 C-411.83949951 209.24871582 -410.86649902 208.74743164 -409.86401367 208.23095703 C-387.48999435 196.98743415 -363.60417804 188.48178855 -339.9375 180.4375 C-338.83615723 180.06173828 -337.73481445 179.68597656 -336.60009766 179.29882812 C-321.91170492 174.32876355 -307.08649854 169.99438372 -292.125 165.9375 C-291.31700958 165.71763428 -290.50901917 165.49776855 -289.67654419 165.27124023 C-287.36264261 164.64398576 -285.04702154 164.02363355 -282.73046875 163.40625 C-282.04618805 163.22126953 -281.36190735 163.03628906 -280.65689087 162.84570312 C-276.42093999 161.73004448 -272.27435459 160.98009002 -267.9375 160.4375 C-267.66977783 159.56399902 -267.40205566 158.69049805 -267.1262207 157.79052734 C-265.97618214 154.54661082 -264.60888022 151.78092965 -262.91796875 148.7890625 C-262.31412354 147.71301758 -261.71027832 146.63697266 -261.08813477 145.52832031 C-260.44030029 144.38459961 -259.79246582 143.24087891 -259.125 142.0625 C-257.76050966 139.63421816 -256.39990167 137.20376691 -255.0390625 134.7734375 C-254.69482742 134.15976318 -254.35059235 133.54608887 -253.9959259 132.91381836 C-248.52618942 123.15238805 -243.23880026 113.29106481 -237.9375 103.4375 C-237.53418457 102.69016602 -237.13086914 101.94283203 -236.71533203 101.17285156 C-232.25437587 92.93787541 -232.25437587 92.93787541 -228.07421875 84.55859375 C-227.61378174 83.60073975 -227.61378174 83.60073975 -227.14404297 82.62353516 C-226.30989282 80.87550996 -225.49218553 79.11966464 -224.67578125 77.36328125 C-222.77330359 74.16113346 -221.06459191 72.44019004 -217.9375 70.4375 C-214.125 70.1875 -214.125 70.1875 -210.9375 70.4375 C-206.38366116 79.54517768 -211.14193436 92.34064557 -214.109375 101.296875 C-219.52748832 116.84908364 -226.74313402 131.64686057 -233.9375 146.4375 C-230.89415993 145.77545369 -228.27504534 144.76200023 -225.46484375 143.42578125 C-224.57925781 143.00506348 -223.69367188 142.5843457 -222.78125 142.15087891 C-221.8221875 141.68858887 -220.863125 141.22629883 -219.875 140.75 C-218.86566406 140.26450684 -217.85632813 139.77901367 -216.81640625 139.27880859 C-197.41449706 129.87730278 -178.43039778 119.76479852 -159.73486328 109.03320312 C-156.93576557 107.43651063 -154.12477776 105.86320972 -151.30859375 104.296875 C-82.88329604 68.07175015 -82.88329604 68.07175015 -30.9375 12.4375 C-49.89020748 4.31491108 -75.42478975 9.71441196 -94.9375 13.4375 C-95.94973633 13.63053711 -96.96197266 13.82357422 -98.00488281 14.02246094 C-142.33426484 22.80184099 -185.28330362 39.23822944 -226.9375 56.4375 C-228.44062744 57.04875732 -228.44062744 57.04875732 -229.97412109 57.67236328 C-254.73869197 67.77375662 -278.05041417 81.005353 -300.99121094 94.68115234 C-304.02365337 96.48885792 -307.06244199 98.28557971 -310.1015625 100.08203125 C-330.89223221 112.41671562 -351.39567729 125.19125886 -370.9375 139.4375 C-371.72382812 140.00742676 -372.51015625 140.57735352 -373.3203125 141.16455078 C-382.74655747 148.00338015 -392.05201021 154.90386464 -400.9375 162.4375 C-401.99561812 163.31047265 -403.05424098 164.18283378 -404.11328125 165.0546875 C-423.71809935 181.34137747 -444.0968065 199.71037284 -450.06640625 225.44140625 C-450.9375 227.4375 -450.9375 227.4375 -452.8515625 228.69140625 C-456.3607747 229.94657391 -459.30874218 230.09716392 -462.80859375 228.6796875 C-466.44334491 226.76029708 -468.51212568 225.27243567 -469.9375 221.4375 C-471.76775823 207.11466528 -465.2147119 194.92380763 -456.90625 183.69140625 C-449.35328807 174.26388674 -441.1864788 164.84499757 -431.89453125 157.0859375 C-429.69277096 155.23136097 -427.60683433 153.27415751 -425.5 151.3125 C-419.06142006 145.5118891 -412.15841902 140.34167379 -405.22607422 135.15234375 C-403.00012872 133.48442811 -400.78317735 131.80507915 -398.56640625 130.125 C-372.32218324 110.37781192 -344.32868164 92.90093803 -315.9375 76.4375 C-314.5769751 75.64690186 -314.5769751 75.64690186 -313.18896484 74.84033203 C-233.58169212 28.74444376 -140.61177747 -14.96781317 0 0 Z " fill="#4274B9" transform="translate(943.9375,447.5625)"/>
<path d="M0 0 C3.43278404 3.65425398 3.52227136 6.79195952 3.46484375 11.6796875 C-1.1409468 41.22498098 -35.39359819 73.34577616 -53.97216797 95.22241211 C-58.40364455 100.44727345 -62.74113436 105.74628759 -67.0625 111.0625 C-71.86090487 116.96557362 -76.69702939 122.82987577 -81.625 128.625 C-85.42386616 133.09478918 -89.13471739 137.61931597 -92.78125 142.21484375 C-100.46394186 151.80505328 -108.33576897 161.2437645 -116.30004883 170.60083008 C-119.60531661 174.4942456 -122.79772157 178.46597641 -125.96875 182.46875 C-128.91333084 186.11651433 -131.95701533 189.6770398 -134.99609375 193.24609375 C-137.74024533 196.47674312 -140.42997809 199.73948054 -143.0625 203.0625 C-146.15323517 206.9639198 -149.33628506 210.77341352 -152.5625 214.5625 C-156.38342614 219.05252543 -160.1162239 223.59600963 -163.78125 228.21484375 C-171.46394186 237.80505328 -179.33576897 247.2437645 -187.30004883 256.60083008 C-190.60531661 260.4942456 -193.79772157 264.46597641 -196.96875 268.46875 C-199.91333084 272.11651433 -202.95701533 275.6770398 -205.99609375 279.24609375 C-208.74024533 282.47674312 -211.42997809 285.73948054 -214.0625 289.0625 C-217.61105146 293.54181906 -221.29186876 297.89590036 -224.99609375 302.24609375 C-227.74024533 305.47674312 -230.42997809 308.73948054 -233.0625 312.0625 C-236.15323517 315.9639198 -239.33628506 319.77341352 -242.5625 323.5625 C-246.38342614 328.05252543 -250.1162239 332.59600963 -253.78125 337.21484375 C-261.46394186 346.80505328 -269.33576897 356.2437645 -277.30004883 365.60083008 C-280.60531661 369.4942456 -283.79772157 373.46597641 -286.96875 377.46875 C-289.91333084 381.11651433 -292.95701533 384.6770398 -295.99609375 388.24609375 C-298.74024533 391.47674312 -301.42997809 394.73948054 -304.0625 398.0625 C-307.15323517 401.9639198 -310.33628506 405.77341352 -313.5625 409.5625 C-317.38342614 414.05252543 -321.1162239 418.59600963 -324.78125 423.21484375 C-332.46394186 432.80505328 -340.33576897 442.2437645 -348.30004883 451.60083008 C-351.60649419 455.49563273 -354.79967445 459.46911888 -357.97265625 463.47265625 C-360.89341167 467.09220922 -363.90846305 470.62853624 -366.92138672 474.17138672 C-371.37241692 479.41124609 -375.72593348 484.72758723 -380.0625 490.0625 C-384.8422175 495.94258412 -389.65723597 501.78690611 -394.5625 507.5625 C-398.60710433 512.32535709 -402.59534835 517.12881932 -406.54296875 521.97265625 C-409.74964062 525.90517943 -412.96649138 529.82921547 -416.1875 533.75 C-416.76153564 534.45092773 -417.33557129 535.15185547 -417.92700195 535.87402344 C-419.62930481 537.94495149 -421.34482659 540.00431221 -423.0625 542.0625 C-423.64870117 542.78066895 -424.23490234 543.49883789 -424.83886719 544.23876953 C-430.09758302 550.52121671 -436.10217523 554.79501442 -444.28515625 556.53515625 C-446.86914468 556.66133828 -448.61543084 556.38754557 -450.72265625 554.85546875 C-453.444469 551.21315955 -452.48439893 546.38543545 -452.0625 542.0625 C-449.06324313 531.06522481 -439.04937947 521.73581806 -431.73828125 513.19921875 C-428.62159299 509.55847578 -425.59377753 505.84797654 -422.56640625 502.1328125 C-414.733533 492.52807245 -406.85801246 482.96183639 -398.82470703 473.52392578 C-395.51534442 469.62557761 -392.31887352 465.64895943 -389.14453125 461.640625 C-386.73165908 458.65282832 -384.24453921 455.73193803 -381.75 452.8125 C-377.94505834 448.3561082 -374.27451588 443.82078313 -370.6875 439.1875 C-366.21265437 433.41496529 -361.50426257 427.88490828 -356.69238281 422.39160156 C-353.03237855 418.20655186 -349.51342987 413.93962474 -346.07421875 409.5703125 C-343.69156911 406.60009684 -341.22392373 403.70649151 -338.75 400.8125 C-334.94494997 396.35620607 -331.2745111 391.82077696 -327.6875 387.1875 C-323.21265437 381.41496529 -318.50426257 375.88490828 -313.69238281 370.39160156 C-310.03548525 366.21010423 -306.51991716 361.94633694 -303.08203125 357.58203125 C-300.19214963 353.97666637 -297.19280275 350.46761104 -294.19873047 346.94873047 C-291.28220392 343.5163968 -288.4054205 340.05639336 -285.5625 336.5625 C-280.02057902 329.75836214 -274.32941077 323.08274122 -268.64648438 316.39648438 C-263.9273039 310.84181966 -259.22174951 305.28190075 -254.625 299.625 C-250.66741812 294.76120975 -246.59707554 290.00368769 -242.50415039 285.25415039 C-239.47304711 281.72951081 -236.49264684 278.17210118 -233.5625 274.5625 C-230.13041987 270.3345752 -226.61698829 266.1872211 -223.0625 262.0625 C-218.74315728 257.04935227 -214.51152723 251.97712485 -210.33984375 246.83984375 C-207.78045946 243.71853633 -205.17656209 240.6379997 -202.5625 237.5625 C-199.18966411 233.59346457 -195.85073355 229.60232979 -192.5625 225.5625 C-188.81462202 220.9579642 -184.99266556 216.42230809 -181.1484375 211.8984375 C-177.49969215 207.59740247 -173.92605273 203.23903903 -170.3671875 198.86328125 C-167.8421684 195.79474109 -165.26761449 192.77213516 -162.6875 189.75 C-158.88649935 185.29175817 -155.21661778 180.75330687 -151.625 176.125 C-147.36894917 170.64399977 -142.93893319 165.34600302 -138.40039062 160.09741211 C-133.85094124 154.83471409 -129.44098395 149.46829815 -125.0625 144.0625 C-124.00810725 142.7666872 -122.95339778 141.47113206 -121.8984375 140.17578125 C-115.91949801 132.83131352 -109.95910536 125.47333937 -104.0625 118.0625 C-105.1907554 119.1907554 -106.31864956 120.31937314 -107.4453125 121.44921875 C-108.60167449 122.6027876 -109.76379744 123.75059309 -110.9296875 124.89453125 C-114.81992997 128.73179376 -118.51915155 132.65512926 -122.08203125 136.796875 C-124.52856231 139.59566793 -127.04345883 142.32921706 -129.5625 145.0625 C-134.74441283 150.69667779 -139.80918742 156.41229455 -144.76953125 162.2421875 C-150.5969906 169.08369707 -156.51906731 175.80502108 -162.6171875 182.40625 C-166.78870123 186.93760677 -170.80929494 191.59080509 -174.8046875 196.27734375 C-175.82794735 197.47671409 -176.85139037 198.67592817 -177.875 199.875 C-178.39223633 200.48110107 -178.90947266 201.08720215 -179.44238281 201.71166992 C-182.6473938 205.45301541 -185.91451503 209.1235693 -189.25 212.75 C-193.27643836 217.13605646 -197.04359722 221.67991628 -200.78125 226.3125 C-203.12968968 229.14349578 -205.57159902 231.85633598 -208.0625 234.5625 C-212.11788943 238.97406385 -215.9472374 243.51437882 -219.7109375 248.17578125 C-222.30697531 251.36261171 -224.95986048 254.49602019 -227.625 257.625 C-230.81184861 261.37085858 -233.9504185 265.14057113 -237 269 C-248.92230328 283.99356599 -261.93228112 297.99086201 -275.4375 311.5625 C-276.07913086 312.20880371 -276.72076172 312.85510742 -277.38183594 313.52099609 C-295.33008157 331.40901271 -321.34423317 355.42936198 -347.9375 356.5 C-357.28904212 356.21152055 -365.64261294 353.56873178 -372.44140625 346.99609375 C-379.67283006 338.37066053 -379.78896399 328.2357136 -379.28027344 317.47753906 C-378.67037237 310.71392765 -376.36190912 304.40820945 -374.0625 298.0625 C-373.78905762 297.28632324 -373.51561523 296.51014648 -373.23388672 295.71044922 C-364.63076956 271.44936671 -353.41751273 248.13343171 -342.0625 225.0625 C-341.72738403 224.38131104 -341.39226807 223.70012207 -341.04699707 222.99829102 C-331.76229455 204.1416758 -322.34495927 185.39932627 -312.0625 167.0625 C-310.96825739 165.09532602 -309.87452841 163.12786626 -308.78125 161.16015625 C-302.98721923 150.7541297 -297.11709244 140.39364186 -291.19076538 130.06243896 C-273.60665833 100.31778375 -273.60665833 100.31778375 -259.0625 69.0625 C-259.3925 68.7325 -259.7225 68.4025 -260.0625 68.0625 C-267.20516458 75.71661464 -273.74593515 83.72142154 -280.0625 92.0625 C-280.8366626 93.0839209 -280.8366626 93.0839209 -281.62646484 94.12597656 C-290.9568025 106.52666277 -298.95612758 119.5076101 -306.72070312 132.92871094 C-324.0391361 162.84327169 -324.0391361 162.84327169 -332.0625 165.0625 C-336.37602253 165.0625 -339.09609663 164.32545003 -342.4375 161.6875 C-345.63190655 158.49309345 -345.98391613 156.95835617 -346.375 152.5 C-346.24412483 143.70039293 -340.87631983 135.51890978 -336.5625 128.125 C-336.03914063 127.22040039 -335.51578125 126.31580078 -334.9765625 125.38378906 C-323.31738419 105.377699 -310.51308441 86.16568079 -296.0625 68.0625 C-295.65241699 67.54800293 -295.24233398 67.03350586 -294.81982422 66.50341797 C-281.60904017 50.06026244 -262.99029837 27.27782538 -241.0625 23.0625 C-233.05824193 22.21599881 -227.35287964 22.52262924 -220.76953125 27.359375 C-217.72189116 30.40004108 -216.76021187 33.17658442 -216.6875 37.4375 C-217.03040133 50.46775062 -222.97776388 61.87370748 -229.0625 73.0625 C-229.38234863 73.65530762 -229.70219727 74.24811523 -230.03173828 74.85888672 C-233.68938766 81.58767087 -237.66520448 88.04446654 -241.875 94.4375 C-254.79841033 114.10933617 -266.4502182 134.68300597 -277.83984375 155.26953125 C-279.8573868 158.91480329 -281.9056204 162.53734608 -284.00390625 166.13671875 C-295.90718082 186.63277378 -306.43214584 207.88772008 -317.0625 229.0625 C-317.43969177 229.81345947 -317.81688354 230.56441895 -318.20550537 231.33813477 C-345.21104109 279.19966565 -345.21104109 279.19966565 -353.3125 331 C-352.36325439 333.89089881 -352.36325439 333.89089881 -351.0625 335.0625 C-337.23315103 334.32137733 -325.93994602 322.96765259 -316.0625 314.0625 C-315.23886963 313.32572021 -314.41523926 312.58894043 -313.56665039 311.82983398 C-305.42151428 304.46410373 -297.62246339 296.77621546 -289.86987305 289.00024414 C-287.73925366 286.86422643 -285.60328777 284.73365882 -283.46679688 282.60351562 C-282.0856165 281.22167493 -280.70474611 279.83952433 -279.32421875 278.45703125 C-278.69803146 277.83286819 -278.07184418 277.20870514 -277.42668152 276.56562805 C-273.66087648 272.78008514 -270.08970775 268.8733247 -266.59797668 264.83378601 C-264.89163517 262.86539477 -263.13545077 260.95338798 -261.34375 259.0625 C-260.72113281 258.4025 -260.09851563 257.7425 -259.45703125 257.0625 C-258.19401042 255.72916667 -256.93098958 254.39583333 -255.66796875 253.0625 C-251.90982528 249.07871231 -248.25115793 245.028961 -244.66113281 240.89306641 C-242.54651636 238.47165617 -240.36885229 236.11129549 -238.1875 233.75 C-234.87913086 230.12726095 -231.70237642 226.44557109 -228.625 222.625 C-225.40304925 218.63023566 -222.05572017 214.81718333 -218.5625 211.0625 C-214.35224225 206.53261346 -210.3861197 201.85957608 -206.5078125 197.04296875 C-203.59246118 193.48959326 -200.5843509 190.0252909 -197.5625 186.5625 C-193.04745712 181.38344204 -188.63011259 176.14413165 -184.3046875 170.8046875 C-181.30085272 167.13100803 -178.22672966 163.51917999 -175.15234375 159.90454102 C-172.20266289 156.42968064 -169.30571103 152.91779028 -166.4375 149.375 C-162.81415505 144.92346192 -159.04286128 140.63867545 -155.1796875 136.39453125 C-153.28198831 134.30426111 -151.41516585 132.19263885 -149.5625 130.0625 C-145.45167573 125.34547123 -141.2550774 120.70680291 -137.0625 116.0625 C-135.56221321 114.39609149 -134.06221128 112.72942647 -132.5625 111.0625 C-131.81613281 110.23363281 -131.06976563 109.40476562 -130.30078125 108.55078125 C-128.83810745 106.92473726 -127.37709667 105.29719538 -125.91796875 103.66796875 C-120.24769855 97.34382956 -114.51026469 91.08475842 -108.73095703 84.86035156 C-107.59792811 83.63945239 -106.46613401 82.41740634 -105.33544922 81.19433594 C-97.39154022 72.60644421 -89.3060506 64.19656551 -80.96020508 55.99707031 C-76.99283066 52.07997644 -73.26502712 48.04468236 -69.62597656 43.82177734 C-67.70296975 41.65794426 -65.63467137 39.75773519 -63.4375 37.875 C-59.27069596 34.20999096 -55.33458703 30.38287251 -51.4375 26.4375 C-42.98992952 17.92458519 -33.88611879 10.40245579 -24.57421875 2.85546875 C-23.97053467 2.3658667 -23.36685059 1.87626465 -22.74487305 1.37182617 C-16.05414681 -3.83530847 -7.30974022 -4.62452953 0 0 Z " fill="#4274B9" transform="translate(452.0625,2.9375)"/>
<path d="M0 0 C1.5467659 1.21159191 3.07765866 2.44394484 4.5859375 3.703125 C7.62027256 6.01145351 9.48693279 6.15655036 13.30859375 6.03125 C17.42539457 6.00103495 20.03055433 6.79338221 23.49609375 9.15625 C27.19813129 13.45861796 28.76814603 17.53020878 28.49609375 23.15625 C26.90527629 28.45897488 25.13160998 31.18763478 20.49609375 34.15625 C16.86305045 35.34462865 13.17378576 36.13140892 9.43359375 36.90625 C8.44037109 37.12667969 7.44714844 37.34710937 6.42382812 37.57421875 C2.31558064 38.46503066 -1.27940341 39.15625 -5.50390625 39.15625 C-6.9609375 37.3984375 -6.9609375 37.3984375 -8.31640625 35.03125 C-12.58882665 28.20396514 -17.65187051 23.51186072 -25.50390625 21.15625 C-34.24835052 19.78430074 -41.25932947 22.19376873 -48.50390625 27.15625 C-54.13129883 33.4526333 -55.81010224 38.75586583 -55.56640625 47.09375 C-55.02399567 53.99994522 -53.60580613 60.60705295 -51.95703125 67.32421875 C-51.69586014 68.39930695 -51.43468903 69.47439514 -51.16560364 70.58206177 C-47.94825936 83.65279646 -44.34690512 96.61900923 -40.73321533 109.58459473 C-39.99735408 112.22845626 -39.26541504 114.87339688 -38.53358746 117.5183773 C-37.02337025 122.97608489 -35.51038387 128.43303004 -33.9909668 133.88818359 C-33.72704636 134.83648041 -33.46312592 135.78477722 -33.19120789 136.7618103 C-32.67139784 138.57273837 -32.09969673 140.36887857 -31.50390625 142.15625 C-24.11623837 132.85599509 -17.20793299 123.55035265 -11.30859375 113.23046875 C-9.83271045 110.71635585 -8.31454915 108.43361141 -6.50390625 106.15625 C0.07761789 107.63890104 6.53436198 109.38916291 12.93359375 111.53125 C14.63322266 112.09972656 14.63322266 112.09972656 16.3671875 112.6796875 C20.63553434 114.69396354 23.41679152 117.39011907 25.87109375 121.40625 C26.80682166 125.52345279 26.70764175 129.09929499 25.49609375 133.15625 C23.38412479 136.46890103 21.04377191 139.38241092 17.49609375 141.15625 C16.41714844 141.03443359 16.41714844 141.03443359 15.31640625 140.91015625 C11.88154088 140.66623103 9.73752975 140.91794861 6.49609375 142.15625 C2.26745247 146.07722831 -0.7427127 151.20734504 -3.95263672 155.95654297 C-6.42239961 159.45867763 -9.18872254 162.67965977 -12.00390625 165.90625 C-12.49624756 166.47754639 -12.98858887 167.04884277 -13.49584961 167.63745117 C-15.53192156 169.98141179 -17.50927643 172.1607427 -19.89453125 174.15625 C-21.82568633 176.12006717 -21.82568633 176.12006717 -21.45703125 179.171875 C-21.225 180.23921875 -20.99296875 181.3065625 -20.75390625 182.40625 C-20.5321875 183.48390625 -20.31046875 184.5615625 -20.08203125 185.671875 C-19.89125 186.49171875 -19.70046875 187.3115625 -19.50390625 188.15625 C-18.53453125 188.23875 -17.56515625 188.32125 -16.56640625 188.40625 C-9.29160304 189.4686959 -3.26289538 192.50495041 1.49609375 198.15625 C3.22668235 201.6174272 2.84132141 205.36513884 2.49609375 209.15625 C1.22508925 212.89865215 -0.119324 214.78152883 -2.94140625 217.53125 C-13.87441342 222.51823572 -27.40773948 217.62511872 -38.09375 213.8671875 C-41.80238613 212.28537437 -44.12960001 211.1407078 -46.0078125 207.5078125 C-46.98766796 203.94272952 -47.5090894 200.84664945 -47.50390625 197.15625 C-52.35075481 198.75041995 -57.13511295 200.47875669 -61.91796875 202.25390625 C-75.69189306 207.06021519 -91.61775367 204.62056293 -104.609375 198.75390625 C-120.89542822 190.1368354 -131.6817453 175.2191034 -137.11474609 157.82568359 C-142.12379709 138.76960953 -138.46119406 119.53936006 -129.48828125 102.41796875 C-126.41476767 97.36603206 -122.73062798 93.26474175 -118.50390625 89.15625 C-117.8903125 88.52203125 -117.27671875 87.8878125 -116.64453125 87.234375 C-107.98941596 78.87516109 -94.28549443 72.33229599 -82.19140625 72.08984375 C-80.86109375 72.12271484 -80.86109375 72.12271484 -79.50390625 72.15625 C-79.76945312 71.27324219 -80.035 70.39023437 -80.30859375 69.48046875 C-85.47871708 51.91337085 -88.58750314 35.59565721 -79.87890625 18.46875 C-72.19047968 5.49098819 -60.94571731 -3.422334 -46.50390625 -7.84375 C-30.47476511 -11.77246106 -13.53537706 -9.9667675 0 0 Z M-98.50390625 110.15625 C-107.16389908 119.66014004 -109.91842898 129.88672311 -109.7734375 142.52734375 C-109.02667697 152.58155439 -104.15984609 160.74863754 -97.50390625 168.15625 C-91.60713601 173.13200089 -84.51520616 175.70989496 -76.73828125 175.46875 C-70.15209813 174.54760551 -64.5755571 172.06671344 -59.32226562 168.06494141 C-58.60598999 167.52124908 -57.88971436 166.97755676 -57.1517334 166.41738892 C-56.60795044 166.00121307 -56.06416748 165.58503723 -55.50390625 165.15625 C-57.26102396 158.63085389 -59.02124109 152.10629916 -60.78344727 145.58227539 C-61.38048728 143.37054635 -61.97686076 141.15863726 -62.57250977 138.9465332 C-66.06718197 125.9701011 -69.62987313 113.02503734 -73.50390625 100.15625 C-83.1189515 100.01526693 -91.52174573 103.51168845 -98.50390625 110.15625 Z " fill="#4274B9" transform="translate(394.50390625,477.84375)"/>
<path d="M0 0 C4.428327 3.51746761 6.5649281 7.57646252 8 13 C9.65397599 28.58554302 6.03702969 43.04045883 2 58 C1.53376221 59.74724365 1.53376221 59.74724365 1.05810547 61.52978516 C-8.20076664 95.79648328 -19.99184471 129.39447474 -34 162 C-34.50821289 163.18851563 -35.01642578 164.37703125 -35.54003906 165.6015625 C-48.18525447 194.97526005 -62.37744953 223.67013098 -79 251 C-80.1314303 252.88207844 -81.26167353 254.7648711 -82.390625 256.6484375 C-82.89110352 257.48294434 -83.39158203 258.31745117 -83.90722656 259.17724609 C-84.44814941 260.07950928 -84.44814941 260.07950928 -85 261 C-83.24236328 260.67515625 -83.24236328 260.67515625 -81.44921875 260.34375 C-57.80638741 256.09680629 -57.80638741 256.09680629 -48 261 C-44.93655916 264.15562772 -44.54374631 266.60114673 -44.5 270.9375 C-44.4690625 271.95714844 -44.438125 272.97679687 -44.40625 274.02734375 C-45.22063081 278.10460555 -46.71603949 279.50171821 -50 282 C-53.3125 282.93359375 -53.3125 282.93359375 -57 283.4375 C-64.70332901 284.70726916 -71.06604146 287.37982862 -78 291 C-79.36978551 291.69923082 -80.73957746 292.39844901 -82.109375 293.09765625 C-83.49066751 293.81301459 -84.8708959 294.53043177 -86.25 295.25 C-86.90677734 295.59119873 -87.56355469 295.93239746 -88.24023438 296.28393555 C-91.72912823 297.99686389 -91.72912823 297.99686389 -94 301 C-87.67798462 311.48123602 -79.39099598 320.93569091 -70.58984375 329.4140625 C-68.11106021 331.88675567 -65.8539299 334.54447442 -63.578125 337.203125 C-62.05031616 339.01018899 -62.05031616 339.01018899 -60.35546875 340.49609375 C-58.3765699 342.69170198 -58.12867271 345.06254256 -57.875 347.9375 C-58.09231117 351.5231343 -59.64040956 353.39840029 -62 356 C-65.43538313 358.36659727 -67.3187094 359.0121659 -71.5 358.9375 C-77.01105185 357.4613254 -80.38170113 354.85039894 -83.99609375 350.55078125 C-88.31229858 345.55829163 -92.93327994 340.8806348 -97.59790039 336.21679688 C-99.06883297 334.74365752 -100.53154246 333.26265893 -101.99414062 331.78125 C-102.94482261 330.82763637 -103.89597813 329.87449452 -104.84765625 328.921875 C-105.69336182 328.07206055 -106.53906738 327.22224609 -107.41040039 326.34667969 C-110.14797305 323.86590771 -112.88351482 321.96950272 -116 320 C-122.62277484 326.95725842 -128.40920231 334.35204479 -134.10546875 342.0703125 C-134.57774902 342.71000977 -135.0500293 343.34970703 -135.53662109 344.00878906 C-136.56083657 345.40243295 -137.57889255 346.80061497 -138.59228516 348.20214844 C-139.11483887 348.91661133 -139.63739258 349.63107422 -140.17578125 350.3671875 C-140.64540283 351.0154248 -141.11502441 351.66366211 -141.59887695 352.33154297 C-143.50175454 354.5974892 -145.1927194 355.88739021 -148.15625 356.30078125 C-148.9296875 356.30464844 -149.703125 356.30851562 -150.5 356.3125 C-151.2734375 356.32925781 -152.046875 356.34601563 -152.84375 356.36328125 C-155 356 -155 356 -156.75390625 354.8203125 C-159.47848613 350.84020522 -158.4723164 345.58744093 -158 341 C-154.35644551 324.01966117 -143.41603544 308.39680741 -134.62402344 293.72216797 C-127.32880896 281.49401982 -120.27415553 269.11974507 -113.43994141 256.62841797 C-112.42250708 254.77122945 -111.40094646 252.91629863 -110.37646484 251.06298828 C-100.56204926 233.27694241 -91.6832768 215.15307443 -83.13311768 196.73023987 C-80.80940345 191.72520084 -78.45653772 186.73502911 -76.08203125 181.75390625 C-51.89437785 130.94032168 -28.64882251 76.53761084 -20.55541992 20.47851562 C-19.37994465 13.09103447 -16.94268741 4.97266602 -11 0 C-7.111745 -1.296085 -3.85323432 -1.30383543 0 0 Z " fill="#4274B9" transform="translate(735,3)"/>
<path d="M0 0 C1.57394531 -0.05607422 1.57394531 -0.05607422 3.1796875 -0.11328125 C6.83713448 0.41544782 7.92622082 1.39272578 10.125 4.3125 C14.47266181 15.04719076 8.28853107 30.84433494 5.125 41.3125 C4.8583252 42.19631348 4.59165039 43.08012695 4.31689453 43.99072266 C-10.25226928 91.40580929 -32.92935253 136.97720048 -58.20556641 179.4921875 C-60.92087308 184.07938005 -63.5851233 188.69588879 -66.25 193.3125 C-67.15359021 194.87503217 -68.05722988 196.43753573 -68.9609375 198 C-69.59257813 199.093125 -70.22421875 200.18625 -70.875 201.3125 C-70.02119751 201.6367395 -70.02119751 201.6367395 -69.15014648 201.9675293 C-66.53350581 202.96800174 -63.9230931 203.98385719 -61.3125 205 C-59.96961914 205.50950195 -59.96961914 205.50950195 -58.59960938 206.02929688 C-53.06951794 208.19676861 -48.44255882 210.48164422 -43.875 214.3125 C-42.9375 217.625 -42.9375 217.625 -42.875 220.3125 C-54.16232595 230.10711799 -74.35543691 231.70812842 -88.875 231.3125 C-89.12540039 232.13548584 -89.37580078 232.95847168 -89.63378906 233.80639648 C-91.06154331 237.83943714 -92.84100415 241.57947238 -94.734375 245.41015625 C-95.1151268 246.18829178 -95.4958786 246.96642731 -95.88816833 247.7681427 C-97.13045566 250.30540577 -98.37779035 252.84015347 -99.625 255.375 C-100.93017699 258.03846968 -102.23398208 260.7026082 -103.5377655 263.36676025 C-104.41168823 265.15225224 -105.28604808 266.93753034 -106.1608429 268.72259521 C-109.82330534 276.19728444 -113.44968352 283.68870027 -117.0625 291.1875 C-117.61019043 292.31913574 -118.15788086 293.45077148 -118.72216797 294.61669922 C-121.49050573 300.34008598 -124.23824683 306.07149723 -126.94654846 311.82348633 C-128.36098691 314.82260562 -129.78580696 317.81673492 -131.21182251 320.81036377 C-131.89143829 322.24375193 -132.56641175 323.67935263 -133.23617554 325.11737061 C-138.96944015 337.42093132 -147.6407316 353.74017646 -160.875 359.3125 C-164.0625 359.625 -164.0625 359.625 -166.875 359.3125 C-168.875 357.3125 -168.875 357.3125 -169.3125 353.6875 C-169.00707173 343.0144788 -164.17042197 332.63170122 -159.81640625 323.0625 C-159.42570953 322.19944748 -159.03501282 321.33639496 -158.63247681 320.44718933 C-154.62036559 311.64861521 -150.36342543 302.97453786 -146.0758667 294.30776978 C-138.92614457 279.84096219 -131.91411242 265.32235697 -125.25 250.625 C-124.94044373 249.94426422 -124.63088745 249.26352844 -124.31195068 248.56216431 C-118.4772524 237.33776409 -118.4772524 237.33776409 -115.875 225.3125 C-116.85339844 224.81621094 -117.83179688 224.31992187 -118.83984375 223.80859375 C-140.09252712 212.8649264 -140.09252712 212.8649264 -142.875 205.3125 C-143 202.6875 -143 202.6875 -141.875 200.3125 C-133.29113198 195.50553391 -123.52970767 196.05682993 -113.9375 195.75 C-112.68130859 195.70681641 -111.42511719 195.66363281 -110.13085938 195.61914062 C-107.04567032 195.51356381 -103.96040737 195.41145449 -100.875 195.3125 C-100.4123877 194.38203857 -99.94977539 193.45157715 -99.47314453 192.49291992 C-97.7046777 188.93745815 -95.93328128 185.38346195 -94.16113281 181.82983398 C-93.40418649 180.3110075 -92.6479661 178.79181893 -91.89257812 177.2722168 C-87.68704766 168.81336574 -83.41757172 160.39696554 -78.9921875 152.05078125 C-73.43512751 141.56295457 -68.15169322 130.94343056 -62.875 120.3125 C-57.13240122 108.74291156 -51.34003175 97.21237853 -45.29698181 85.7963562 C-32.76022876 62.10475242 -21.41389549 37.39851354 -14.88720703 11.29956055 C-13.59459745 6.45675917 -12.31237686 4.08057794 -7.875 1.3125 C-5.18932703 -0.03033649 -2.99753147 0.06962481 0 0 Z " fill="#4274B9" transform="translate(1248.875,424.6875)"/>
<path d="M0 0 C3.3967342 2.55587598 4.4176063 5.01653963 5.03125 9.13671875 C4.37546651 13.72720321 2.4757487 16.62178152 -1.08837891 19.60913086 C-6.00105442 23.26895539 -11.06209931 26.5590581 -16.28125 29.76171875 C-38.36230342 43.58730177 -63.72465936 60.67502525 -73.40625 86.19921875 C-73.92325501 89.18024765 -73.81785179 91.11220533 -73.40625 94.19921875 C-71.53609906 96.63041498 -70.12486655 97.83991048 -67.40625 99.19921875 C-58.41194109 99.98819322 -51.57805592 96.67878316 -44.6171875 91.12109375 C-30.73798787 79.05648913 -20.24520473 64.84224155 -11.51147461 48.69873047 C-6.81218786 40.10096157 -0.42421351 30.70820051 8.59375 26.19921875 C11.81457643 25.82758493 14.41716431 25.53222006 17.31640625 27.17578125 C21.04979958 30.1661651 23.26832023 32.86444936 23.9296875 37.609375 C24.12061556 50.57339055 18.64017734 58.94354494 11.4140625 69.15234375 C2.13657213 82.3272559 -5.11634418 95.88939833 -4.46875 112.3828125 C-4.35692391 117.42197576 -5.19380913 120.72959345 -8.46875 124.69921875 C-12.02896817 126.51720249 -14.20677599 126.69671132 -18.1171875 126.08203125 C-22.39140612 124.43361246 -24.95319795 120.95180433 -27.40625 117.19921875 C-28.59320553 113.63835217 -28.75720418 110.22590851 -28.96875 106.51171875 C-29.03352539 105.45887695 -29.03352539 105.45887695 -29.09960938 104.38476562 C-29.2054236 102.65646669 -29.30631581 100.92786765 -29.40625 99.19921875 C-30.06625 99.19921875 -30.72625 99.19921875 -31.40625 99.19921875 C-31.40625 99.85921875 -31.40625 100.51921875 -31.40625 101.19921875 C-32.8046875 102.609375 -32.8046875 102.609375 -34.78125 104.26171875 C-37.96702074 106.95651256 -41.04526276 109.72530515 -44.09375 112.57421875 C-53.75945662 121.26149494 -65.82752582 131.12275452 -79.28125 131.82421875 C-82.89962665 131.62405323 -84.16829087 131.36314615 -87.21875 129.26171875 C-88.3015625 127.74578125 -88.3015625 127.74578125 -89.40625 126.19921875 C-89.89609375 125.55597656 -90.3859375 124.91273438 -90.890625 124.25 C-100.70881948 110.7135289 -102.53371558 94.0561112 -100.04003906 77.81396484 C-96.17691945 60.00426062 -84.779779 47.75241179 -72.40625 35.19921875 C-71.39603135 34.15210571 -70.38682081 33.10401856 -69.37890625 32.0546875 C-63.41573944 25.93752212 -57.13926611 20.45059622 -50.40625 15.19921875 C-49.46007812 14.43609375 -48.51390625 13.67296875 -47.5390625 12.88671875 C-35.01083425 3.05023185 -15.85489841 -9.25952059 0 0 Z " fill="#4274B9" transform="translate(386.40625,236.80078125)"/>
<path d="M0 0 C5.13910101 5.39605606 5.36130562 9.29077312 5.265625 16.5625 C4.47252779 26.8261109 -2.52860714 38.07574643 -10.109375 44.8984375 C-12 46 -12 46 -14.75 45.6875 C-15.4925 45.460625 -16.235 45.23375 -17 45 C-18.60818758 40.6406155 -19.37938082 36.61229275 -19.875 32 C-20.74517141 25.55529297 -21.62870146 21.76928095 -26.75 17.5625 C-33.04556491 15.98860877 -37.56517695 18.07134311 -43 21.125 C-51.71276623 26.31244546 -51.71276623 26.31244546 -58 34 C-57.29230469 34.24621094 -56.58460938 34.49242187 -55.85546875 34.74609375 C-45.41020183 39.33286623 -33.51800831 49.68039163 -27 59 C-24.07572379 68.03725786 -25.03480587 80.95201852 -27.85546875 89.859375 C-30.96919121 95.68299243 -35.08556556 99.18178562 -40.8125 102.3125 C-41.49916748 102.69003418 -42.18583496 103.06756836 -42.89331055 103.45654297 C-61.07708693 113.07259975 -81.06802846 118.39382486 -101 123 C-102.11375 123.2587793 -103.2275 123.51755859 -104.375 123.78417969 C-126.04389317 128.7311579 -147.99403071 131.97350631 -170 135 C-170.74538025 135.10304443 -171.4907605 135.20608887 -172.25872803 135.31225586 C-174.40470028 135.60574034 -176.55161883 135.89057344 -178.69921875 136.171875 C-179.91826904 136.33268555 -181.13731934 136.49349609 -182.39331055 136.65917969 C-193.13676669 137.67440102 -193.13676669 137.67440102 -196 135.4375 C-197.40962258 132.00154495 -197.5168609 129.68263393 -197 126 C-191.57797228 118.71415025 -182.53051008 116.29846847 -174.109375 114.08984375 C-173.15947693 113.83605453 -172.20957886 113.58226532 -171.230896 113.32078552 C-160.76807013 110.58484843 -150.19376638 108.40257258 -139.59927368 106.2461853 C-111.5731854 100.54336559 -111.5731854 100.54336559 -84 93 C-83.17161621 92.74412109 -82.34323242 92.48824219 -81.48974609 92.22460938 C-64.93744329 87.40649399 -64.93744329 87.40649399 -53 76 C-52.25459576 72.40850685 -52.23777839 70.21273598 -54.22265625 67.0546875 C-60.96678681 58.92346625 -69.9374354 52.92378744 -78.5546875 46.95703125 C-82.23593686 44.01085564 -84.73171172 41.52030024 -85.5625 36.8125 C-83.68245711 24.06998711 -73.83733691 15.6824504 -64.38671875 7.828125 C-46.42701502 -5.45794061 -20.31953986 -12.15025547 0 0 Z " fill="#4274B9" transform="translate(802,268)"/>
<path d="M0 0 C1.03060547 0.40025391 1.03060547 0.40025391 2.08203125 0.80859375 C6.47345662 2.88874261 8.4972458 5.61181884 10.34375 9.93359375 C12.75310678 17.52019934 9.89408263 25.25009903 6.453125 32.0625 C-0.6411395 44.61872035 -0.6411395 44.61872035 -5 48 C-8.25 48.625 -8.25 48.625 -11 48 C-13.39696572 44.40455142 -13.45460189 42.08940725 -13.875 37.8125 C-14.56591843 31.7667825 -15.67171754 27.14370926 -19 22 C-22.59031062 19.60645959 -24.8635614 19.18735454 -29 20 C-37.96103981 23.36198783 -44.90611405 28.71604591 -52 35 C-48.85553978 37.53997988 -45.67091008 40.01511975 -42.44482422 42.45043945 C-21.71483399 58.16070874 -21.71483399 58.16070874 -20.61181641 65.62792969 C-20.60674072 67.01093262 -20.60674072 67.01093262 -20.6015625 68.421875 C-20.59769531 69.44796875 -20.59382813 70.4740625 -20.58984375 71.53125 C-20.60724609 73.12453125 -20.60724609 73.12453125 -20.625 74.75 C-20.61339844 75.79671875 -20.60179687 76.8434375 -20.58984375 77.921875 C-20.61718696 85.21339799 -21.2186825 92.00048011 -25.48046875 98.12890625 C-57.65799386 125.15213672 -111.14075047 130.00476182 -151.1875 135.875 C-152.21352325 136.02638428 -153.23954651 136.17776855 -154.29666138 136.33374023 C-165.85405169 138.02573838 -177.32426321 139.48721038 -189 140 C-191.69943283 135.95085076 -191.75563911 132.75213041 -191 128 C-185.93561712 119.7469316 -172.50453843 117.65752805 -163.6809082 115.52929688 C-162.01354614 115.14354492 -162.01354614 115.14354492 -160.3125 114.75 C-159.09844482 114.46189453 -157.88438965 114.17378906 -156.63354492 113.87695312 C-146.30794769 111.44688541 -135.92902533 109.26861816 -125.55056763 107.07815552 C-83.39535348 100.62622665 -83.39535348 100.62622665 -48 80 C-46.86594128 76.35481125 -46.74574622 74.60586423 -48.234375 71.05859375 C-53.28136889 62.31568177 -63.0993903 56.62975048 -71.28564453 51.07373047 C-71.99575684 50.58791504 -72.70586914 50.10209961 -73.4375 49.6015625 C-74.07558594 49.17182129 -74.71367188 48.74208008 -75.37109375 48.29931641 C-77.66171159 46.4721779 -78.8738139 44.7358642 -79.37109375 41.8359375 C-79.6028917 33.24577827 -76.9978093 28.37308735 -71.34765625 22.015625 C-53.1344821 2.80726095 -26.30538934 -10.31671466 0 0 Z " fill="#4274B9" transform="translate(1245,677)"/>
<path d="M0 0 C5.60086948 0.94929991 9.21868993 2.63499926 12.625 7.25 C15.71642171 17.06981015 12.40998772 25.86129044 9.1875 35.25 C8.75254113 36.55293049 8.31893704 37.85631407 7.88671875 39.16015625 C6.83350338 42.31980236 5.76689229 45.47422074 4.6875 48.625 C5.30625 48.15787598 5.925 47.69075195 6.5625 47.20947266 C8.56144367 45.71899191 10.5846964 44.33889448 12.6875 43 C13.3475 42.57460938 14.0075 42.14921875 14.6875 41.7109375 C19.94472185 38.85643032 25.75621094 38.85995435 31.44140625 40.34375 C38.79673908 42.82554938 44.18005797 45.42234555 47.9375 52.5 C59.06482325 77.15556272 51.42855399 108.93527387 42.3984375 133.0703125 C40.09556863 138.5229117 37.43428698 143.90861312 32.6875 147.625 C28.41906652 149.0732185 26.60472423 149.03865014 22.5 147.1875 C17.9845236 143.07339928 15.27128057 137.75469594 14.6875 131.625 C14.62433594 130.98820313 14.56117188 130.35140625 14.49609375 129.6953125 C14.04643928 121.07935269 16.56709935 112.89120803 18.6875 104.625 C19.47185368 101.56570049 20.24042258 98.50303348 21 95.4375 C21.18336914 94.74325928 21.36673828 94.04901855 21.55566406 93.33374023 C22.60194934 89.10371409 22.8168551 85.84753325 21.6875 81.625 C19.342169 78.81060281 17.70137068 78.62715235 14.0625 78.0625 C6.49204154 78.40021562 0.46006476 83.47827175 -4.5 88.8125 C-13.73193758 99.96852878 -20.20356365 113.02827037 -25.1640625 126.578125 C-25.463125 127.39015381 -25.7621875 128.20218262 -26.0703125 129.03881836 C-26.63395123 130.59786974 -27.17933084 132.16368654 -27.703125 133.73657227 C-29.51126604 138.78144556 -31.35530533 141.09435863 -36.3125 143.625 C-40.16988288 144.26789715 -41.88413786 143.84355211 -45.375 142.0625 C-50.65483904 137.68135697 -54.65718359 132.24379636 -55.63671875 125.33984375 C-56.09364247 118.60783428 -56.09364247 118.60783428 -54.15893555 116.17358398 C-53.6669165 115.64321533 -53.17489746 115.11284668 -52.66796875 114.56640625 C-48.32095132 109.80202377 -45.84920561 104.23366444 -43.125 98.4375 C-42.84393402 97.84455139 -42.56286804 97.25160278 -42.27328491 96.64068604 C-34.03558012 79.22811655 -27.35377628 61.25534756 -20.765625 43.171875 C-20.16369576 41.52253464 -20.16369576 41.52253464 -19.54960632 39.83987427 C-17.52214708 34.28230329 -15.50441076 28.7215806 -13.50512695 23.15380859 C-12.75494191 21.08422946 -12.00454419 19.01472741 -11.25390625 16.9453125 C-10.9157489 15.9933197 -10.57759155 15.0413269 -10.22918701 14.06048584 C-5.47889133 1.03375308 -5.47889133 1.03375308 0 0 Z " fill="#4274B9" transform="translate(497.3125,218.375)"/>
<path d="M0 0 C2.51262212 2.51262212 2.93168551 3.52179859 3.4375 7.0625 C2.83301503 12.50286474 0.55664343 15.91312304 -3 20 C-7.06811177 22.91842801 -10.00272136 23.16004909 -14.9453125 22.9921875 C-33.90929 23.06429388 -52.62902206 39.06557341 -66 51 C-67.15628906 51.97453125 -67.15628906 51.97453125 -68.3359375 52.96875 C-74.73585061 58.36331277 -79.86612052 64.53981228 -85 71.125 C-89.50176041 76.79582223 -94.7989727 83.17236584 -102.33203125 84.37109375 C-107.76792089 84.5166215 -111.37080336 84.05335483 -115.58984375 80.47265625 C-118.4037197 77.53406557 -119.9832836 75.04434475 -120.01733398 70.88012695 C-119.42191624 64.05754489 -117.57010185 58.22254901 -115.0625 51.875 C-114.66571045 50.84818115 -114.2689209 49.8213623 -113.86010742 48.76342773 C-112.590375 45.50197761 -111.29799672 42.25029566 -110 39 C-109.56880859 37.90993652 -109.13761719 36.81987305 -108.69335938 35.69677734 C-107.4148748 32.47900227 -106.1180354 29.26938563 -104.8125 26.0625 C-104.4213501 25.08716309 -104.0302002 24.11182617 -103.62719727 23.10693359 C-100.41989122 15.37272887 -96.50174701 6.39126654 -89 2 C-85.5 0.9375 -85.5 0.9375 -82 1 C-79.13133729 2.65744956 -78.41765335 3.14808017 -77 6 C-76.00033391 10.30585342 -75.43126438 14.60367803 -75 19 C-74.54786133 18.67314209 -74.09572266 18.34628418 -73.62988281 18.00952148 C-54.24307997 4.03933043 -24.26802564 -16.17868376 0 0 Z " fill="#4274B9" transform="translate(983,703)"/>
<path d="M0 0 C0.99 0.66 1.98 1.32 3 2 C3.33 0.68 3.66 -0.64 4 -2 C9.61 -2 15.22 -2 21 -2 C21.09077477 6.54574641 21.16398679 15.09111091 21.20724869 23.6372118 C21.22802399 27.60655097 21.25615443 31.57554 21.30175781 35.54467773 C21.34557889 39.38320489 21.3692125 43.22139766 21.37950897 47.06015587 C21.38683596 48.51643822 21.40114185 49.97270461 21.42292023 51.42884254 C21.57298767 61.889332 21.05770759 71.76310756 13.8125 79.9375 C4.47801399 88.30842617 -7.08273781 88.55638692 -18.97802734 88.13183594 C-26.86995366 87.61726938 -34.18699816 84.34796169 -40 79 C-46 70.94639175 -46 70.94639175 -46 67 C-42.75017 66.91271118 -39.5006425 66.85951342 -36.25 66.8125 C-35.32960938 66.78736328 -34.40921875 66.76222656 -33.4609375 66.73632812 C-32.57148437 66.72666016 -31.68203125 66.71699219 -30.765625 66.70703125 C-29.94868164 66.6913208 -29.13173828 66.67561035 -28.29003906 66.65942383 C-25.47234996 67.07847247 -24.15928291 68.19481172 -22 70 C-15.82131634 72.14746932 -8.35240251 72.00740428 -2.4375 69.25 C0.57523407 67.67160294 1.76211137 66.17094625 3 63 C3.16750414 60.33290931 3.16750414 60.33290931 3 58 C2.46890625 58.27714844 1.9378125 58.55429687 1.390625 58.83984375 C0.33101562 59.38318359 0.33101562 59.38318359 -0.75 59.9375 C-1.44609375 60.29714844 -2.1421875 60.65679688 -2.859375 61.02734375 C-9.603819 64.09188126 -17.65416132 63.95081176 -24.6875 61.875 C-33.24180361 58.57548289 -38.64811305 52.96921974 -43 45 C-47.38787754 34.82256182 -46.93018499 24.5863222 -43.45703125 14.19140625 C-39.65891158 5.87220043 -33.42497101 0.28431073 -25 -3 C-16.1921282 -5.62975313 -8.04499402 -4.11255291 0 0 Z M-25.375 18.375 C-29.08294752 24.36476138 -29.50579683 29.23646258 -28 36 C-25.86063641 40.95431569 -21.82225973 44.58887014 -17 47 C-11.74424835 47.5238576 -7.35473905 47.66505372 -2.5625 45.3125 C1.62637455 41.53229613 4.62142508 38.34768397 5.2734375 32.58203125 C5.52594206 25.69642618 4.62369035 21.22733881 0 16 C-7.86494587 9.03390509 -18.54282805 11.54282805 -25.375 18.375 Z " fill="#929497" transform="translate(763,938)"/>
<path d="M0 0 C15.84 0 31.68 0 48 0 C48 5.61 48 11.22 48 17 C37.77 17 27.54 17 17 17 C17 21.95 17 26.9 17 32 C27.23 32 37.46 32 48 32 C48 37.61 48 43.22 48 49 C37.77 49 27.54 49 17 49 C17 56.26 17 63.52 17 71 C27.23 71 37.46 71 48 71 C48 76.61 48 82.22 48 88 C32.16 88 16.32 88 0 88 C0 58.96 0 29.92 0 0 Z " fill="#929397" transform="translate(587,913)"/>
<path d="M0 0 C7.23327923 6.13858754 11.08324844 14.36349101 12.0390625 23.73046875 C12.0390625 26.70046875 12.0390625 29.67046875 12.0390625 32.73046875 C-13.2059375 33.22546875 -13.2059375 33.22546875 -38.9609375 33.73046875 C-35.91361057 39.84056354 -35.91361057 39.84056354 -30.9609375 43.73046875 C-25.66477012 45.49585788 -19.02688014 45.92640382 -13.7578125 43.87109375 C-12.11898782 42.88779894 -10.53583124 41.8132082 -8.9609375 40.73046875 C-7.1640625 39.91796875 -7.1640625 39.91796875 -4.9609375 39.73046875 C-1.9453125 40.9453125 -1.9453125 40.9453125 1.2890625 42.66796875 C2.36671875 43.23386719 3.444375 43.79976562 4.5546875 44.3828125 C5.37453125 44.82753906 6.194375 45.27226563 7.0390625 45.73046875 C6.31126487 50.33985376 3.81703101 52.16511396 0.35546875 55.05078125 C-7.44959335 60.71043842 -16.39121499 62.60932082 -25.9609375 61.73046875 C-35.94857439 60.12043985 -43.95478513 56.86324968 -50.3359375 48.79296875 C-56.21329745 40.24556162 -58.15155267 31.12640876 -56.5 20.8671875 C-54.28021085 10.59086947 -49.95744561 3.35003469 -41.37109375 -2.828125 C-28.33571826 -10.62399786 -12.05390398 -8.62514331 0 0 Z M-34.9609375 11.73046875 C-36.2809375 14.04046875 -37.6009375 16.35046875 -38.9609375 18.73046875 C-28.0709375 18.73046875 -17.1809375 18.73046875 -5.9609375 18.73046875 C-8.13148538 13.30409904 -9.92110088 11.50476669 -14.828125 8.640625 C-21.25479054 5.89811022 -29.68897764 7.13764783 -34.9609375 11.73046875 Z " fill="#929397" transform="translate(1439.9609375,941.26953125)"/>
<path d="M0 0 C5.61 0 11.22 0 17 0 C17.495 14.355 17.495 14.355 18 29 C20.97 27.35 23.94 25.7 27 24 C34.47463334 22.13134167 41.10748675 22.37924937 48 26 C52.9011995 29.02721146 55.1530584 32.55638264 57 38 C57.78796098 41.35348238 58.12280081 44.44090095 58.11352539 47.88208008 C58.11344986 48.82267776 58.11337433 49.76327545 58.11329651 50.7323761 C58.10813522 51.7346373 58.10297394 52.7368985 58.09765625 53.76953125 C58.0962413 54.80567062 58.09482635 55.84181 58.09336853 56.90934753 C58.08778242 60.21042804 58.07523242 63.51144008 58.0625 66.8125 C58.05748321 69.05403548 58.05292061 71.29557202 58.04882812 73.53710938 C58.03781753 79.02476586 58.02056239 84.51237133 58 90 C52.39 90 46.78 90 41 90 C40.95101562 87.3496875 40.90203125 84.699375 40.8515625 81.96875 C40.79743607 79.38048015 40.74017458 76.79229713 40.68261719 74.20410156 C40.64451233 72.41575687 40.60962838 70.62734035 40.578125 68.83886719 C40.53206987 66.25690165 40.47414572 63.67542275 40.4140625 61.09375 C40.40251129 60.30383667 40.39096008 59.51392334 40.37905884 58.70007324 C40.22132493 52.6654123 39.77200046 46.62518587 36.3125 41.5 C32.9825658 39.34004268 30.90066188 39.46197767 27 40 C22.468531 42.17859087 20.47259143 44.30722642 18.60458374 48.95706177 C17.50604263 52.66912262 17.51837449 56.36743789 17.48828125 60.21484375 C17.47033005 61.07058487 17.45237885 61.92632599 17.43388367 62.80799866 C17.38007969 65.51778361 17.34598187 68.2273955 17.3125 70.9375 C17.27930044 72.78452914 17.24480836 74.63153552 17.20898438 76.47851562 C17.12195751 80.98569786 17.0616354 85.49211433 17 90 C11.39 90 5.78 90 0 90 C0 60.3 0 30.6 0 0 Z " fill="#929397" transform="translate(911,911)"/>
<path d="M0 0 C5.43208964 4.05399793 7.19499474 9.49004176 8.2734375 15.93359375 C8.35538928 17.55932945 8.39135048 19.1878798 8.38696289 20.81567383 C8.38688736 21.75627151 8.38681183 22.6968692 8.38673401 23.66596985 C8.38157272 24.66823105 8.37641144 25.67049225 8.37109375 26.703125 C8.3696788 27.73926437 8.36826385 28.77540375 8.36680603 29.84294128 C8.36121992 33.14402179 8.34866992 36.44503383 8.3359375 39.74609375 C8.33092071 41.98762923 8.32635811 44.22916577 8.32226562 46.47070312 C8.31125503 51.95835961 8.29399989 57.44596508 8.2734375 62.93359375 C2.6634375 62.93359375 -2.9465625 62.93359375 -8.7265625 62.93359375 C-8.77554687 60.28328125 -8.82453125 57.63296875 -8.875 54.90234375 C-8.92912643 52.3140739 -8.98638792 49.72589088 -9.04394531 47.13769531 C-9.08205017 45.34935062 -9.11693412 43.5609341 -9.1484375 41.77246094 C-9.19449263 39.1904954 -9.25241678 36.6090165 -9.3125 34.02734375 C-9.32405121 33.23743042 -9.33560242 32.44751709 -9.34750366 31.63366699 C-9.50523757 25.59900605 -9.95456204 19.55877962 -13.4140625 14.43359375 C-16.7439967 12.27363643 -18.82590062 12.39557142 -22.7265625 12.93359375 C-26.96543482 14.88999636 -28.41573244 16.2535344 -30.36645508 20.52148438 C-31.95181463 25.04453303 -32.19977347 29.26706554 -32.23828125 34.02734375 C-32.25623245 34.85947388 -32.27418365 35.691604 -32.29267883 36.5489502 C-32.34636877 39.17711489 -32.38054321 41.8051024 -32.4140625 44.43359375 C-32.44727219 46.22788903 -32.48176517 48.02216104 -32.51757812 49.81640625 C-32.60446069 54.18882172 -32.66487922 58.56046168 -32.7265625 62.93359375 C-38.3365625 62.93359375 -43.9465625 62.93359375 -49.7265625 62.93359375 C-49.7265625 41.48359375 -49.7265625 20.03359375 -49.7265625 -2.06640625 C-44.1165625 -2.06640625 -38.5065625 -2.06640625 -32.7265625 -2.06640625 C-32.3965625 -0.74640625 -32.0665625 0.57359375 -31.7265625 1.93359375 C-31.12328125 1.58425781 -30.52 1.23492188 -29.8984375 0.875 C-29.09921875 0.41996094 -28.3 -0.03507813 -27.4765625 -0.50390625 C-26.29320312 -1.18259766 -26.29320312 -1.18259766 -25.0859375 -1.875 C-16.88099699 -6.01822327 -7.64830776 -4.72395479 0 0 Z " fill="#929496" transform="translate(1100.7265625,938.06640625)"/>
<path d="M0 0 C5.627987 5.78431997 6.70544801 11.35714105 6.70318604 19.14709473 C6.68254089 20.24324097 6.66189575 21.33938721 6.640625 22.46875 C6.63496521 23.61162476 6.62930542 24.75449951 6.62347412 25.93200684 C6.60119848 29.55927552 6.55101625 33.18553309 6.5 36.8125 C6.47992371 39.28123567 6.46167493 41.74998692 6.4453125 44.21875 C6.4013622 50.25038578 6.33239383 56.28127183 6.25 62.3125 C0.97 62.3125 -4.31 62.3125 -9.75 62.3125 C-9.81058594 60.05792969 -9.87117187 57.80335938 -9.93359375 55.48046875 C-9.99567387 53.25949706 -10.05893994 51.03856204 -10.12231445 48.81762695 C-10.16521661 47.29227058 -10.20691568 45.76687981 -10.24731445 44.24145508 C-9.64104818 28.70260599 -9.64104818 28.70260599 -13.75 14.3125 C-17.4014652 11.82919422 -20.40427779 12.11738688 -24.62890625 12.70703125 C-27.94158395 13.65263907 -29.08575493 15.38342868 -30.75 18.3125 C-33.10408669 22.9429188 -33.09309461 27.24947426 -33.1640625 32.33203125 C-33.18342865 33.19060226 -33.2027948 34.04917328 -33.2227478 34.9337616 C-33.28231556 37.66407474 -33.32883734 40.39443057 -33.375 43.125 C-33.41320079 44.98113773 -33.45225375 46.83725812 -33.4921875 48.69335938 C-33.58959555 53.23298048 -33.66934419 57.7724269 -33.75 62.3125 C-39.36 62.3125 -44.97 62.3125 -50.75 62.3125 C-50.75 40.8625 -50.75 19.4125 -50.75 -2.6875 C-45.14 -2.6875 -39.53 -2.6875 -33.75 -2.6875 C-33.42 -1.3675 -33.09 -0.0475 -32.75 1.3125 C-31.904375 0.69375 -31.05875 0.075 -30.1875 -0.5625 C-20.42642557 -6.99386212 -9.57575016 -5.8760285 0 0 Z " fill="#929497" transform="translate(698.75,938.6875)"/>
<path d="M0 0 C3.93261346 1.81150536 7.03426608 3.97390771 10 7.125 C12.73452367 14.98675556 11.19010329 22.21606772 7.7890625 29.59765625 C0.12031763 44.18166669 -9.35279897 57.67385448 -19 71 C-19.49483887 71.68626465 -19.98967773 72.3725293 -20.49951172 73.07958984 C-21.81917998 74.8971768 -23.15446538 76.70150795 -24.5 78.5 C-25.59828125 79.96953125 -25.59828125 79.96953125 -26.71875 81.46875 C-30.88998029 86.09710142 -35.1748673 88.68609637 -41.375 89.375 C-45 89 -45 89 -47.875 86.625 C-50.99002972 82.77702211 -51.47211073 80.34871411 -51.40234375 75.48828125 C-50.64985016 70.83451022 -47.79269161 67.67007658 -45 64 C-39.59266359 56.86240085 -34.80409804 49.63810423 -30.5625 41.75 C-30.00900879 40.72656494 -29.45551758 39.70312988 -28.88525391 38.64868164 C-23.70938209 28.85079976 -19.69713576 18.72744456 -15.87402344 8.34326172 C-12.24744392 -1.37961823 -10.33030533 -3.06138976 0 0 Z " fill="#4274B9" transform="translate(1057,699)"/>
<path d="M0 0 C5.61 0 11.22 0 17 0 C17.01458252 1.17506104 17.02916504 2.35012207 17.04418945 3.56079102 C17.10239511 7.94260272 17.17962608 12.32391248 17.26245117 16.70532227 C17.29559607 18.59749167 17.32366017 20.48975746 17.34643555 22.38208008 C17.38017421 25.11060454 17.43249865 27.838254 17.48828125 30.56640625 C17.49467117 31.40522842 17.5010611 32.2440506 17.50764465 33.10829163 C17.63967015 38.44623917 18.44349906 42.27922529 21 47 C24.21856197 49.28875518 26.11858134 50 30.0625 50 C33.79484543 48.72941432 35.52531394 47.04032859 38 44 C38.89157523 41.27034542 39.14196158 38.73430572 39.20532227 35.87402344 C39.22526749 35.07349548 39.24521271 34.27296753 39.26576233 33.44818115 C39.28247482 32.59387512 39.29918732 31.73956909 39.31640625 30.859375 C39.33718735 29.97719299 39.35796844 29.09501099 39.37937927 28.18609619 C39.44464867 25.37414169 39.50365447 22.56209555 39.5625 19.75 C39.60570673 17.84113644 39.64932171 15.93228207 39.69335938 14.0234375 C39.80030687 9.34905174 39.90163785 4.67457398 40 0 C45.61 0 51.22 0 57 0 C57.07486735 5.61927468 57.12893696 11.2382509 57.16479492 16.85791016 C57.17976338 18.76453721 57.20014546 20.67113055 57.22631836 22.57763672 C57.59558112 50.19269869 57.59558112 50.19269869 49.84375 59.3125 C42.76583174 65.79059468 34.37139387 67.35405502 25 67 C16.66170033 66.02736723 10.41362394 63.56157311 5 57 C0.16613782 49.57304557 -0.14530158 42.53311452 -0.09765625 33.88671875 C-0.0962413 32.91716751 -0.09482635 31.94761627 -0.09336853 30.94868469 C-0.08778513 27.86159133 -0.07523564 24.77457133 -0.0625 21.6875 C-0.05748286 19.59049584 -0.05292032 17.49349054 -0.04882812 15.39648438 C-0.03782112 10.26429479 -0.02056788 5.13215982 0 0 Z " fill="#929497" transform="translate(1278,936)"/>
<path d="M0 0 C2.67411605 2.10610572 3.98444993 3.45725603 5.07421875 6.7265625 C1.77421875 10.0265625 -1.52578125 13.3265625 -4.92578125 16.7265625 C-8.92578125 14.7265625 -8.92578125 14.7265625 -11.30078125 13.1015625 C-14.39358498 11.48152245 -16.48290639 11.48636193 -19.92578125 11.7265625 C-20.25578125 13.0465625 -20.58578125 14.3665625 -20.92578125 15.7265625 C-20.14714722 16.14168091 -20.14714722 16.14168091 -19.3527832 16.56518555 C-16.97622608 17.83895654 -14.60731022 19.12634822 -12.23828125 20.4140625 C-11.42166016 20.84912109 -10.60503906 21.28417969 -9.76367188 21.73242188 C-2.77671021 25.55120659 2.92375569 29.86166326 5.76171875 37.6015625 C6.85534474 45.03821921 5.35677025 50.09138789 1.38671875 56.4140625 C-4.1769529 61.97773415 -10.23570028 63.37454909 -17.96875 63.75390625 C-27.2483169 63.66809784 -33.08027756 60.47340209 -39.65234375 54.03515625 C-40.07257813 53.60332031 -40.4928125 53.17148437 -40.92578125 52.7265625 C-39.4815349 49.48794947 -37.66805878 47.10687087 -35.30078125 44.4765625 C-34.66914062 43.77015625 -34.0375 43.06375 -33.38671875 42.3359375 C-32.90460938 41.80484375 -32.4225 41.27375 -31.92578125 40.7265625 C-29.04022348 41.30730369 -27.98778481 41.66987353 -25.73828125 43.7265625 C-21.98517432 46.39543854 -18.48302988 46.77132919 -13.92578125 46.7265625 C-12.93578125 46.2315625 -12.93578125 46.2315625 -11.92578125 45.7265625 C-11.56023295 43.35042059 -11.56023295 43.35042059 -11.92578125 40.7265625 C-13.76635751 39.0128612 -13.76635751 39.0128612 -16.30078125 37.7890625 C-17.21085937 37.28117188 -18.1209375 36.77328125 -19.05859375 36.25 C-20.90405916 35.26943936 -22.75278479 34.29497756 -24.60546875 33.328125 C-30.77269648 29.93521248 -35.30400276 26.44486988 -37.92578125 19.7265625 C-38.83483651 14.27223093 -38.873897 8.85070722 -36.42578125 3.7890625 C-26.98272211 -7.77868495 -12.00801004 -7.94038798 0 0 Z " fill="#929496" transform="translate(1158.92578125,939.2734375)"/>
<path d="M0 0 C2.86194195 2.15003986 5.46331106 4.47713498 8 7 C6.52278578 10.45201639 4.56205999 12.64961936 1.875 15.25 C1.15054688 15.95640625 0.42609375 16.6628125 -0.3203125 17.390625 C-0.87460937 17.92171875 -1.42890625 18.4528125 -2 19 C-2.49628906 18.6390625 -2.99257813 18.278125 -3.50390625 17.90625 C-8.29486975 14.63348556 -11.20245406 13.39608896 -17 14 C-17 15.32 -17 16.64 -17 18 C-15.92621094 18.58007812 -14.85242188 19.16015625 -13.74609375 19.7578125 C3.76744489 29.32708675 3.76744489 29.32708675 7.9375 36.1875 C9.66315663 42.37956204 10.44948618 48.98330682 7.375 54.875 C2.17044377 61.7231003 -2.66601192 64.27986486 -11 66 C-19.36668874 66.89643094 -27.41830091 64.13693587 -34 59 C-34.639375 58.505 -35.27875 58.01 -35.9375 57.5 C-37 56 -37 56 -36.7734375 54.171875 C-35.83048899 51.52399939 -34.52359943 49.87311283 -32.6875 47.75 C-32.09324219 47.04359375 -31.49898437 46.3371875 -30.88671875 45.609375 C-29 44 -29 44 -25 44 C-23.10546875 45.09375 -23.10546875 45.09375 -21.1875 46.5 C-17.34321772 49.03650775 -14.66846073 49.6535845 -10 49 C-9.34 48.34 -8.68 47.68 -8 47 C-8.20304353 44.4941457 -8.5658522 43.36953572 -10.49609375 41.7265625 C-11.13675781 41.36304688 -11.77742187 40.99953125 -12.4375 40.625 C-13.15679688 40.20089844 -13.87609375 39.77679687 -14.6171875 39.33984375 C-16.24186682 38.42629456 -17.87237242 37.52304872 -19.5078125 36.62890625 C-26.13337165 32.89063205 -32.50034713 28.49895862 -35 21 C-35.53385142 15.03523706 -35.55270149 10.04254405 -32 5 C-23.35852484 -4.0779133 -11.21055662 -5.81585227 0 0 Z " fill="#929397" transform="translate(890,937)"/>
<path d="M0 0 C5.94 0 11.88 0 18 0 C18 7.92 18 15.84 18 24 C20.97 24 23.94 24 27 24 C27 28.95 27 33.9 27 39 C24.03 39 21.06 39 18 39 C18 55.5 18 72 18 89 C12.06 89 6.12 89 0 89 C0 72.5 0 56 0 39 C-2.64 39 -5.28 39 -8 39 C-8 34.05 -8 29.1 -8 24 C-5.36 24 -2.72 24 0 24 C0 16.08 0 8.16 0 0 Z " fill="#929396" transform="translate(1243,912)"/>
<path d="M0 0 C5.61 0 11.22 0 17 0 C17 7.92 17 15.84 17 24 C20.3 24 23.6 24 27 24 C27 28.95 27 33.9 27 39 C23.7 39 20.4 39 17 39 C17 55.5 17 72 17 89 C11.39 89 5.78 89 0 89 C0 72.5 0 56 0 39 C-2.64 39 -5.28 39 -8 39 C-8 34.05 -8 29.1 -8 24 C-5.36 24 -2.72 24 0 24 C0 16.08 0 8.16 0 0 Z " fill="#929497" transform="translate(1352,912)"/>
<path d="M0 0 C5.61 0 11.22 0 17 0 C17 7.92 17 15.84 17 24 C20.3 24 23.6 24 27 24 C27 28.95 27 33.9 27 39 C23.7 39 20.4 39 17 39 C17 55.5 17 72 17 89 C11.39 89 5.78 89 0 89 C0 72.5 0 56 0 39 C-2.64 39 -5.28 39 -8 39 C-8 34.05 -8 29.1 -8 24 C-5.36 24 -2.72 24 0 24 C0 16.08 0 8.16 0 0 Z " fill="#929497" transform="translate(1178,912)"/>
<path d="M0 0 C5.61 0 11.22 0 17 0 C17 29.7 17 59.4 17 90 C11.39 90 5.78 90 0 90 C0 60.3 0 30.6 0 0 Z " fill="#929396" transform="translate(798,911)"/>
<path d="M0 0 C5.61 0 11.22 0 17 0 C17 29.04 17 58.08 17 88 C11.39 88 5.78 88 0 88 C0 58.96 0 29.92 0 0 Z " fill="#929396" transform="translate(1018,913)"/>
<path d="M0 0 C5.61 0 11.22 0 17 0 C17 21.45 17 42.9 17 65 C11.39 65 5.78 65 0 65 C0 43.55 0 22.1 0 0 Z " fill="#929496" transform="translate(1211,936)"/>
<path d="M0 0 C5.61 0 11.22 0 17 0 C17 21.45 17 42.9 17 65 C11.39 65 5.78 65 0 65 C0 43.55 0 22.1 0 0 Z " fill="#929496" transform="translate(827,936)"/>
<path d="M0 0 C3.58840946 1.76297099 5.28320884 4.51954269 7.01953125 7.9921875 C7.22265625 9.9453125 7.22265625 9.9453125 7.26953125 12.2421875 C7.2953125 12.98984375 7.32109375 13.7375 7.34765625 14.5078125 C6.6126584 20.07279624 3.36134963 24.10881469 -0.29296875 28.1796875 C-1.40091797 29.43845703 -1.40091797 29.43845703 -2.53125 30.72265625 C-7.55532479 35.37813863 -12.49518794 36.82129161 -19.21484375 36.68359375 C-24.3773858 35.39295824 -27.19118131 31.31036245 -29.98046875 26.9921875 C-31.62551248 22.05705631 -31.60588836 17.81113314 -29.48046875 13.0546875 C-22.87761148 0.97686318 -13.25034406 -4.74032752 0 0 Z " fill="#4374B8" transform="translate(1093.98046875,601.0078125)"/>
<path d="M0 0 C3.19877975 2.66564979 4.63661405 4.17020705 5.44140625 8.22265625 C5.65311405 12.31339733 5.32946868 14.4728501 3.125 18 C-0.40814057 21.32530877 -3.04661263 21.33074386 -7.73828125 21.29296875 C-11.0542278 20.86344199 -12.74987627 19.39075646 -15 17 C-16.74348951 13.51302098 -16.58082725 9.80409937 -16 6 C-12.44718103 -0.63924472 -7.03897801 -2.17742705 0 0 Z " fill="#919496" transform="translate(841,910)"/>
<path d="M0 0 C2.70567626 1.82339052 4.53728718 3.07457436 6 6 C6.55512815 10.63213493 6.6364242 13.98172127 4.125 18 C0.59185943 21.32530877 -2.04661263 21.33074386 -6.73828125 21.29296875 C-10.0542278 20.86344199 -11.74987627 19.39075646 -14 17 C-15.85855282 13.28289437 -15.57908439 9.04722719 -15 5 C-10.60407717 -0.82162753 -6.95827892 -1.55961424 0 0 Z " fill="#929496" transform="translate(1224,910)"/>
<path d="M0 0 C1.4540625 0.0309375 1.4540625 0.0309375 2.9375 0.0625 C2.9375 0.7225 2.9375 1.3825 2.9375 2.0625 C1.9475 2.3925 0.9575 2.7225 -0.0625 3.0625 C-0.3925 4.0525 -0.7225 5.0425 -1.0625 6.0625 C-1.7225 6.0625 -2.3825 6.0625 -3.0625 6.0625 C-3.44468767 4.40635343 -3.77645102 2.73792976 -4.0625 1.0625 C-3.0625 0.0625 -3.0625 0.0625 0 0 Z " fill="#4A6EC1" transform="translate(505.0625,613.9375)"/>
<path d="M0 0 C0 0.33 0 0.66 0 1 C-1.0725 1.268125 -2.145 1.53625 -3.25 1.8125 C-6.56508928 2.86227827 -8.43877646 3.74612328 -11 6 C-11.66 5.67 -12.32 5.34 -13 5 C-8.58490204 0.69258736 -6.42286118 -0.64228612 0 0 Z " fill="#4972B0" transform="translate(733,518)"/>
<path d="M0 0 C0.33 0.99 0.66 1.98 1 3 C-4.17578125 6.22265625 -4.17578125 6.22265625 -6 7 C-6.99 6.67 -7.98 6.34 -9 6 C-6.03 4.02 -3.06 2.04 0 0 Z " fill="#4A72AF" transform="translate(123,328)"/>
<path d="M0 0 C0.33 0.99 0.66 1.98 1 3 C-0.98 3.99 -0.98 3.99 -3 5 C-3 5.99 -3 6.98 -3 8 C-3.99 7.67 -4.98 7.34 -6 7 C-4.02 4.69 -2.04 2.38 0 0 Z " fill="#4C70B5" transform="translate(163,344)"/>
<path d="M0 0 C2 3 2 3 1.625 5.1875 C1.41875 5.785625 1.2125 6.38375 1 7 C0.34 7 -0.32 7 -1 7 C-1 7.99 -1 8.98 -1 10 C-1.66 9.67 -2.32 9.34 -3 9 C-2.01 6.03 -1.02 3.06 0 0 Z " fill="#4973AB" transform="translate(484,241)"/>
</svg>
